mtllib model_25.mtl
o model_25
v -0.07935793697834015 -0.23696400225162506 0.3516629934310913 
v -0.0842590481042862 -0.23696400225162506 -0.32413166761398315 
v 0.302928626537323 -0.23696400225162506 -0.128653883934021 
v 0.302928626537323 -0.23696400225162506 -0.128653883934021 
v -0.07935793697834015 -0.23696400225162506 0.3516629934310913 
v 0.15589533746242523 -0.23696400225162506 0.2511315643787384 
v -0.0842590481042862 0.23000484704971313 0.362833172082901 
v 0.31763195991516113 0.23000484704971313 -0.13423895835876465 
v -0.0842590481042862 0.23000484704971313 -0.34647199511528015 
v -0.07935793697834015 -0.23696400225162506 0.3516629934310913 
v -0.0842590481042862 -0.23696400225162506 -0.32413166761398315 
v -0.29500678181648254 -0.23696400225162506 -0.07838816195726395 
v -0.30480900406837463 0.23000484704971313 -0.0728030800819397 
v -0.0842590481042862 0.23000484704971313 0.362833172082901 
v -0.0842590481042862 0.23000484704971313 -0.34647199511528015 
v -0.0842590481042862 0.23000484704971313 0.362833172082901 
v 0.31763195991516113 0.23000484704971313 -0.13423895835876465 
v 0.16079644858837128 0.23000484704971313 0.2623017132282257 
v -0.30480900406837463 0.23000484704971313 -0.0728030800819397 
v -0.0842590481042862 0.23000484704971313 -0.34647199511528015 
v -0.29500678181648254 -0.23696400225162506 -0.07838816195726395 
v -0.0842590481042862 -0.23696400225162506 -0.32413166761398315 
v 0.16079644858837128 0.23000484704971313 0.2623017132282257 
v -0.0842590481042862 0.23000484704971313 0.362833172082901 
v 0.15589533746242523 -0.23696400225162506 0.2511315643787384 
v -0.07935793697834015 -0.23696400225162506 0.3516629934310913 
v -0.0842590481042862 0.23000484704971313 0.362833172082901 
v -0.30480900406837463 0.23000484704971313 -0.0728030800819397 
v -0.07935793697834015 -0.23696400225162506 0.3516629934310913 
v -0.29500678181648254 -0.23696400225162506 -0.07838816195726395 
v -0.0842590481042862 0.23000484704971313 -0.34647199511528015 
v 0.31763195991516113 0.23000484704971313 -0.13423895835876465 
v -0.0842590481042862 -0.23696400225162506 -0.32413166761398315 
v 0.302928626537323 -0.23696400225162506 -0.128653883934021 
v 0.31763195991516113 0.23000484704971313 -0.13423895835876465 
v 0.16079644858837128 0.23000484704971313 0.2623017132282257 
v 0.302928626537323 -0.23696400225162506 -0.128653883934021 
v 0.15589533746242523 -0.23696400225162506 0.2511315643787384 
vn 3.097898456858039e-13 -0.999997615814209 -0.002184694167226553 
vn 3.097898456858039e-13 -0.999997615814209 -0.002184694167226553 
vn 3.097898456858039e-13 -0.999997615814209 -0.002184694167226553 
vn 3.097898456858039e-13 -0.999997615814209 -0.002184694167226553 
vn 3.097898456858039e-13 -0.999997615814209 -0.002184694167226553 
vn 3.097898456858039e-13 -0.999997615814209 -0.002184694167226553 
vn -1.0341130485562108e-13 0.999997615814209 0.002184694167226553 
vn -1.0341130485562108e-13 0.999997615814209 0.002184694167226553 
vn -1.0341130485562108e-13 0.999997615814209 0.002184694167226553 
vn 3.097898456858039e-13 -0.999997615814209 -0.002184694167226553 
vn 3.097898456858039e-13 -0.999997615814209 -0.002184694167226553 
vn 3.097898456858039e-13 -0.999997615814209 -0.002184694167226553 
vn -1.0341130485562108e-13 0.999997615814209 0.002184694167226553 
vn -1.0341130485562108e-13 0.999997615814209 0.002184694167226553 
vn -1.0341130485562108e-13 0.999997615814209 0.002184694167226553 
vn -1.0341130485562108e-13 0.999997615814209 0.002184694167226553 
vn -1.0341130485562108e-13 0.999997615814209 0.002184694167226553 
vn -1.0341130485562108e-13 0.999997615814209 0.002184694167226553 
vn -0.774941623210907 -0.018876219168305397 -0.6317508816719055 
vn -0.774941623210907 -0.018876219168305397 -0.6317508816719055 
vn -0.774941623210907 -0.018876219168305397 -0.6317508816719055 
vn -0.774941623210907 -0.018876219168305397 -0.6317508816719055 
vn 0.37847834825515747 -0.022531764581799507 0.9253358840942383 
vn 0.37847834825515747 -0.022531764581799507 0.9253358840942383 
vn 0.37847834825515747 -0.022531764581799507 0.9253358840942383 
vn 0.37847834825515747 -0.022531764581799507 0.9253358840942383 
vn -0.8933821320533752 -0.022639060392975807 0.4487268626689911 
vn -0.8933821320533752 -0.022639060392975807 0.4487268626689911 
vn -0.8933821320533752 -0.022639060392975807 0.4487268626689911 
vn -0.8933821320533752 -0.022639060392975807 0.4487268626689911 
vn 0.46522778272628784 -0.030255593359470367 -0.8846737742424011 
vn 0.46522778272628784 -0.030255593359470367 -0.8846737742424011 
vn 0.46522778272628784 -0.030255593359470367 -0.8846737742424011 
vn 0.46522778272628784 -0.030255593359470367 -0.8846737742424011 
vn 0.9323369860649109 -0.022622376680374146 0.36088213324546814 
vn 0.9323369860649109 -0.022622376680374146 0.36088213324546814 
vn 0.9323369860649109 -0.022622376680374146 0.36088213324546814 
vn 0.9323369860649109 -0.022622376680374146 0.36088213324546814 
vt 0.0997433215379715 0.9110084176063538 
vt 0.08758649975061417 0.9065868854522705 
vt 0.09376294910907745 0.9009969830513 
vt 0.09376294910907745 0.9009969830513 
vt 0.0997433215379715 0.9110084176063538 
vt 0.09954724460840225 0.9061195254325867 
vt 0.8786624073982239 0.9669968485832214 
vt 0.890623152256012 0.9646512866020203 
vt 0.890623152256012 0.9733505845069885 
vt 0.0997433215379715 0.9110084176063538 
vt 0.08758649975061417 0.9065868854522705 
vt 0.09072374552488327 0.9119969606399536 
vt 0.8840545415878296 0.9746087789535522 
vt 0.8786624073982239 0.9669968485832214 
vt 0.890623152256012 0.9733505845069885 
vt 0.8786624073982239 0.9669968485832214 
vt 0.890623152256012 0.9646512866020203 
vt 0.8824859261512756 0.9637436270713806 
vt 0.1086648628115654 0.9201301336288452 
vt 0.10846878588199615 0.9268523454666138 
vt 0.0997433215379715 0.920112133026123 
vt 0.09954724460840225 0.9263490438461304 
vt 0.10846878588199615 0.9057959914207458 
vt 0.1086648628115654 0.9108286499977112 
vt 0.09954724460840225 0.9061195254325867 
vt 0.0997433215379715 0.9110084176063538 
vt 0.1086648628115654 0.9108286499977112 
vt 0.1086648628115654 0.9201301336288452 
vt 0.0997433215379715 0.9110084176063538 
vt 0.0997433215379715 0.920112133026123 
vt 0.10846878588199615 0.9268523454666138 
vt 0.1077825129032135 0.9355157017707825 
vt 0.09954724460840225 0.9263490438461304 
vt 0.0988609716296196 0.934626042842865 
vt 0.1077825129032135 0.9355157017707825 
vt 0.10670408606529236 0.9436308741569519 
vt 0.0988609716296196 0.934626042842865 
vt 0.09788058698177338 0.9423097968101501 
s on 
f 1/1/1 2/2/2 3/3/3 
f 2/2/2 3/3/3 3/3/3 
f 3/3/3 3/3/3 4/4/4 
f 3/3/3 4/4/4 4/4/4 
f 4/4/4 4/4/4 5/5/5 
f 4/4/4 6/6/6 5/5/5 
f 5/5/5 6/6/6 6/6/6 
f 6/6/6 7/7/7 6/6/6 
f 6/6/6 7/7/7 7/7/7 
f 7/7/7 8/8/8 7/7/7 
f 7/7/7 8/8/8 9/9/9 
f 8/8/8 9/9/9 9/9/9 
f 9/9/9 9/9/9 10/10/10 
f 9/9/9 10/10/10 10/10/10 
f 10/10/10 10/10/10 11/11/11 
f 10/10/10 12/12/12 11/11/11 
f 11/11/11 12/12/12 12/12/12 
f 12/12/12 13/13/13 12/12/12 
f 12/12/12 13/13/13 13/13/13 
f 13/13/13 14/14/14 13/13/13 
f 13/13/13 14/14/14 15/15/15 
f 14/14/14 15/15/15 15/15/15 
f 15/15/15 15/15/15 16/16/16 
f 15/15/15 16/16/16 16/16/16 
f 16/16/16 16/16/16 17/17/17 
f 16/16/16 18/18/18 17/17/17 
f 17/17/17 18/18/18 18/18/18 
f 18/18/18 19/19/19 18/18/18 
f 18/18/18 19/19/19 19/19/19 
f 19/19/19 20/20/20 19/19/19 
f 19/19/19 20/20/20 21/21/21 
f 20/20/20 22/22/22 21/21/21 
f 21/21/21 22/22/22 22/22/22 
f 22/22/22 23/23/23 22/22/22 
f 22/22/22 23/23/23 23/23/23 
f 23/23/23 24/24/24 23/23/23 
f 23/23/23 24/24/24 25/25/25 
f 24/24/24 26/26/26 25/25/25 
f 25/25/25 26/26/26 26/26/26 
f 26/26/26 27/27/27 26/26/26 
f 26/26/26 27/27/27 27/27/27 
f 27/27/27 28/28/28 27/27/27 
f 27/27/27 28/28/28 29/29/29 
f 28/28/28 30/30/30 29/29/29 
f 29/29/29 30/30/30 30/30/30 
f 30/30/30 31/31/31 30/30/30 
f 30/30/30 31/31/31 31/31/31 
f 31/31/31 32/32/32 31/31/31 
f 31/31/31 32/32/32 33/33/33 
f 32/32/32 34/34/34 33/33/33 
f 33/33/33 34/34/34 34/34/34 
f 34/34/34 35/35/35 34/34/34 
f 34/34/34 35/35/35 35/35/35 
f 35/35/35 36/36/36 35/35/35 
f 35/35/35 36/36/36 37/37/37 
f 36/36/36 38/38/38 37/37/37 

