mtllib model_59.mtl
o model_59
v 0.334293007850647 -0.6451845169067383 -0.7543591260910034 
v 0.6972975134849548 -0.31015750765800476 -0.824503481388092 
v 1.0794074535369873 -0.599498987197876 -0.4387092888355255 
v 0.4107150137424469 -0.6908699870109558 1.3149007558822632 
v 0.5253480076789856 -0.7822409868240356 1.1746119260787964 
v 0.27697649598121643 -0.7365555167198181 1.2622923851013184 
v 0.6972975134849548 1.0147219896316528 0.08737370371818542 
v 0.6017699837684631 0.6949235200881958 0.7888177037239075 
v 1.117618441581726 0.375124990940094 -0.5263897776603699 
v -0.7929314970970154 -0.7822409868240356 0.3504151999950409 
v 0.5253480076789856 -0.7822409868240356 1.1746119260787964 
v 0.334293007850647 -0.6451845169067383 -0.7543591260910034 
v -1.136830449104309 -0.7060984969139099 -0.2984204888343811 
v -0.983986496925354 -0.5233564972877502 0.5433123111724854 
v -1.3087799549102783 0.49695301055908203 -0.0003068000078201294 
v -1.2896745204925537 0.46649599075317383 0.13998199999332428 
v -0.983986496925354 -0.5233564972877502 0.5433123111724854 
v -1.136830449104309 -0.7060984969139099 -0.2984204888343811 
v -0.6782984733581543 -0.7517840266227722 0.8589621186256409 
v -0.7929314970970154 -0.7822409868240356 0.3504151999950409 
v 0.5253480076789856 -0.7822409868240356 1.1746119260787964 
v 0.27697649598121643 -0.7365555167198181 1.2622923851013184 
v -0.7929314970970154 -0.7822409868240356 0.3504151999950409 
v -0.6782984733581543 -0.7517840266227722 0.8589621186256409 
v -0.10513350367546082 0.9538080096244812 -0.8069673776626587 
v -0.41082149744033813 0.5274099707603455 -0.8595756888389587 
v -0.27708300948143005 1.1517784595489502 -0.68421471118927 
v -0.5445600152015686 0.9842650294303894 -0.5088536739349365 
v 1.0794074535369873 -0.599498987197876 -0.4387092888355255 
v 1.117618441581726 -0.6299560070037842 0.052301499992609024 
v 0.334293007850647 -0.6451845169067383 -0.7543591260910034 
v 0.5253480076789856 -0.7822409868240356 1.1746119260787964 
v -0.5445600152015686 -0.721327006816864 -0.9121840000152588 
v 0.334293007850647 -0.6451845169067383 -0.7543591260910034 
v -1.136830449104309 -0.7060984969139099 -0.2984204888343811 
v -0.7929314970970154 -0.7822409868240356 0.3504151999950409 
v -1.2896745204925537 0.46649599075317383 0.13998199999332428 
v -0.983986496925354 -0.5233564972877502 0.5433123111724854 
v 0.6017699837684631 0.6949235200881958 0.7888177037239075 
v -0.6782984733581543 -0.7517840266227722 0.8589621186256409 
v 0.27697649598121643 -0.7365555167198181 1.2622923851013184 
v 0.4107150137424469 -0.6908699870109558 1.3149007558822632 
v 0.5253480076789856 -0.7822409868240356 1.1746119260787964 
v 0.4107150137424469 -0.6908699870109558 1.3149007558822632 
v 1.117618441581726 -0.6299560070037842 0.052301499992609024 
v 0.6017699837684631 0.6949235200881958 0.7888177037239075 
v 1.117618441581726 0.375124990940094 -0.5263897776603699 
v -0.5445600152015686 -0.721327006816864 -0.9121840000152588 
v -0.41082149744033813 0.5274099707603455 -0.8595756888389587 
v 0.334293007850647 -0.6451845169067383 -0.7543591260910034 
v -0.10513350367546082 0.9538080096244812 -0.8069673776626587 
v 0.544453501701355 0.5578669905662537 -0.7894312739372253 
v 0.6972975134849548 -0.31015750765800476 -0.824503481388092 
v -0.27708300948143005 1.1517784595489502 -0.68421471118927 
v 0.6972975134849548 1.0147219896316528 0.08737370371818542 
v -0.5445600152015686 0.9842650294303894 -0.5088536739349365 
v -1.3087799549102783 0.49695301055908203 -0.0003068000078201294 
v -1.2896745204925537 0.46649599075317383 0.13998199999332428 
v 0.6017699837684631 0.6949235200881958 0.7888177037239075 
v -0.10513350367546082 0.9538080096244812 -0.8069673776626587 
v 0.544453501701355 0.5578669905662537 -0.7894312739372253 
v -0.27708300948143005 1.1517784595489502 -0.68421471118927 
v 1.117618441581726 0.375124990940094 -0.5263897776603699 
v 0.6972975134849548 1.0147219896316528 0.08737370371818542 
v -1.3087799549102783 0.49695301055908203 -0.0003068000078201294 
v -0.5445600152015686 0.9842650294303894 -0.5088536739349365 
v -1.136830449104309 -0.7060984969139099 -0.2984204888343811 
v -0.5445600152015686 -0.721327006816864 -0.9121840000152588 
v -0.41082149744033813 0.5274099707603455 -0.8595756888389587 
v 1.117618441581726 -0.6299560070037842 0.052301499992609024 
v 1.0794074535369873 -0.599498987197876 -0.4387092888355255 
v 1.117618441581726 0.375124990940094 -0.5263897776603699 
v 0.6972975134849548 -0.31015750765800476 -0.824503481388092 
v 0.544453501701355 0.5578669905662537 -0.7894312739372253 
vn 0.35812440514564514 -0.5699517726898193 -0.7395281791687012 
vn 0.35812440514564514 -0.5699517726898193 -0.7395281791687012 
vn 0.35812440514564514 -0.5699517726898193 -0.7395281791687012 
vn 0.0508984699845314 -0.8282344937324524 0.5580654144287109 
vn 0.0508984699845314 -0.8282344937324524 0.5580654144287109 
vn 0.0508984699845314 -0.8282344937324524 0.5580654144287109 
vn 0.8998214602470398 0.3395504653453827 0.27391019463539124 
vn 0.8998214602470398 0.3395504653453827 0.27391019463539124 
vn 0.8998214602470398 0.3395504653453827 0.27391019463539124 
vn 0.04904209449887276 -0.9958711862564087 -0.0763898640871048 
vn 0.04904209449887276 -0.9958711862564087 -0.0763898640871048 
vn 0.04904209449887276 -0.9958711862564087 -0.0763898640871048 
vn -0.9577960968017578 -0.19123901426792145 0.21460255980491638 
vn -0.9577960968017578 -0.19123901426792145 0.21460255980491638 
vn -0.9577960968017578 -0.19123901426792145 0.21460255980491638 
vn -0.9577960968017578 -0.19123901426792145 0.21460255980491638 
vn -0.6847996115684509 -0.6834646463394165 0.25283506512641907 
vn -0.6847996115684509 -0.6834646463394165 0.25283506512641907 
vn -0.6847996115684509 -0.6834646463394165 0.25283506512641907 
vn -0.6847996115684509 -0.6834646463394165 0.25283506512641907 
vn -0.05278981104493141 -0.9928731918334961 0.10684575140476227 
vn -0.05278981104493141 -0.9928731918334961 0.10684575140476227 
vn -0.05278981104493141 -0.9928731918334961 0.10684575140476227 
vn -0.05278981104493141 -0.9928731918334961 0.10684575140476227 
vn -0.5230441689491272 0.3128814101219177 -0.7927988767623901 
vn -0.5230441689491272 0.3128814101219177 -0.7927988767623901 
vn -0.5230441689491272 0.3128814101219177 -0.7927988767623901 
vn -0.5230441689491272 0.3128814101219177 -0.7927988767623901 
vn 0.09992877393960953 -0.9917128682136536 -0.08074574917554855 
vn 0.09992877393960953 -0.9917128682136536 -0.08074574917554855 
vn 0.09992877393960953 -0.9917128682136536 -0.08074574917554855 
vn 0.09992877393960953 -0.9917128682136536 -0.08074574917554855 
vn 0.0377180390059948 -0.9984264373779297 -0.04149730131030083 
vn 0.0377180390059948 -0.9984264373779297 -0.04149730131030083 
vn 0.0377180390059948 -0.9984264373779297 -0.04149730131030083 
vn 0.0377180390059948 -0.9984264373779297 -0.04149730131030083 
vn -0.3779386878013611 0.3340508043766022 0.8634653687477112 
vn -0.3779386878013611 0.3340508043766022 0.8634653687477112 
vn -0.3779386878013611 0.3340508043766022 0.8634653687477112 
vn -0.3779386878013611 0.3340508043766022 0.8634653687477112 
vn -0.3779386878013611 0.3340508043766022 0.8634653687477112 
vn -0.3779386878013611 0.3340508043766022 0.8634653687477112 
vn 0.9008029103279114 0.12033651769161224 0.417220801115036 
vn 0.9008029103279114 0.12033651769161224 0.417220801115036 
vn 0.9008029103279114 0.12033651769161224 0.417220801115036 
vn 0.9008029103279114 0.12033651769161224 0.417220801115036 
vn 0.9008029103279114 0.12033651769161224 0.417220801115036 
vn 0.06985333561897278 0 -0.9975572824478149 
vn 0.06985333561897278 0 -0.9975572824478149 
vn 0.06985333561897278 0 -0.9975572824478149 
vn 0.06985333561897278 0 -0.9975572824478149 
vn 0.06985333561897278 0 -0.9975572824478149 
vn 0.06985333561897278 0 -0.9975572824478149 
vn -0.24419711530208588 0.8809778690338135 0.405272513628006 
vn -0.24419711530208588 0.8809778690338135 0.405272513628006 
vn -0.24419711530208588 0.8809778690338135 0.405272513628006 
vn -0.24419711530208588 0.8809778690338135 0.405272513628006 
vn -0.24419711530208588 0.8809778690338135 0.405272513628006 
vn -0.24419711530208588 0.8809778690338135 0.405272513628006 
vn 0.46977370977401733 0.753221333026886 -0.46040233969688416 
vn 0.46977370977401733 0.753221333026886 -0.46040233969688416 
vn 0.46977370977401733 0.753221333026886 -0.46040233969688416 
vn 0.46977370977401733 0.753221333026886 -0.46040233969688416 
vn 0.46977370977401733 0.753221333026886 -0.46040233969688416 
vn -0.687778651714325 0.13897621631622314 -0.7124928832054138 
vn -0.687778651714325 0.13897621631622314 -0.7124928832054138 
vn -0.687778651714325 0.13897621631622314 -0.7124928832054138 
vn -0.687778651714325 0.13897621631622314 -0.7124928832054138 
vn -0.687778651714325 0.13897621631622314 -0.7124928832054138 
vn 0.7695841789245605 -0.007555617485195398 -0.6385006904602051 
vn 0.7695841789245605 -0.007555617485195398 -0.6385006904602051 
vn 0.7695841789245605 -0.007555617485195398 -0.6385006904602051 
vn 0.7695841789245605 -0.007555617485195398 -0.6385006904602051 
vn 0.7695841789245605 -0.007555617485195398 -0.6385006904602051 
vt 0.8450934886932373 0.43007558584213257 
vt 0.855573296546936 0.42361414432525635 
vt 0.8706514239311218 0.4329473376274109 
vt 0.8742873072624207 0.39292240142822266 
vt 0.8804896473884583 0.39023011922836304 
vt 0.8731110095977783 0.3916659951210022 
vt 0.8618826270103455 0.40746060013771057 
vt 0.8658393025398254 0.40458884835243225 
vt 0.8628450632095337 0.4137425422668457 
vt 0.8565357327461243 0.3832302689552307 
vt 0.8804896473884583 0.39023011922836304 
vt 0.8569635152816772 0.34123098850250244 
vt 0.8353622555732727 0.3848456144332886 
vt 0.8568565845489502 0.38987115025520325 
vt 0.8547178506851196 0.3992043435573578 
vt 0.855573296546936 0.398845374584198 
vt 0.8568565845489502 0.38987115025520325 
vt 0.8353622555732727 0.3848456144332886 
vt 0.8620964884757996 0.38879427313804626 
vt 0.8565357327461243 0.3832302689552307 
vt 0.8804896473884583 0.39023011922836304 
vt 0.8731110095977783 0.3916659951210022 
vt 0.8565357327461243 0.3832302689552307 
vt 0.8620964884757996 0.38879427313804626 
vt 0.8562149405479431 0.40781956911087036 
vt 0.8522582650184631 0.40746060013771057 
vt 0.8568565845489502 0.4065631628036499 
vt 0.856001079082489 0.40476834774017334 
vt 0.87952721118927 0.3423078954219818 
vt 0.8853018283843994 0.3545128107070923 
vt 0.8569635152816772 0.34123098850250244 
vt 0.8804896473884583 0.39023011922836304 
vt 0.832047164440155 0.3570255935192108 
vt 0.8569635152816772 0.34123098850250244 
vt 0.8353622555732727 0.3848456144332886 
vt 0.8565357327461243 0.3832302689552307 
vt 0.855573296546936 0.398845374584198 
vt 0.8568565845489502 0.38987115025520325 
vt 0.8658393025398254 0.40458884835243225 
vt 0.8620964884757996 0.38879427313804626 
vt 0.8731110095977783 0.3916659951210022 
vt 0.8742873072624207 0.39292240142822266 
vt 0.8804896473884583 0.39023011922836304 
vt 0.8742873072624207 0.39292240142822266 
vt 0.8853018283843994 0.42648589611053467 
vt 0.8658393025398254 0.40458884835243225 
vt 0.8628450632095337 0.4137425422668457 
vt 0.8306570053100586 0.40889647603034973 
vt 0.8522582650184631 0.40746060013771057 
vt 0.8450934886932373 0.43007558584213257 
vt 0.8562149405479431 0.40781956911087036 
vt 0.8579259514808655 0.41194769740104675 
vt 0.855573296546936 0.42361414432525635 
vt 0.8568565845489502 0.4065631628036499 
vt 0.8618826270103455 0.40746060013771057 
vt 0.856001079082489 0.40476834774017334 
vt 0.8547178506851196 0.3992043435573578 
vt 0.855573296546936 0.398845374584198 
vt 0.8658393025398254 0.40458884835243225 
vt 0.8562149405479431 0.40781956911087036 
vt 0.8579259514808655 0.41194769740104675 
vt 0.8568565845489502 0.4065631628036499 
vt 0.8628450632095337 0.4137425422668457 
vt 0.8618826270103455 0.40746060013771057 
vt 0.8547178506851196 0.3992043435573578 
vt 0.856001079082489 0.40476834774017334 
vt 0.8353622555732727 0.3848456144332886 
vt 0.8306570053100586 0.40889647603034973 
vt 0.8522582650184631 0.40746060013771057 
vt 0.8853018283843994 0.42648589611053467 
vt 0.8706514239311218 0.4329473376274109 
vt 0.8628450632095337 0.4137425422668457 
vt 0.855573296546936 0.42361414432525635 
vt 0.8579259514808655 0.41194769740104675 
s on 
f 1/1/1 2/2/2 3/3/3 
f 2/2/2 3/3/3 3/3/3 
f 3/3/3 3/3/3 4/4/4 
f 3/3/3 4/4/4 4/4/4 
f 4/4/4 4/4/4 5/5/5 
f 4/4/4 6/6/6 5/5/5 
f 5/5/5 6/6/6 6/6/6 
f 6/6/6 7/7/7 6/6/6 
f 6/6/6 7/7/7 7/7/7 
f 7/7/7 8/8/8 7/7/7 
f 7/7/7 8/8/8 9/9/9 
f 8/8/8 9/9/9 9/9/9 
f 9/9/9 9/9/9 10/10/10 
f 9/9/9 10/10/10 10/10/10 
f 10/10/10 10/10/10 11/11/11 
f 10/10/10 12/12/12 11/11/11 
f 11/11/11 12/12/12 12/12/12 
f 12/12/12 13/13/13 12/12/12 
f 12/12/12 13/13/13 13/13/13 
f 13/13/13 14/14/14 13/13/13 
f 13/13/13 14/14/14 15/15/15 
f 14/14/14 16/16/16 15/15/15 
f 15/15/15 16/16/16 16/16/16 
f 16/16/16 17/17/17 16/16/16 
f 16/16/16 17/17/17 17/17/17 
f 17/17/17 18/18/18 17/17/17 
f 17/17/17 18/18/18 19/19/19 
f 18/18/18 20/20/20 19/19/19 
f 19/19/19 20/20/20 20/20/20 
f 20/20/20 21/21/21 20/20/20 
f 20/20/20 21/21/21 21/21/21 
f 21/21/21 22/22/22 21/21/21 
f 21/21/21 22/22/22 23/23/23 
f 22/22/22 24/24/24 23/23/23 
f 23/23/23 24/24/24 24/24/24 
f 24/24/24 25/25/25 24/24/24 
f 24/24/24 25/25/25 25/25/25 
f 25/25/25 26/26/26 25/25/25 
f 25/25/25 26/26/26 27/27/27 
f 26/26/26 28/28/28 27/27/27 
f 27/27/27 28/28/28 28/28/28 
f 28/28/28 29/29/29 28/28/28 
f 28/28/28 29/29/29 29/29/29 
f 29/29/29 30/30/30 29/29/29 
f 29/29/29 30/30/30 31/31/31 
f 30/30/30 32/32/32 31/31/31 
f 31/31/31 32/32/32 32/32/32 
f 32/32/32 33/33/33 32/32/32 
f 32/32/32 33/33/33 33/33/33 
f 33/33/33 34/34/34 33/33/33 
f 33/33/33 34/34/34 35/35/35 
f 34/34/34 36/36/36 35/35/35 
f 35/35/35 36/36/36 36/36/36 
f 36/36/36 37/37/37 36/36/36 
f 36/36/36 37/37/37 37/37/37 
f 37/37/37 38/38/38 37/37/37 
f 37/37/37 38/38/38 39/39/39 
f 38/38/38 40/40/40 39/39/39 
f 39/39/39 40/40/40 39/39/39 
f 40/40/40 41/41/41 39/39/39 
f 39/39/39 41/41/41 42/42/42 
f 41/41/41 42/42/42 42/42/42 
f 42/42/42 42/42/42 43/43/43 
f 42/42/42 43/43/43 43/43/43 
f 43/43/43 43/43/43 44/44/44 
f 43/43/43 45/45/45 44/44/44 
f 44/44/44 45/45/45 46/46/46 
f 45/45/45 47/47/47 46/46/46 
f 46/46/46 47/47/47 47/47/47 
f 47/47/47 48/48/48 47/47/47 
f 47/47/47 48/48/48 48/48/48 
f 48/48/48 49/49/49 48/48/48 
f 48/48/48 49/49/49 50/50/50 
f 49/49/49 51/51/51 50/50/50 
f 50/50/50 51/51/51 50/50/50 
f 51/51/51 52/52/52 50/50/50 
f 50/50/50 52/52/52 53/53/53 
f 52/52/52 53/53/53 53/53/53 
f 53/53/53 53/53/53 54/54/54 
f 53/53/53 54/54/54 54/54/54 
f 54/54/54 54/54/54 55/55/55 
f 54/54/54 56/56/56 55/55/55 
f 55/55/55 56/56/56 55/55/55 
f 56/56/56 57/57/57 55/55/55 
f 55/55/55 57/57/57 55/55/55 
f 57/57/57 58/58/58 55/55/55 
f 55/55/55 58/58/58 59/59/59 
f 58/58/58 59/59/59 59/59/59 
f 59/59/59 59/59/59 60/60/60 
f 59/59/59 60/60/60 60/60/60 
f 60/60/60 60/60/60 61/61/61 
f 60/60/60 62/62/62 61/61/61 
f 61/61/61 62/62/62 63/63/63 
f 62/62/62 64/64/64 63/63/63 
f 63/63/63 64/64/64 64/64/64 
f 64/64/64 65/65/65 64/64/64 
f 64/64/64 65/65/65 65/65/65 
f 65/65/65 66/66/66 65/65/65 
f 65/65/65 66/66/66 67/67/67 
f 66/66/66 66/66/66 67/67/67 
f 67/67/67 66/66/66 68/68/68 
f 66/66/66 69/69/69 68/68/68 
f 68/68/68 69/69/69 69/69/69 
f 69/69/69 70/70/70 69/69/69 
f 69/69/69 70/70/70 70/70/70 
f 70/70/70 71/71/71 70/70/70 
f 70/70/70 71/71/71 72/72/72 
f 71/71/71 73/73/73 72/72/72 
f 72/72/72 73/73/73 74/74/74 

