mtllib model_74.mtl
o model_74
v 4.480314254760742 0.24944180250167847 1.18227219581604 
v 3.0678200721740723 0.24944180250167847 -2.36499285697937 
v 0.1643597036600113 0.14598900079727173 -2.1521568298339844 
v 1.7337976694107056 0.24944180250167847 4.161974906921387 
v 1.0275505781173706 0.3848709166049957 1.1113269329071045 
v 4.480314254760742 0.24944180250167847 1.18227219581604 
v 0.1643597036600113 0.14598900079727173 -2.1521568298339844 
v 3.0678200721740723 0.24944180250167847 -2.36499285697937 
v -0.149527907371521 0.24944180250167847 -3.4291722774505615 
v -2.817572593688965 0.24944180250167847 -1.9393210411071777 
v -0.149527907371521 0.24944180250167847 -3.4291722774505615 
v 0.1643597036600113 0.14598900079727173 -2.1521568298339844 
v 1.7337976694107056 0.24944180250167847 4.161974906921387 
v 1.0275505781173706 0.3848709166049957 1.1113269329071045 
v -2.9745163917541504 0.360418438911438 1.0403815507888794 
v -2.9745163917541504 0.360418438911438 1.0403815507888794 
v 0.1643597036600113 0.14598900079727173 -2.1521568298339844 
v 1.0275505781173706 0.3848709166049957 1.1113269329071045 
v -4.151594638824463 0.24944180250167847 1.0403815507888794 
v -2.9745163917541504 0.360418438911438 1.0403815507888794 
v -2.817572593688965 0.24944180250167847 -1.9393210411071777 
v -4.151594638824463 0.24944180250167847 1.0403815507888794 
v -2.9745163917541504 0.360418438911438 1.0403815507888794 
v -3.052988290786743 0.24944180250167847 4.303865432739258 
v -2.817572593688965 0.24944180250167847 -1.9393210411071777 
v -2.9745163917541504 0.360418438911438 1.0403815507888794 
v 0.1643597036600113 0.14598900079727173 -2.1521568298339844 
v 1.0275505781173706 0.3848709166049957 1.1113269329071045 
v 0.1643597036600113 0.14598900079727173 -2.1521568298339844 
v 4.480314254760742 0.24944180250167847 1.18227219581604 
v -3.052988290786743 0.24944180250167847 4.303865432739258 
v 1.7337976694107056 0.24944180250167847 4.161974906921387 
v -2.9745163917541504 0.360418438911438 1.0403815507888794 
v 4.480314254760742 0.24944180250167847 1.18227219581604 
v 3.0678200721740723 0.24944180250167847 -2.36499285697937 
v 5.186561107635498 0.24944180250167847 1.3241628408432007 
v 3.538651466369629 0.24944180250167847 -2.861609935760498 
v -4.151594638824463 0.24944180250167847 1.0403815507888794 
v -3.052988290786743 0.24944180250167847 4.303865432739258 
v -4.779369831085205 0.24944180250167847 1.0403815507888794 
v -3.445347785949707 0.24944180250167847 4.942373275756836 
v -2.817572593688965 0.24944180250167847 -1.9393210411071777 
v -4.151594638824463 0.24944180250167847 1.0403815507888794 
v -3.3668758869171143 0.24944180250167847 -2.4359381198883057 
v -4.779369831085205 0.24944180250167847 1.0403815507888794 
v -0.149527907371521 0.24944180250167847 -3.4291722774505615 
v -2.817572593688965 0.24944180250167847 -1.9393210411071777 
v -0.22799980640411377 0.24944180250167847 -4.0676798820495605 
v -3.3668758869171143 0.24944180250167847 -2.4359381198883057 
v 3.0678200721740723 0.24944180250167847 -2.36499285697937 
v -0.149527907371521 0.24944180250167847 -3.4291722774505615 
v 3.538651466369629 0.24944180250167847 -2.861609935760498 
v -0.22799980640411377 0.24944180250167847 -4.0676798820495605 
v -3.052988290786743 0.24944180250167847 4.303865432739258 
v 1.7337976694107056 0.24944180250167847 4.161974906921387 
v -3.445347785949707 0.24944180250167847 4.942373275756836 
v 2.047685384750366 0.24944180250167847 4.800482273101807 
v 1.7337976694107056 0.24944180250167847 4.161974906921387 
v 4.480314254760742 0.24944180250167847 1.18227219581604 
v 2.047685384750366 0.24944180250167847 4.800482273101807 
v 5.186561107635498 0.24944180250167847 1.3241628408432007 
vn -0.037746138870716095 0.9991703629493713 0.0152922747656703 
vn -0.037746138870716095 0.9991703629493713 0.0152922747656703 
vn -0.037746138870716095 0.9991703629493713 0.0152922747656703 
vn 0.03772452101111412 0.9985980987548828 0.03713129088282585 
vn 0.03772452101111412 0.9985980987548828 0.03713129088282585 
vn 0.03772452101111412 0.9985980987548828 0.03713129088282585 
vn -0.02830437570810318 0.9955887794494629 0.08945280313491821 
vn -0.02830437570810318 0.9955887794494629 0.08945280313491821 
vn -0.02830437570810318 0.9955887794494629 0.08945280313491821 
vn 0.04151540994644165 0.9965379238128662 0.07203252613544464 
vn 0.04151540994644165 0.9965379238128662 0.07203252613544464 
vn 0.04151540994644165 0.9965379238128662 0.07203252613544464 
vn -0.009441155940294266 0.9989031553268433 0.04586252197623253 
vn -0.009441155940294266 0.9989031553268433 0.04586252197623253 
vn -0.009441155940294266 0.9989031553268433 0.04586252197623253 
vn -0.0037752098869532347 0.9973951578140259 -0.07203252613544464 
vn -0.0037752098869532347 0.9973951578140259 -0.07203252613544464 
vn -0.0037752098869532347 0.9973951578140259 -0.07203252613544464 
vn -0.0904209241271019 0.9950386881828308 -0.04149730131030083 
vn -0.0904209241271019 0.9950386881828308 -0.04149730131030083 
vn -0.0904209241271019 0.9950386881828308 -0.04149730131030083 
vn -0.09796451777219772 0.9946504235267639 0.03276457265019417 
vn -0.09796451777219772 0.9946504235267639 0.03276457265019417 
vn -0.09796451777219772 0.9946504235267639 0.03276457265019417 
vn 0.03018219955265522 0.9988545179367065 -0.03713129088282585 
vn 0.03018219955265522 0.9988545179367065 -0.03713129088282585 
vn 0.03018219955265522 0.9988545179367065 -0.03713129088282585 
vn 0.03965058550238609 0.9959457516670227 -0.08074574917554855 
vn 0.03965058550238609 0.9959457516670227 -0.08074574917554855 
vn 0.03965058550238609 0.9959457516670227 -0.08074574917554855 
vn -1.0335603087361506e-13 0.9994630813598633 0.03276457265019417 
vn -1.0335603087361506e-13 0.9994630813598633 0.03276457265019417 
vn -1.0335603087361506e-13 0.9994630813598633 0.03276457265019417 
vn -1.0341130485562108e-13 0.999997615814209 0.002184694167226553 
vn -1.0341130485562108e-13 0.999997615814209 0.002184694167226553 
vn -1.0341130485562108e-13 0.999997615814209 0.002184694167226553 
vn -1.0341130485562108e-13 0.999997615814209 0.002184694167226553 
vn -1.0341130485562108e-13 0.999997615814209 0.002184694167226553 
vn -1.0341130485562108e-13 0.999997615814209 0.002184694167226553 
vn -1.0341130485562108e-13 0.999997615814209 0.002184694167226553 
vn -1.0341130485562108e-13 0.999997615814209 0.002184694167226553 
vn -1.0341130485562108e-13 0.999997615814209 0.002184694167226553 
vn -1.0341130485562108e-13 0.999997615814209 0.002184694167226553 
vn -1.0341130485562108e-13 0.999997615814209 0.002184694167226553 
vn -1.0341130485562108e-13 0.999997615814209 0.002184694167226553 
vn -1.0341130485562108e-13 0.999997615814209 0.002184694167226553 
vn -1.0341130485562108e-13 0.999997615814209 0.002184694167226553 
vn -1.0341130485562108e-13 0.999997615814209 0.002184694167226553 
vn -1.0341130485562108e-13 0.999997615814209 0.002184694167226553 
vn -1.0341130485562108e-13 0.999997615814209 0.002184694167226553 
vn -1.0341130485562108e-13 0.999997615814209 0.002184694167226553 
vn -1.0341130485562108e-13 0.999997615814209 0.002184694167226553 
vn -1.0341130485562108e-13 0.999997615814209 0.002184694167226553 
vn -1.0341130485562108e-13 0.999997615814209 0.002184694167226553 
vn -1.0341130485562108e-13 0.999997615814209 0.002184694167226553 
vn -1.0341130485562108e-13 0.999997615814209 0.002184694167226553 
vn -1.0341130485562108e-13 0.999997615814209 0.002184694167226553 
vn -1.0341130485562108e-13 0.999997615814209 0.002184694167226553 
vn -1.0341130485562108e-13 0.999997615814209 0.002184694167226553 
vn -1.0341130485562108e-13 0.999997615814209 0.002184694167226553 
vn -1.0341130485562108e-13 0.999997615814209 0.002184694167226553 
vt 0.8106544613838196 0.07779441773891449 
vt 0.8107806444168091 0.182824969291687 
vt 0.733701765537262 0.20692236721515656 
vt 0.7117512822151184 0.02874770760536194 
vt 0.7222219109535217 0.11406221240758896 
vt 0.8106544613838196 0.07779441773891449 
vt 0.733701765537262 0.20692236721515656 
vt 0.8107806444168091 0.182824969291687 
vt 0.7379909157752991 0.24160800874233246 
vt 0.6547306180000305 0.2317499816417694 
vt 0.7379909157752991 0.24160800874233246 
vt 0.733701765537262 0.20692236721515656 
vt 0.7117512822151184 0.02874770760536194 
vt 0.7222219109535217 0.11406221240758896 
vt 0.6223095655441284 0.15495476126670837 
vt 0.6223095655441284 0.15495476126670837 
vt 0.733701765537262 0.20692236721515656 
vt 0.7222219109535217 0.11406221240758896 
vt 0.5922853350639343 0.1673685610294342 
vt 0.6223095655441284 0.15495476126670837 
vt 0.6547306180000305 0.2317499816417694 
vt 0.5922853350639343 0.1673685610294342 
vt 0.6223095655441284 0.15495476126670837 
vt 0.5872392654418945 0.07268285006284714 
vt 0.6547306180000305 0.2317499816417694 
vt 0.6223095655441284 0.15495476126670837 
vt 0.733701765537262 0.20692236721515656 
vt 0.7222219109535217 0.11406221240758896 
vt 0.733701765537262 0.20692236721515656 
vt 0.8106544613838196 0.07779441773891449 
vt 0.5872392654418945 0.07268285006284714 
vt 0.7117512822151184 0.02874770760536194 
vt 0.6223095655441284 0.15495476126670837 
vt 0.8106544613838196 0.07779441773891449 
vt 0.8107806444168091 0.182824969291687 
vt 0.8278111219406128 0.06720617413520813 
vt 0.8278111219406128 0.19097913801670074 
vt 0.5922853350639343 0.1673685610294342 
vt 0.5872392654418945 0.07268285006284714 
vt 0.5755071640014648 0.17467080056667328 
vt 0.5695779919624329 0.060877565294504166 
vt 0.6547306180000305 0.2317499816417694 
vt 0.5922853350639343 0.1673685610294342 
vt 0.64665687084198 0.24793660640716553 
vt 0.5755071640014648 0.17467080056667328 
vt 0.7379909157752991 0.24160800874233246 
vt 0.6547306180000305 0.2317499816417694 
vt 0.7430369853973389 0.25937679409980774 
vt 0.64665687084198 0.24793660640716553 
vt 0.8107806444168091 0.182824969291687 
vt 0.7379909157752991 0.24160800874233246 
vt 0.8278111219406128 0.19097913801670074 
vt 0.7430369853973389 0.25937679409980774 
vt 0.5872392654418945 0.07268285006284714 
vt 0.7117512822151184 0.02874770760536194 
vt 0.5695779919624329 0.060877565294504166 
vt 0.7128866910934448 0.0102487001568079 
vt 0.7117512822151184 0.02874770760536194 
vt 0.8106544613838196 0.07779441773891449 
vt 0.7128866910934448 0.0102487001568079 
vt 0.8278111219406128 0.06720617413520813 
s on 
f 1/1/1 2/2/2 3/3/3 
f 2/2/2 3/3/3 3/3/3 
f 3/3/3 3/3/3 4/4/4 
f 3/3/3 4/4/4 4/4/4 
f 4/4/4 4/4/4 5/5/5 
f 4/4/4 6/6/6 5/5/5 
f 5/5/5 6/6/6 6/6/6 
f 6/6/6 7/7/7 6/6/6 
f 6/6/6 7/7/7 7/7/7 
f 7/7/7 8/8/8 7/7/7 
f 7/7/7 8/8/8 9/9/9 
f 8/8/8 9/9/9 9/9/9 
f 9/9/9 9/9/9 10/10/10 
f 9/9/9 10/10/10 10/10/10 
f 10/10/10 10/10/10 11/11/11 
f 10/10/10 12/12/12 11/11/11 
f 11/11/11 12/12/12 12/12/12 
f 12/12/12 13/13/13 12/12/12 
f 12/12/12 13/13/13 13/13/13 
f 13/13/13 14/14/14 13/13/13 
f 13/13/13 14/14/14 15/15/15 
f 14/14/14 15/15/15 15/15/15 
f 15/15/15 15/15/15 16/16/16 
f 15/15/15 16/16/16 16/16/16 
f 16/16/16 16/16/16 17/17/17 
f 16/16/16 18/18/18 17/17/17 
f 17/17/17 18/18/18 18/18/18 
f 18/18/18 19/19/19 18/18/18 
f 18/18/18 19/19/19 19/19/19 
f 19/19/19 20/20/20 19/19/19 
f 19/19/19 20/20/20 21/21/21 
f 20/20/20 21/21/21 21/21/21 
f 21/21/21 21/21/21 22/22/22 
f 21/21/21 22/22/22 22/22/22 
f 22/22/22 22/22/22 23/23/23 
f 22/22/22 24/24/24 23/23/23 
f 23/23/23 24/24/24 24/24/24 
f 24/24/24 25/25/25 24/24/24 
f 24/24/24 25/25/25 25/25/25 
f 25/25/25 26/26/26 25/25/25 
f 25/25/25 26/26/26 27/27/27 
f 26/26/26 27/27/27 27/27/27 
f 27/27/27 27/27/27 28/28/28 
f 27/27/27 28/28/28 28/28/28 
f 28/28/28 28/28/28 29/29/29 
f 28/28/28 30/30/30 29/29/29 
f 29/29/29 30/30/30 30/30/30 
f 30/30/30 31/31/31 30/30/30 
f 30/30/30 31/31/31 31/31/31 
f 31/31/31 32/32/32 31/31/31 
f 31/31/31 32/32/32 33/33/33 
f 32/32/32 33/33/33 33/33/33 
f 33/33/33 33/33/33 34/34/34 
f 33/33/33 34/34/34 34/34/34 
f 34/34/34 34/34/34 35/35/35 
f 34/34/34 36/36/36 35/35/35 
f 35/35/35 36/36/36 37/37/37 
f 36/36/36 37/37/37 37/37/37 
f 37/37/37 37/37/37 38/38/38 
f 37/37/37 38/38/38 38/38/38 
f 38/38/38 38/38/38 39/39/39 
f 38/38/38 40/40/40 39/39/39 
f 39/39/39 40/40/40 41/41/41 
f 40/40/40 41/41/41 41/41/41 
f 41/41/41 41/41/41 42/42/42 
f 41/41/41 42/42/42 42/42/42 
f 42/42/42 42/42/42 43/43/43 
f 42/42/42 44/44/44 43/43/43 
f 43/43/43 44/44/44 45/45/45 
f 44/44/44 45/45/45 45/45/45 
f 45/45/45 45/45/45 46/46/46 
f 45/45/45 46/46/46 46/46/46 
f 46/46/46 46/46/46 47/47/47 
f 46/46/46 48/48/48 47/47/47 
f 47/47/47 48/48/48 49/49/49 
f 48/48/48 49/49/49 49/49/49 
f 49/49/49 49/49/49 50/50/50 
f 49/49/49 50/50/50 50/50/50 
f 50/50/50 50/50/50 51/51/51 
f 50/50/50 52/52/52 51/51/51 
f 51/51/51 52/52/52 53/53/53 
f 52/52/52 53/53/53 53/53/53 
f 53/53/53 53/53/53 54/54/54 
f 53/53/53 54/54/54 54/54/54 
f 54/54/54 54/54/54 55/55/55 
f 54/54/54 56/56/56 55/55/55 
f 55/55/55 56/56/56 57/57/57 
f 56/56/56 57/57/57 57/57/57 
f 57/57/57 57/57/57 58/58/58 
f 57/57/57 58/58/58 58/58/58 
f 58/58/58 58/58/58 59/59/59 
f 58/58/58 60/60/60 59/59/59 
f 59/59/59 60/60/60 61/61/61 

