mtllib model_82.mtl
o model_82
v 0.2015896886587143 -0.003166605718433857 0.18943943083286285 
v 0.21551525592803955 0.0006765152211301029 0.21665053069591522 
v 0.2999211549758911 0.0006765152211301029 0.0004568969889078289 
v 0.19505320489406586 -0.0030044487211853266 0.05278592184185982 
v 0.2999211549758911 0.0006765152211301029 0.0004568969889078289 
v 0.2015896886587143 -0.003166605718433857 0.18943943083286285 
v -0.2565326392650604 -0.0030368801672011614 0.004344196058809757 
v -0.281825989484787 0.0006765152211301029 -0.004925516899675131 
v -0.22072407603263855 0.0006765152211301029 0.22442512214183807 
v -0.12921328842639923 -0.002501762006431818 0.13083092868328094 
v -0.22072407603263855 0.0006765152211301029 0.22442512214183807 
v -0.2565326392650604 -0.0030368801672011614 0.004344196058809757 
v 0.16720210015773773 -0.024230800569057465 -0.021969828754663467 
v 0.18396960198879242 -0.0029720172751694918 -0.07429885119199753 
v 0.14105616509914398 -0.002696350449696183 -0.13918684422969818 
v 0.1251412332057953 -0.024230800569057465 -0.12333862483501434 
v 0.14105616509914398 -0.002696350449696183 -0.13918684422969818 
v 0.16720210015773773 -0.024230800569057465 -0.021969828754663467 
v 0.1251412332057953 -0.024230800569057465 0.12365437299013138 
v 0.2015896886587143 -0.003166605718433857 0.18943943083286285 
v 0.19505320489406586 -0.0030044487211853266 0.05278592184185982 
v 0.1765805333852768 -0.024230800569057465 0.00015787400479894131 
v 0.19505320489406586 -0.0030044487211853266 0.05278592184185982 
v 0.1251412332057953 -0.024230800569057465 0.12365437299013138 
v 0.26553356647491455 0.0006765152211301029 -0.07370080798864365 
v 0.18396960198879242 -0.0029720172751694918 -0.07429885119199753 
v 0.16720210015773773 -0.024230800569057465 -0.021969828754663467 
v 0.1765805333852768 -0.024230800569057465 0.00015787400479894131 
v 0.2999211549758911 0.0006765152211301029 0.0004568969889078289 
v 0.19505320489406586 -0.0030044487211853266 0.05278592184185982 
v -0.17212672531604767 -0.024068642407655716 0.00015787400479894131 
v -0.2565326392650604 -0.0030368801672011614 0.004344196058809757 
v -0.11699289828538895 -0.02319299429655075 0.11857098340988159 
v -0.12921328842639923 -0.002501762006431818 0.13083092868328094 
v 0.0018006099853664637 -0.024230800569057465 -0.17477057874202728 
v 0.002084804931655526 -0.0029558015521615744 -0.2438448965549469 
v -0.12182421237230301 -0.024230800569057465 -0.12333862483501434 
v -0.13745494186878204 -0.002696350449696183 -0.13918684422969818 
v -0.12182421237230301 -0.024230800569057465 -0.12333862483501434 
v -0.13745494186878204 -0.002696350449696183 -0.13918684422969818 
v -0.17212672531604767 -0.024068642407655716 0.00015787400479894131 
v -0.2565326392650604 -0.0030368801672011614 0.004344196058809757 
v 0.002084804931655526 -0.0029558015521615744 -0.2438448965549469 
v 0.002084804931655526 0.0006765152211301029 -0.31022799015045166 
v -0.13745494186878204 -0.002696350449696183 -0.13918684422969818 
v -0.22896572947502136 0.0006765152211301029 -0.21364356577396393 
v 0.18396960198879242 -0.0029720172751694918 -0.07429885119199753 
v 0.26553356647491455 0.0006765152211301029 -0.07370080798864365 
v 0.14105616509914398 -0.002696350449696183 -0.13918684422969818 
v 0.21381008625030518 0.0006765152211301029 -0.214241623878479 
v 0.002084804931655526 -0.002988232998177409 0.25103816390037537 
v -0.0007571449968963861 0.0006765152211301029 0.3018720746040344 
v 0.2015896886587143 -0.003166605718433857 0.18943943083286285 
v 0.21551525592803955 0.0006765152211301029 0.21665053069591522 
v -0.13745494186878204 -0.002696350449696183 -0.13918684422969818 
v -0.22896572947502136 0.0006765152211301029 -0.21364356577396393 
v -0.2565326392650604 -0.0030368801672011614 0.004344196058809757 
v -0.281825989484787 0.0006765152211301029 -0.004925516899675131 
v -0.12921328842639923 -0.002501762006431818 0.13083092868328094 
v -0.22072407603263855 0.0006765152211301029 0.22442512214183807 
v 0.002084804931655526 -0.002988232998177409 0.25103816390037537 
v -0.0007571449968963861 0.0006765152211301029 0.3018720746040344 
v -0.11699289828538895 -0.02319299429655075 0.11857098340988159 
v -0.12921328842639923 -0.002501762006431818 0.13083092868328094 
v 0.0015164150390774012 -0.024068642407655716 0.17389023303985596 
v 0.002084804931655526 -0.002988232998177409 0.25103816390037537 
v 0.1251412332057953 -0.024230800569057465 -0.12333862483501434 
v 0.14105616509914398 -0.002696350449696183 -0.13918684422969818 
v 0.0018006099853664637 -0.024230800569057465 -0.17477057874202728 
v 0.002084804931655526 -0.0029558015521615744 -0.2438448965549469 
v 0.14105616509914398 -0.002696350449696183 -0.13918684422969818 
v 0.21381008625030518 0.0006765152211301029 -0.214241623878479 
v 0.002084804931655526 -0.0029558015521615744 -0.2438448965549469 
v 0.002084804931655526 0.0006765152211301029 -0.31022799015045166 
v 0.0015164150390774012 -0.024068642407655716 0.17389023303985596 
v 0.002084804931655526 -0.002988232998177409 0.25103816390037537 
v 0.1251412332057953 -0.024230800569057465 0.12365437299013138 
v 0.2015896886587143 -0.003166605718433857 0.18943943083286285 
v -0.04281800612807274 0.008962738327682018 -0.04170534759759903 
v -0.002746510086581111 0.008962738327682018 -0.0016362640308216214 
v -0.06015390157699585 0.008962738327682018 0.0004568969889078289 
v -0.0035990949254482985 0.008962738327682018 0.0004568969889078289 
v -0.0007571449968963861 0.008962738327682018 -0.05904867872595787 
v -0.0007571449968963861 0.008962738327682018 -0.002533332910388708 
v -0.04281800612807274 0.008962738327682018 -0.04170534759759903 
v -0.002746510086581111 0.008962738327682018 -0.0016362640308216214 
v 0.058639608323574066 0.008962738327682018 0.0004568969889078289 
v 0.002084804931655526 0.008962738327682018 0.0004568969889078289 
v 0.041303716599941254 0.008962738327682018 -0.04170534759759903 
v 0.0012322199763730168 0.008962738327682018 -0.0016362640308216214 
v 0.058639608323574066 0.008962738327682018 0.0004568969889078289 
v 0.002084804931655526 0.008962738327682018 0.0004568969889078289 
v 0.041303716599941254 0.008962738327682018 0.042320117354393005 
v 0.0012322199763730168 0.008962738327682018 0.0022510350681841373 
v 0.041303716599941254 0.008962738327682018 -0.04170534759759903 
v 0.0012322199763730168 0.008962738327682018 -0.0016362640308216214 
v -0.0007571449968963861 0.008962738327682018 -0.05904867872595787 
v -0.0007571449968963861 0.008962738327682018 -0.002533332910388708 
v -0.06015390157699585 0.008962738327682018 0.0004568969889078289 
v -0.0035990949254482985 0.008962738327682018 0.0004568969889078289 
v -0.04281800612807274 0.008962738327682018 0.042320117354393005 
v -0.002746510086581111 0.008962738327682018 0.0022510350681841373 
v 0.041303716599941254 0.008962738327682018 0.042320117354393005 
v 0.0012322199763730168 0.008962738327682018 0.0022510350681841373 
v -0.0007571449968963861 0.008962738327682018 0.059663452208042145 
v -0.0007571449968963861 0.008962738327682018 0.003148104064166546 
v -0.0007571449968963861 0.008962738327682018 0.059663452208042145 
v -0.0007571449968963861 0.008962738327682018 0.003148104064166546 
v -0.04281800612807274 0.008962738327682018 0.042320117354393005 
v -0.002746510086581111 0.008962738327682018 0.0022510350681841373 
vn -0.1522473394870758 0.9865826368331909 -0.058952588587999344 
vn -0.1522473394870758 0.9865826368331909 -0.058952588587999344 
vn -0.1522473394870758 0.9865826368331909 -0.058952588587999344 
vn -0.0302029550075531 0.9995414018630981 0.002184694167226553 
vn -0.0302029550075531 0.9995414018630981 0.002184694167226553 
vn -0.0302029550075531 0.9995414018630981 0.002184694167226553 
vn 0.15779003500938416 0.9866003394126892 -0.04149730131030083 
vn 0.15779003500938416 0.9866003394126892 -0.04149730131030083 
vn 0.15779003500938416 0.9866003394126892 -0.04149730131030083 
vn 0.01510031707584858 0.9996926784515381 -0.01966099627315998 
vn 0.01510031707584858 0.9996926784515381 -0.01966099627315998 
vn 0.01510031707584858 0.9996926784515381 -0.01966099627315998 
vn -0.3645564615726471 0.8973817825317383 0.24860523641109467 
vn -0.3645564615726471 0.8973817825317383 0.24860523641109467 
vn -0.3645564615726471 0.8973817825317383 0.24860523641109467 
vn -0.6684585213661194 0.6897956728935242 0.2781098484992981 
vn -0.6684585213661194 0.6897956728935242 0.2781098484992981 
vn -0.6684585213661194 0.6897956728935242 0.2781098484992981 
vn -0.27576643228530884 0.9611030220985413 0.0152922747656703 
vn -0.27576643228530884 0.9611030220985413 0.0152922747656703 
vn -0.27576643228530884 0.9611030220985413 0.0152922747656703 
vn -0.4557110071182251 0.8698473572731018 -0.18892620503902435 
vn -0.4557110071182251 0.8698473572731018 -0.18892620503902435 
vn -0.4557110071182251 0.8698473572731018 -0.18892620503902435 
vn -0.047155678272247314 0.9298307299613953 0.3649536371231079 
vn -0.047155678272247314 0.9298307299613953 0.3649536371231079 
vn -0.047155678272247314 0.9298307299613953 0.3649536371231079 
vn -0.18931445479393005 0.9311938881874084 -0.31150925159454346 
vn -0.18931445479393005 0.9311938881874084 -0.31150925159454346 
vn -0.18931445479393005 0.9311938881874084 -0.31150925159454346 
vn 0.34527286887168884 0.9013985395431519 -0.2612801790237427 
vn 0.34527286887168884 0.9013985395431519 -0.2612801790237427 
vn 0.34527286887168884 0.9013985395431519 -0.2612801790237427 
vn 0.34527286887168884 0.9013985395431519 -0.2612801790237427 
vn 0.23676379024982452 0.8848287463188171 0.401274174451828 
vn 0.23676379024982452 0.8848287463188171 0.401274174451828 
vn 0.23676379024982452 0.8848287463188171 0.401274174451828 
vn 0.23676379024982452 0.8848287463188171 0.401274174451828 
vn 0.35911262035369873 0.9051704406738281 0.22738653421401978 
vn 0.35911262035369873 0.9051704406738281 0.22738653421401978 
vn 0.35911262035369873 0.9051704406738281 0.22738653421401978 
vn 0.35911262035369873 0.9051704406738281 0.22738653421401978 
vn 0.02263815514743328 0.999053955078125 0.03713129088282585 
vn 0.02263815514743328 0.999053955078125 0.03713129088282585 
vn 0.02263815514743328 0.999053955078125 0.03713129088282585 
vn 0.02263815514743328 0.999053955078125 0.03713129088282585 
vn -0.037743259221315384 0.9990940093994141 0.01966099627315998 
vn -0.037743259221315384 0.9990940093994141 0.01966099627315998 
vn -0.037743259221315384 0.9990940093994141 0.01966099627315998 
vn -0.037743259221315384 0.9990940093994141 0.01966099627315998 
vn -0.02830437570810318 0.9955887794494629 -0.08945280313491821 
vn -0.02830437570810318 0.9955887794494629 -0.08945280313491821 
vn -0.02830437570810318 0.9955887794494629 -0.08945280313491821 
vn -0.02830437570810318 0.9955887794494629 -0.08945280313491821 
vn 0.04528285190463066 0.9986851811408997 0.024029340595006943 
vn 0.04528285190463066 0.9986851811408997 0.024029340595006943 
vn 0.04528285190463066 0.9986851811408997 0.024029340595006943 
vn 0.04528285190463066 0.9986851811408997 0.024029340595006943 
vn 0.022641615942120552 0.9992066025733948 -0.03276457265019417 
vn 0.022641615942120552 0.9992066025733948 -0.03276457265019417 
vn 0.022641615942120552 0.9992066025733948 -0.03276457265019417 
vn 0.022641615942120552 0.9992066025733948 -0.03276457265019417 
vn 0.26602792739868164 0.8871331214904785 -0.37712597846984863 
vn 0.26602792739868164 0.8871331214904785 -0.37712597846984863 
vn 0.26602792739868164 0.8871331214904785 -0.37712597846984863 
vn 0.26602792739868164 0.8871331214904785 -0.37712597846984863 
vn -0.24040497839450836 0.8838464021682739 0.401274174451828 
vn -0.24040497839450836 0.8838464021682739 0.401274174451828 
vn -0.24040497839450836 0.8838464021682739 0.401274174451828 
vn -0.24040497839450836 0.8838464021682739 0.401274174451828 
vn -0.02263815514743328 0.999053955078125 0.03713129088282585 
vn -0.02263815514743328 0.999053955078125 0.03713129088282585 
vn -0.02263815514743328 0.999053955078125 0.03713129088282585 
vn -0.02263815514743328 0.999053955078125 0.03713129088282585 
vn -0.08293437212705612 0.9671911597251892 -0.2401314377784729 
vn -0.08293437212705612 0.9671911597251892 -0.2401314377784729 
vn -0.08293437212705612 0.9671911597251892 -0.2401314377784729 
vn -0.08293437212705612 0.9671911597251892 -0.2401314377784729 
vn 3.097898456858039e-13 -0.999997615814209 0.002184694167226553 
vn 3.097898456858039e-13 -0.999997615814209 0.002184694167226553 
vn 3.097898456858039e-13 -0.999997615814209 0.002184694167226553 
vn 3.097898456858039e-13 -0.999997615814209 0.002184694167226553 
vn 3.097898456858039e-13 -0.999997615814209 0.002184694167226553 
vn 3.097898456858039e-13 -0.999997615814209 0.002184694167226553 
vn 3.097898456858039e-13 -0.999997615814209 0.002184694167226553 
vn 3.097898456858039e-13 -0.999997615814209 0.002184694167226553 
vn 3.097898456858039e-13 -0.999997615814209 0.002184694167226553 
vn 3.097898456858039e-13 -0.999997615814209 0.002184694167226553 
vn 3.097898456858039e-13 -0.999997615814209 0.002184694167226553 
vn 3.097898456858039e-13 -0.999997615814209 0.002184694167226553 
vn -1.0341130485562108e-13 0.999997615814209 0.002184694167226553 
vn -1.0341130485562108e-13 0.999997615814209 0.002184694167226553 
vn -1.0341130485562108e-13 0.999997615814209 0.002184694167226553 
vn -1.0341130485562108e-13 0.999997615814209 0.002184694167226553 
vn 3.097898456858039e-13 -0.999997615814209 0.002184694167226553 
vn 3.097898456858039e-13 -0.999997615814209 0.002184694167226553 
vn 3.097898456858039e-13 -0.999997615814209 0.002184694167226553 
vn 3.097898456858039e-13 -0.999997615814209 0.002184694167226553 
vn 3.097898456858039e-13 -0.999997615814209 0.002184694167226553 
vn 3.097898456858039e-13 -0.999997615814209 0.002184694167226553 
vn 3.097898456858039e-13 -0.999997615814209 0.002184694167226553 
vn 3.097898456858039e-13 -0.999997615814209 0.002184694167226553 
vn -1.0341130485562108e-13 0.999997615814209 0.002184694167226553 
vn -1.0341130485562108e-13 0.999997615814209 0.002184694167226553 
vn -1.0341130485562108e-13 0.999997615814209 0.002184694167226553 
vn -1.0341130485562108e-13 0.999997615814209 0.002184694167226553 
vn -1.0341130485562108e-13 0.999997615814209 0.002184694167226553 
vn -1.0341130485562108e-13 0.999997615814209 0.002184694167226553 
vn -1.0341130485562108e-13 0.999997615814209 0.002184694167226553 
vn -1.0341130485562108e-13 0.999997615814209 0.002184694167226553 
s on 
f 1//1 2//2 3//3 
f 2//2 3//3 3//3 
f 3//3 3//3 4//4 
f 3//3 4//4 4//4 
f 4//4 4//4 5//5 
f 4//4 6//6 5//5 
f 5//5 6//6 6//6 
f 6//6 7//7 6//6 
f 6//6 7//7 7//7 
f 7//7 8//8 7//7 
f 7//7 8//8 9//9 
f 8//8 9//9 9//9 
f 9//9 9//9 10//10 
f 9//9 10//10 10//10 
f 10//10 10//10 11//11 
f 10//10 12//12 11//11 
f 11//11 12//12 12//12 
f 12//12 13//13 12//12 
f 12//12 13//13 13//13 
f 13//13 14//14 13//13 
f 13//13 14//14 15//15 
f 14//14 15//15 15//15 
f 15//15 15//15 16//16 
f 15//15 16//16 16//16 
f 16//16 16//16 17//17 
f 16//16 18//18 17//17 
f 17//17 18//18 18//18 
f 18//18 19//19 18//18 
f 18//18 19//19 19//19 
f 19//19 20//20 19//19 
f 19//19 20//20 21//21 
f 20//20 21//21 21//21 
f 21//21 21//21 22//22 
f 21//21 22//22 22//22 
f 22//22 22//22 23//23 
f 22//22 24//24 23//23 
f 23//23 24//24 24//24 
f 24//24 25//25 24//24 
f 24//24 25//25 25//25 
f 25//25 26//26 25//25 
f 25//25 26//26 27//27 
f 26//26 27//27 27//27 
f 27//27 27//27 28//28 
f 27//27 28//28 28//28 
f 28//28 28//28 29//29 
f 28//28 30//30 29//29 
f 29//29 30//30 30//30 
f 30//30 31//31 30//30 
f 30//30 31//31 31//31 
f 31//31 32//32 31//31 
f 31//31 32//32 33//33 
f 32//32 34//34 33//33 
f 33//33 34//34 34//34 
f 34//34 35//35 34//34 
f 34//34 35//35 35//35 
f 35//35 36//36 35//35 
f 35//35 36//36 37//37 
f 36//36 38//38 37//37 
f 37//37 38//38 38//38 
f 38//38 39//39 38//38 
f 38//38 39//39 39//39 
f 39//39 40//40 39//39 
f 39//39 40//40 41//41 
f 40//40 42//42 41//41 
f 41//41 42//42 42//42 
f 42//42 43//43 42//42 
f 42//42 43//43 43//43 
f 43//43 44//44 43//43 
f 43//43 44//44 45//45 
f 44//44 46//46 45//45 
f 45//45 46//46 46//46 
f 46//46 47//47 46//46 
f 46//46 47//47 47//47 
f 47//47 48//48 47//47 
f 47//47 48//48 49//49 
f 48//48 50//50 49//49 
f 49//49 50//50 50//50 
f 50//50 51//51 50//50 
f 50//50 51//51 51//51 
f 51//51 52//52 51//51 
f 51//51 52//52 53//53 
f 52//52 54//54 53//53 
f 53//53 54//54 54//54 
f 54//54 55//55 54//54 
f 54//54 55//55 55//55 
f 55//55 56//56 55//55 
f 55//55 56//56 57//57 
f 56//56 58//58 57//57 
f 57//57 58//58 58//58 
f 58//58 59//59 58//58 
f 58//58 59//59 59//59 
f 59//59 60//60 59//59 
f 59//59 60//60 61//61 
f 60//60 62//62 61//61 
f 61//61 62//62 62//62 
f 62//62 63//63 62//62 
f 62//62 63//63 63//63 
f 63//63 64//64 63//63 
f 63//63 64//64 65//65 
f 64//64 66//66 65//65 
f 65//65 66//66 66//66 
f 66//66 67//67 66//66 
f 66//66 67//67 67//67 
f 67//67 68//68 67//67 
f 67//67 68//68 69//69 
f 68//68 70//70 69//69 
f 69//69 70//70 70//70 
f 70//70 71//71 70//70 
f 70//70 71//71 71//71 
f 71//71 72//72 71//71 
f 71//71 72//72 73//73 
f 72//72 74//74 73//73 
f 73//73 74//74 74//74 
f 74//74 75//75 74//74 
f 74//74 75//75 75//75 
f 75//75 76//76 75//75 
f 75//75 76//76 77//77 
f 76//76 78//78 77//77 
f 77//77 78//78 78//78 
f 78//78 79//79 78//78 
f 78//78 79//79 79//79 
f 79//79 80//80 79//79 
f 79//79 80//80 81//81 
f 80//80 82//82 81//81 
f 81//81 82//82 82//82 
f 82//82 83//83 82//82 
f 82//82 83//83 83//83 
f 83//83 84//84 83//83 
f 83//83 84//84 85//85 
f 84//84 86//86 85//85 
f 85//85 86//86 86//86 
f 86//86 87//87 86//86 
f 86//86 87//87 87//87 
f 87//87 88//88 87//87 
f 87//87 88//88 89//89 
f 88//88 90//90 89//89 
f 89//89 90//90 90//90 
f 90//90 91//91 90//90 
f 90//90 91//91 91//91 
f 91//91 92//92 91//91 
f 91//91 92//92 93//93 
f 92//92 94//94 93//93 
f 93//93 94//94 94//94 
f 94//94 95//95 94//94 
f 94//94 95//95 95//95 
f 95//95 96//96 95//95 
f 95//95 96//96 97//97 
f 96//96 98//98 97//97 
f 97//97 98//98 98//98 
f 98//98 99//99 98//98 
f 98//98 99//99 99//99 
f 99//99 100//100 99//99 
f 99//99 100//100 101//101 
f 100//100 102//102 101//101 
f 101//101 102//102 102//102 
f 102//102 103//103 102//102 
f 102//102 103//103 103//103 
f 103//103 104//104 103//103 
f 103//103 104//104 105//105 
f 104//104 106//106 105//105 
f 105//105 106//106 106//106 
f 106//106 107//107 106//106 
f 106//106 107//107 107//107 
f 107//107 108//108 107//107 
f 107//107 108//108 109//109 
f 108//108 110//110 109//109 

