mtllib model_79.mtl
o model_79
v -32.58523178100586 -2.3021790981292725 2.4690699577331543 
v -30.22797966003418 -2.3021790981292725 6.224902153015137 
v -29.285079956054688 -2.3021790981292725 -0.5042970180511475 
v -25.98493003845215 -2.3021790981292725 4.50347900390625 
v -30.22797966003418 -2.3021790981292725 6.224902153015137 
v -30.385129928588867 -2.3021790981292725 10.293719291687012 
v -25.98493003845215 -2.3021790981292725 4.50347900390625 
v -27.399280548095703 -2.3021790981292725 10.293719291687012 
v -30.070829391479492 -2.3021790981292725 -9.580891609191895 
v -30.070829391479492 -3.9667298793792725 -9.580891609191895 
v -39.97127914428711 -2.3021790981292725 -9.580891609191895 
v -39.97127914428711 -3.9667298793792725 -9.580891609191895 
v -20.013229370117188 -2.3021790981292725 -4.103635787963867 
v -20.013229370117188 -2.3021790981292725 -9.580891609191895 
v -29.285079956054688 -2.3021790981292725 -0.5042970180511475 
v -30.070829391479492 -2.3021790981292725 -9.580891609191895 
v -39.97127914428711 -2.3021790981292725 0.43466100096702576 
v -39.97127914428711 -3.9667298793792725 0.43466100096702576 
v -39.97127914428711 -2.3021790981292725 10.293719291687012 
v -39.97127914428711 -3.9667298793792725 10.293719291687012 
v -38.55693054199219 -2.3021790981292725 10.293719291687012 
v -38.714080810546875 -2.3021790981292725 6.381394863128662 
v -39.97127914428711 -2.3021790981292725 10.293719291687012 
v -39.97127914428711 -2.3021790981292725 0.43466100096702576 
v -39.97127914428711 -3.9667298793792725 10.293719291687012 
v -38.55693054199219 -3.9667298793792725 10.293719291687012 
v -39.97127914428711 -2.3021790981292725 10.293719291687012 
v -38.55693054199219 -2.3021790981292725 10.293719291687012 
v -20.013229370117188 -2.3021790981292725 -4.103635787963867 
v -20.013229370117188 -3.9667298793792725 -4.729608058929443 
v -20.013229370117188 -2.3021790981292725 -9.580891609191895 
v -20.013229370117188 -3.9667298793792725 -9.580891609191895 
v -30.385129928588867 -2.3021790981292725 10.293719291687012 
v -30.385129928588867 -3.9667298793792725 10.293719291687012 
v -27.399280548095703 -2.3021790981292725 10.293719291687012 
v -27.55643081665039 -3.9667298793792725 10.293719291687012 
v -39.97127914428711 -2.3021790981292725 0.43466100096702576 
v -29.285079956054688 -2.3021790981292725 -0.5042970180511475 
v -39.97127914428711 -2.3021790981292725 -9.580891609191895 
v -30.070829391479492 -2.3021790981292725 -9.580891609191895 
v -39.97127914428711 -2.3021790981292725 -9.580891609191895 
v -39.97127914428711 -3.9667298793792725 -9.580891609191895 
v -39.97127914428711 -2.3021790981292725 0.43466100096702576 
v -39.97127914428711 -3.9667298793792725 0.43466100096702576 
v -20.013229370117188 -2.3021790981292725 -9.580891609191895 
v -20.013229370117188 -3.9667298793792725 -9.580891609191895 
v -30.070829391479492 -2.3021790981292725 -9.580891609191895 
v -30.070829391479492 -3.9667298793792725 -9.580891609191895 
v -39.97127914428711 -2.3021790981292725 0.43466100096702576 
v -38.714080810546875 -2.3021790981292725 6.381394863128662 
v -29.285079956054688 -2.3021790981292725 -0.5042970180511475 
v -32.58523178100586 -2.3021790981292725 2.4690699577331543 
vn -1.0341130485562108e-13 0.999997615814209 -0.002184694167226553 
vn -1.0341130485562108e-13 0.999997615814209 -0.002184694167226553 
vn -1.0341130485562108e-13 0.999997615814209 -0.002184694167226553 
vn -1.0341130485562108e-13 0.999997615814209 -0.002184694167226553 
vn -1.0341130485562108e-13 0.999997615814209 -0.002184694167226553 
vn -1.0341130485562108e-13 0.999997615814209 -0.002184694167226553 
vn -1.0341130485562108e-13 0.999997615814209 -0.002184694167226553 
vn -1.0341130485562108e-13 0.999997615814209 -0.002184694167226553 
vn 2.0682311115474694e-13 4.2775797696334704e-26 -1 
vn 2.0682311115474694e-13 4.2775797696334704e-26 -1 
vn 2.0682311115474694e-13 4.2775797696334704e-26 -1 
vn 2.0682311115474694e-13 4.2775797696334704e-26 -1 
vn -1.0341130485562108e-13 0.999997615814209 0.002184694167226553 
vn -1.0341130485562108e-13 0.999997615814209 0.002184694167226553 
vn -1.0341130485562108e-13 0.999997615814209 0.002184694167226553 
vn -1.0341130485562108e-13 0.999997615814209 0.002184694167226553 
vn -0.999997615814209 -2.0682260971124217e-13 0.002184694167226553 
vn -0.999997615814209 -2.0682260971124217e-13 0.002184694167226553 
vn -0.999997615814209 -2.0682260971124217e-13 0.002184694167226553 
vn -0.999997615814209 -2.0682260971124217e-13 0.002184694167226553 
vn -1.0341130485562108e-13 0.999997615814209 -0.002184694167226553 
vn -1.0341130485562108e-13 0.999997615814209 -0.002184694167226553 
vn -1.0341130485562108e-13 0.999997615814209 -0.002184694167226553 
vn -1.0341130485562108e-13 0.999997615814209 -0.002184694167226553 
vn 0 0 1 
vn 0 0 1 
vn 0 0 1 
vn 0 0 1 
vn 0.999997615814209 0 0.002184694167226553 
vn 0.999997615814209 0 0.002184694167226553 
vn 0.999997615814209 0 0.002184694167226553 
vn 0.999997615814209 0 0.002184694167226553 
vn 0 0 1 
vn 0 0 1 
vn 0 0 1 
vn 0 0 1 
vn -1.0341130485562108e-13 0.999997615814209 0.002184694167226553 
vn -1.0341130485562108e-13 0.999997615814209 0.002184694167226553 
vn -1.0341130485562108e-13 0.999997615814209 0.002184694167226553 
vn -1.0341130485562108e-13 0.999997615814209 0.002184694167226553 
vn -0.999997615814209 -2.0682260971124217e-13 0.002184694167226553 
vn -0.999997615814209 -2.0682260971124217e-13 0.002184694167226553 
vn -0.999997615814209 -2.0682260971124217e-13 0.002184694167226553 
vn -0.999997615814209 -2.0682260971124217e-13 0.002184694167226553 
vn 2.0682311115474694e-13 4.2775797696334704e-26 -1 
vn 2.0682311115474694e-13 4.2775797696334704e-26 -1 
vn 2.0682311115474694e-13 4.2775797696334704e-26 -1 
vn 2.0682311115474694e-13 4.2775797696334704e-26 -1 
vn -1.0341130485562108e-13 0.999997615814209 -0.002184694167226553 
vn -1.0341130485562108e-13 0.999997615814209 -0.002184694167226553 
vn -1.0341130485562108e-13 0.999997615814209 -0.002184694167226553 
vn -1.0341130485562108e-13 0.999997615814209 -0.002184694167226553 
vt 0.514374852180481 0.5383651852607727 
vt 0.4870089888572693 0.6165246367454529 
vt 0.44131991267204285 0.4966948330402374 
vt 0.4024128019809723 0.6021935343742371 
vt 0.4870089888572693 0.6165246367454529 
vt 0.5089016556739807 0.687849223613739 
vt 0.4024128019809723 0.6021935343742371 
vt 0.45333707332611084 0.7011881470680237 
vt 0.2959238886833191 0.9036971926689148 
vt 0.2959238886833191 0.8728302717208862 
vt 0.48058396577835083 0.9036971926689148 
vt 0.48058396577835083 0.8728302717208862 
vt 0.03178386017680168 0.10589756071567535 
vt 0.031664878129959106 0.0007295579998753965 
vt 0.20252302289009094 0.16785188019275665 
vt 0.21632494032382965 0.0007295579998753965 
vt 0.9443758130073547 0.23906627297401428 
vt 0.9753111004829407 0.23906627297401428 
vt 0.9443758130073547 0.4234961271286011 
vt 0.9753111004829407 0.4234961271286011 
vt 0.3750469386577606 0.369589239358902 
vt 0.3779025077819824 0.2965008020401001 
vt 0.4009850025177002 0.369589239358902 
vt 0.4009850025177002 0.18515940010547638 
vt 0.4009850025177002 0.40045616030693054 
vt 0.3738571107387543 0.40045616030693054 
vt 0.4009850025177002 0.369589239358902 
vt 0.3750469386577606 0.369589239358902 
vt 0.03178386017680168 0.10589756071567535 
vt 0.0008485399885103106 0.10832282155752182 
vt 0.031664878129959106 0.0007295579998753965 
vt 0.0007295579998753965 0.0007295579998753965 
vt 0.5089016556739807 0.687849223613739 
vt 0.514374852180481 0.7183854579925537 
vt 0.45333707332611084 0.7011881470680237 
vt 0.4639264941215515 0.7304015159606934 
vt 0.4009850025177002 0.18515940010547638 
vt 0.20252302289009094 0.16785188019275665 
vt 0.4009850025177002 0.0007295579998753965 
vt 0.21632494032382965 0.0007295579998753965 
vt 0.9443758130073547 0.054636429995298386 
vt 0.9753111004829407 0.054636429995298386 
vt 0.9443758130073547 0.23906627297401428 
vt 0.9753111004829407 0.23906627297401428 
vt 0.11126383394002914 0.9036971926689148 
vt 0.11126383394002914 0.8728302717208862 
vt 0.2959238886833191 0.9036971926689148 
vt 0.2959238886833191 0.8728302717208862 
vt 0.4009850025177002 0.18515940010547638 
vt 0.3779025077819824 0.2965008020401001 
vt 0.20252302289009094 0.16785188019275665 
vt 0.2639177441596985 0.22539663314819336 
s on 
f 1/1/1 2/2/2 3/3/3 
f 2/2/2 4/4/4 3/3/3 
f 3/3/3 4/4/4 4/4/4 
f 4/4/4 5/5/5 4/4/4 
f 4/4/4 5/5/5 5/5/5 
f 5/5/5 6/6/6 5/5/5 
f 5/5/5 6/6/6 7/7/7 
f 6/6/6 8/8/8 7/7/7 
f 7/7/7 8/8/8 8/8/8 
f 8/8/8 9/9/9 8/8/8 
f 8/8/8 9/9/9 9/9/9 
f 9/9/9 10/10/10 9/9/9 
f 9/9/9 10/10/10 11/11/11 
f 10/10/10 12/12/12 11/11/11 
f 11/11/11 12/12/12 12/12/12 
f 12/12/12 13/13/13 12/12/12 
f 12/12/12 13/13/13 13/13/13 
f 13/13/13 14/14/14 13/13/13 
f 13/13/13 14/14/14 15/15/15 
f 14/14/14 16/16/16 15/15/15 
f 15/15/15 16/16/16 16/16/16 
f 16/16/16 17/17/17 16/16/16 
f 16/16/16 17/17/17 17/17/17 
f 17/17/17 18/18/18 17/17/17 
f 17/17/17 18/18/18 19/19/19 
f 18/18/18 20/20/20 19/19/19 
f 19/19/19 20/20/20 20/20/20 
f 20/20/20 21/21/21 20/20/20 
f 20/20/20 21/21/21 21/21/21 
f 21/21/21 22/22/22 21/21/21 
f 21/21/21 22/22/22 23/23/23 
f 22/22/22 24/24/24 23/23/23 
f 23/23/23 24/24/24 24/24/24 
f 24/24/24 25/25/25 24/24/24 
f 24/24/24 25/25/25 25/25/25 
f 25/25/25 26/26/26 25/25/25 
f 25/25/25 26/26/26 27/27/27 
f 26/26/26 28/28/28 27/27/27 
f 27/27/27 28/28/28 28/28/28 
f 28/28/28 29/29/29 28/28/28 
f 28/28/28 29/29/29 29/29/29 
f 29/29/29 30/30/30 29/29/29 
f 29/29/29 30/30/30 31/31/31 
f 30/30/30 32/32/32 31/31/31 
f 31/31/31 32/32/32 32/32/32 
f 32/32/32 33/33/33 32/32/32 
f 32/32/32 33/33/33 33/33/33 
f 33/33/33 34/34/34 33/33/33 
f 33/33/33 34/34/34 35/35/35 
f 34/34/34 36/36/36 35/35/35 
f 35/35/35 36/36/36 36/36/36 
f 36/36/36 37/37/37 36/36/36 
f 36/36/36 37/37/37 37/37/37 
f 37/37/37 38/38/38 37/37/37 
f 37/37/37 38/38/38 39/39/39 
f 38/38/38 40/40/40 39/39/39 
f 39/39/39 40/40/40 40/40/40 
f 40/40/40 41/41/41 40/40/40 
f 40/40/40 41/41/41 41/41/41 
f 41/41/41 42/42/42 41/41/41 
f 41/41/41 42/42/42 43/43/43 
f 42/42/42 44/44/44 43/43/43 
f 43/43/43 44/44/44 44/44/44 
f 44/44/44 45/45/45 44/44/44 
f 44/44/44 45/45/45 45/45/45 
f 45/45/45 46/46/46 45/45/45 
f 45/45/45 46/46/46 47/47/47 
f 46/46/46 48/48/48 47/47/47 
f 47/47/47 48/48/48 48/48/48 
f 48/48/48 49/49/49 48/48/48 
f 48/48/48 49/49/49 49/49/49 
f 49/49/49 50/50/50 49/49/49 
f 49/49/49 50/50/50 51/51/51 
f 50/50/50 52/52/52 51/51/51 

