mtllib model_56.mtl
o model_56
v -4.167454719543457 2.312568426132202 9.046494483947754 
v -4.216902732849121 2.312568426132202 9.130816459655762 
v -2.7901580333709717 2.312568426132202 9.04649543762207 
v -4.167456150054932 2.312568426132202 11.525796890258789 
v -2.7401084899902344 2.312568426132202 11.442569732666016 
v -2.790159225463867 2.312568426132202 11.525796890258789 
v -4.2169036865234375 2.312568426132202 11.4425687789917 
v -2.740107297897339 2.312568426132202 9.130817413330078 
v -2.2878432273864746 2.0227839946746826 10.396751403808594 
v -2.5875439643859863 2.0227839946746826 10.293811798095703 
v -2.2878434658050537 2.0227839946746826 10.737326622009277 
v -2.7793045043945312 2.0227839946746826 10.678191184997559 
v -2.5875442028045654 2.0227839946746826 10.840266227722168 
v -2.779304265975952 2.0227839946746826 10.455885887145996 
v -2.2878425121307373 2.0227839946746826 9.137388229370117 
v -2.587543249130249 2.0227839946746826 9.033353805541992 
v -2.2878427505493164 2.0227839946746826 9.4779634475708 
v -2.779303789138794 2.0227839946746826 9.417733192443848 
v -2.587543487548828 2.0227839946746826 9.580903053283691 
v -2.779303789138794 2.0227839946746826 9.196523666381836 
vn 0.0024302785750478506 1.0192523002624512 1.2292126205792897e-9 
vn 0.0024302785750478506 1.0192523002624512 1.2292126205792897e-9 
vn 0.0024302785750478506 1.0192523002624512 1.2292126205792897e-9 
vn 0.0024302785750478506 1.0192523002624512 1.2292126205792897e-9 
vn 0.0024302785750478506 1.0192523002624512 1.2292126205792897e-9 
vn 0.0024302785750478506 1.0192523002624512 1.2292126205792897e-9 
vn 0.0024302785750478506 1.0192523002624512 1.2292126205792897e-9 
vn 0.0024302785750478506 1.0192523002624512 1.2292126205792897e-9 
vn 0.0024302785750478506 1.0192523002624512 1.2292126205792897e-9 
vn 0.0024302785750478506 1.0192523002624512 1.2292126205792897e-9 
vn 0.0024302785750478506 1.0192523002624512 1.2292126205792897e-9 
vn 0.0024302785750478506 1.0192523002624512 1.2292126205792897e-9 
vn 0.0024302785750478506 1.0192523002624512 1.2292126205792897e-9 
vn 0.0024302785750478506 1.0192523002624512 1.2292126205792897e-9 
vn 0.0024302785750478506 1.0192523002624512 1.2292126205792897e-9 
vn 0.0024302785750478506 1.0192523002624512 1.2292126205792897e-9 
vn 0.0024302785750478506 1.0192523002624512 1.2292126205792897e-9 
vn 0.0024302785750478506 1.0192523002624512 1.2292126205792897e-9 
vn 0.0024302785750478506 1.0192523002624512 1.2292126205792897e-9 
vn 0.0024302785750478506 1.0192523002624512 1.2292126205792897e-9 
s on 
f 1//1 2//2 3//3 
f 2//2 4//4 3//3 
f 3//3 4//4 5//5 
f 4//4 6//6 5//5 
f 5//5 6//6 6//6 
f 6//6 2//2 6//6 
f 6//6 2//2 2//2 
f 2//2 7//7 2//2 
f 2//2 7//7 4//4 
f 7//7 4//4 4//4 
f 4//4 4//4 5//5 
f 4//4 5//5 5//5 
f 5//5 5//5 3//3 
f 5//5 8//8 3//3 
f 3//3 8//8 8//8 
f 8//8 9//9 8//8 
f 8//8 9//9 9//9 
f 9//9 10//10 9//9 
f 9//9 10//10 11//11 
f 10//10 12//12 11//11 
f 11//11 12//12 13//13 
f 12//12 13//13 13//13 
f 13//13 13//13 10//10 
f 13//13 10//10 10//10 
f 10//10 10//10 12//12 
f 10//10 14//14 12//12 
f 12//12 14//14 14//14 
f 14//14 15//15 14//14 
f 14//14 15//15 15//15 
f 15//15 16//16 15//15 
f 15//15 16//16 17//17 
f 16//16 18//18 17//17 
f 17//17 18//18 19//19 
f 18//18 19//19 19//19 
f 19//19 19//19 16//16 
f 19//19 16//16 16//16 
f 16//16 16//16 18//18 
f 16//16 20//20 18//18 

