mtllib model_4.mtl
o model_4
v -1.0000100135803223 -0.007102170027792454 -1.0000100135803223 
v 0.057147279381752014 -0.007102170027792454 -1.0000100135803223 
v -1.0000100135803223 -0.007102170027792454 0.036629438400268555 
v 0.057147279381752014 -0.007102170027792454 0.036629438400268555 
v -1.0000100135803223 -0.007102170027792454 0.5378509759902954 
v 0.057147279381752014 -0.007102170027792454 0.5378509759902954 
v -1.0000100135803223 -0.007102170027792454 0.9999908804893494 
v 0.057147279381752014 -0.007102170027792454 0.9999908804893494 
v 0.5671621561050415 -0.007102170027792454 0.5378509759902954 
v 0.5671621561050415 -0.007102170027792454 0.036629438400268555 
v 0.9999908804893494 -0.007102170027792454 0.036629438400268555 
v 0.9999908804893494 -0.007102170027792454 -1.0000100135803223 
v 0.5671621561050415 -0.007102170027792454 -1.0000100135803223 
v 0.9999908804893494 -0.007102170027792454 0.5378509759902954 
v 0.5671621561050415 -0.007102170027792454 0.9999908804893494 
v 0.9999908804893494 -0.007102170027792454 0.9999908804893494 
v -1.0000100135803223 0.007102165371179581 -1.0000100135803223 
v -1.0000100135803223 0.007102165371179581 0.036629438400268555 
v 0.057147279381752014 0.007102165371179581 -1.0000100135803223 
v 0.057147279381752014 0.007102165371179581 0.036629438400268555 
v 0.5671621561050415 0.007102165371179581 -1.0000100135803223 
v 0.5671621561050415 0.007102165371179581 0.036629438400268555 
v 0.9999908804893494 0.007102165371179581 -1.0000100135803223 
v 0.9999908804893494 0.007102165371179581 0.036629438400268555 
v 0.5671621561050415 0.007102165371179581 0.5378509759902954 
v -1.0000100135803223 0.007102165371179581 0.5378509759902954 
v 0.057147279381752014 0.007102165371179581 0.5378509759902954 
v -1.0000100135803223 0.007102165371179581 0.9999908804893494 
v 0.057147279381752014 0.007102165371179581 0.9999908804893494 
v 0.5671621561050415 0.007102165371179581 0.9999908804893494 
v 0.9999908804893494 0.007102165371179581 0.5378509759902954 
v 0.9999908804893494 0.007102165371179581 0.9999908804893494 
v -1.0000100135803223 -0.007102170027792454 -1.0000100135803223 
v 0.057147279381752014 -0.007102170027792454 -1.0000100135803223 
v -1.0000100135803223 0.007102165371179581 -1.0000100135803223 
v 0.057147279381752014 0.007102165371179581 -1.0000100135803223 
v 0.5671621561050415 -0.007102170027792454 -1.0000100135803223 
v 0.5671621561050415 0.007102165371179581 -1.0000100135803223 
v 0.9999908804893494 -0.007102170027792454 -1.0000100135803223 
v 0.9999908804893494 0.007102165371179581 -1.0000100135803223 
v 0.9999908804893494 -0.007102170027792454 0.9999908804893494 
v 0.9999908804893494 0.007102165371179581 0.9999908804893494 
v 0.5671621561050415 -0.007102170027792454 0.9999908804893494 
v 0.5671621561050415 0.007102165371179581 0.9999908804893494 
v 0.057147279381752014 -0.007102170027792454 0.9999908804893494 
v 0.057147279381752014 0.007102165371179581 0.9999908804893494 
v -1.0000100135803223 -0.007102170027792454 0.9999908804893494 
v -1.0000100135803223 0.007102165371179581 0.9999908804893494 
v 0.9999908804893494 -0.007102170027792454 -1.0000100135803223 
v 0.9999908804893494 0.007102165371179581 -1.0000100135803223 
v 0.9999908804893494 -0.007102170027792454 0.036629438400268555 
v 0.9999908804893494 0.007102165371179581 0.036629438400268555 
v 0.9999908804893494 -0.007102170027792454 0.5378509759902954 
v 0.9999908804893494 0.007102165371179581 0.5378509759902954 
v 0.9999908804893494 -0.007102170027792454 0.9999908804893494 
v 0.9999908804893494 0.007102165371179581 0.9999908804893494 
v -1.0000100135803223 -0.007102170027792454 0.9999908804893494 
v -1.0000100135803223 0.007102165371179581 0.9999908804893494 
v -1.0000100135803223 -0.007102170027792454 0.5378509759902954 
v -1.0000100135803223 0.007102165371179581 0.5378509759902954 
v -1.0000100135803223 -0.007102170027792454 0.036629438400268555 
v -1.0000100135803223 0.007102165371179581 0.036629438400268555 
v -1.0000100135803223 -0.007102170027792454 -1.0000100135803223 
v -1.0000100135803223 0.007102165371179581 -1.0000100135803223 
vn 3.097898456858039e-13 -0.999997615814209 0.002184694167226553 
vn 3.097898456858039e-13 -0.999997615814209 0.002184694167226553 
vn 3.097898456858039e-13 -0.999997615814209 0.002184694167226553 
vn 3.097898456858039e-13 -0.999997615814209 0.002184694167226553 
vn 3.097898456858039e-13 -0.999997615814209 0.002184694167226553 
vn 3.097898456858039e-13 -0.999997615814209 0.002184694167226553 
vn 3.097898456858039e-13 -0.999997615814209 0.002184694167226553 
vn 3.097898456858039e-13 -0.999997615814209 0.002184694167226553 
vn 3.097898456858039e-13 -0.999997615814209 0.002184694167226553 
vn 3.097898456858039e-13 -0.999997615814209 0.002184694167226553 
vn 3.097898456858039e-13 -0.999997615814209 0.002184694167226553 
vn 3.097898456858039e-13 -0.999997615814209 0.002184694167226553 
vn 3.097898456858039e-13 -0.999997615814209 0.002184694167226553 
vn 3.097898456858039e-13 -0.999997615814209 0.002184694167226553 
vn 3.097898456858039e-13 -0.999997615814209 0.002184694167226553 
vn 3.097898456858039e-13 -0.999997615814209 0.002184694167226553 
vn -1.0341130485562108e-13 0.999997615814209 0.002184694167226553 
vn -1.0341130485562108e-13 0.999997615814209 0.002184694167226553 
vn -1.0341130485562108e-13 0.999997615814209 0.002184694167226553 
vn -1.0341130485562108e-13 0.999997615814209 0.002184694167226553 
vn -1.0341130485562108e-13 0.999997615814209 0.002184694167226553 
vn -1.0341130485562108e-13 0.999997615814209 0.002184694167226553 
vn -1.0341130485562108e-13 0.999997615814209 0.002184694167226553 
vn -1.0341130485562108e-13 0.999997615814209 0.002184694167226553 
vn -1.0341130485562108e-13 0.999997615814209 0.002184694167226553 
vn -1.0341130485562108e-13 0.999997615814209 0.002184694167226553 
vn -1.0341130485562108e-13 0.999997615814209 0.002184694167226553 
vn -1.0341130485562108e-13 0.999997615814209 0.002184694167226553 
vn -1.0341130485562108e-13 0.999997615814209 0.002184694167226553 
vn -1.0341130485562108e-13 0.999997615814209 0.002184694167226553 
vn -1.0341130485562108e-13 0.999997615814209 0.002184694167226553 
vn -1.0341130485562108e-13 0.999997615814209 0.002184694167226553 
vn -2.0682311115474694e-13 0 -1 
vn -2.0682311115474694e-13 0 -1 
vn -2.0682311115474694e-13 0 -1 
vn -2.0682311115474694e-13 0 -1 
vn -2.0682311115474694e-13 0 -1 
vn -2.0682311115474694e-13 0 -1 
vn -2.0682311115474694e-13 0 -1 
vn -2.0682311115474694e-13 0 -1 
vn 0 0 1 
vn 0 0 1 
vn 0 0 1 
vn 0 0 1 
vn 0 0 1 
vn 0 0 1 
vn 0 0 1 
vn 0 0 1 
vn 0.999997615814209 0 0.002184694167226553 
vn 0.999997615814209 0 0.002184694167226553 
vn 0.999997615814209 0 0.002184694167226553 
vn 0.999997615814209 0 0.002184694167226553 
vn 0.999997615814209 0 0.002184694167226553 
vn 0.999997615814209 0 0.002184694167226553 
vn 0.999997615814209 0 0.002184694167226553 
vn 0.999997615814209 0 0.002184694167226553 
vn -0.999997615814209 -2.0682260971124217e-13 0.002184694167226553 
vn -0.999997615814209 -2.0682260971124217e-13 0.002184694167226553 
vn -0.999997615814209 -2.0682260971124217e-13 0.002184694167226553 
vn -0.999997615814209 -2.0682260971124217e-13 0.002184694167226553 
vn -0.999997615814209 -2.0682260971124217e-13 0.002184694167226553 
vn -0.999997615814209 -2.0682260971124217e-13 0.002184694167226553 
vn -0.999997615814209 -2.0682260971124217e-13 0.002184694167226553 
vn -0.999997615814209 -2.0682260971124217e-13 0.002184694167226553 
s on 
f 1//1 2//2 3//3 
f 2//2 4//4 3//3 
f 3//3 4//4 5//5 
f 4//4 6//6 5//5 
f 5//5 6//6 7//7 
f 6//6 6//6 7//7 
f 7//7 6//6 8//8 
f 6//6 6//6 8//8 
f 8//8 6//6 9//9 
f 6//6 10//10 9//9 
f 9//9 10//10 11//11 
f 10//10 10//10 11//11 
f 11//11 10//10 12//12 
f 10//10 10//10 12//12 
f 12//12 10//10 13//13 
f 10//10 4//4 13//13 
f 13//13 4//4 2//2 
f 4//4 2//2 2//2 
f 2//2 2//2 6//6 
f 2//2 6//6 6//6 
f 6//6 6//6 10//10 
f 6//6 4//4 10//10 
f 10//10 4//4 4//4 
f 4//4 11//11 4//4 
f 4//4 11//11 11//11 
f 11//11 14//14 11//11 
f 11//11 14//14 9//9 
f 14//14 15//15 9//9 
f 9//9 15//15 8//8 
f 15//15 8//8 8//8 
f 8//8 8//8 15//15 
f 8//8 15//15 15//15 
f 15//15 15//15 16//16 
f 15//15 14//14 16//16 
f 16//16 14//14 14//14 
f 14//14 17//17 14//14 
f 14//14 17//17 17//17 
f 17//17 18//18 17//17 
f 17//17 18//18 19//19 
f 18//18 20//20 19//19 
f 19//19 20//20 21//21 
f 20//20 22//22 21//21 
f 21//21 22//22 23//23 
f 22//22 22//22 23//23 
f 23//23 22//22 24//24 
f 22//22 25//25 24//24 
f 24//24 25//25 25//25 
f 25//25 18//18 25//25 
f 25//25 18//18 18//18 
f 18//18 26//26 18//18 
f 18//18 26//26 20//20 
f 26//26 26//26 20//20 
f 20//20 26//26 27//27 
f 26//26 28//28 27//27 
f 27//27 28//28 27//27 
f 28//28 29//29 27//27 
f 27//27 29//29 25//25 
f 29//29 30//30 25//25 
f 25//25 30//30 31//31 
f 30//30 32//32 31//31 
f 31//31 32//32 32//32 
f 32//32 25//25 32//32 
f 32//32 25//25 25//25 
f 25//25 31//31 25//25 
f 25//25 31//31 24//24 
f 31//31 24//24 24//24 
f 24//24 24//24 33//33 
f 24//24 33//33 33//33 
f 33//33 33//33 34//34 
f 33//33 35//35 34//34 
f 34//34 35//35 34//34 
f 35//35 36//36 34//34 
f 34//34 36//36 37//37 
f 36//36 38//38 37//37 
f 37//37 38//38 39//39 
f 38//38 40//40 39//39 
f 39//39 40//40 40//40 
f 40//40 41//41 40//40 
f 40//40 41//41 41//41 
f 41//41 42//42 41//41 
f 41//41 42//42 43//43 
f 42//42 44//44 43//43 
f 43//43 44//44 45//45 
f 44//44 46//46 45//45 
f 45//45 46//46 47//47 
f 46//46 48//48 47//47 
f 47//47 48//48 48//48 
f 48//48 49//49 48//48 
f 48//48 49//49 49//49 
f 49//49 50//50 49//49 
f 49//49 50//50 51//51 
f 50//50 52//52 51//51 
f 51//51 52//52 53//53 
f 52//52 54//54 53//53 
f 53//53 54//54 55//55 
f 54//54 56//56 55//55 
f 55//55 56//56 56//56 
f 56//56 57//57 56//56 
f 56//56 57//57 57//57 
f 57//57 58//58 57//57 
f 57//57 58//58 59//59 
f 58//58 60//60 59//59 
f 59//59 60//60 61//61 
f 60//60 62//62 61//61 
f 61//61 62//62 63//63 
f 62//62 64//64 63//63 

