mtllib model_9.mtl
o model_9
v 1.6683279275894165 3.020639181137085 -0.6857147812843323 
v 1.6683279275894165 3.7829668521881104 -0.6857147812843323 
v 1.6683279275894165 3.020639181137085 0.07756395637989044 
v 1.6683279275894165 3.7829668521881104 0.07756395637989044 
v 3.3244333267211914 3.020639181137085 0.9409210085868835 
v 3.3244333267211914 3.135552406311035 0.9409210085868835 
v 3.3244333267211914 3.020639181137085 0.07756395637989044 
v 3.3244333267211914 3.7829668521881104 0.07756395637989044 
v 3.3244333267211914 3.020639181137085 -0.6857147812843323 
v 3.3244333267211914 3.7829668521881104 -0.6857147812843323 
v 1.6683279275894165 3.020639181137085 0.07756395637989044 
v 1.6683279275894165 3.7829668521881104 0.07756395637989044 
v 1.6683279275894165 3.020639181137085 0.9409210085868835 
v 1.6683279275894165 3.135552406311035 0.9409210085868835 
v 1.743790864944458 3.5700690746307373 0.22187983989715576 
v 1.743790864944458 3.671131134033203 0.22224244475364685 
v 1.9586223363876343 3.5700690746307373 0.22187983989715576 
v 1.9586223363876343 3.671131134033203 0.22224244475364685 
v 3.0341391563415527 3.5700690746307373 0.22151723504066467 
v 3.0341391563415527 3.6706182956695557 0.22187983989715576 
v 3.249650239944458 3.5700690746307373 0.22151723504066467 
v 3.249650239944458 3.6706182956695557 0.22151723504066467 
v 2.819307565689087 3.5700690746307373 0.22187983989715576 
v 2.819307565689087 3.6706182956695557 0.22187983989715576 
v 3.0341391563415527 3.5700690746307373 0.22151723504066467 
v 3.0341391563415527 3.6706182956695557 0.22187983989715576 
v 2.6044762134552 3.5700690746307373 0.22187983989715576 
v 2.6044762134552 3.671131134033203 0.22187983989715576 
v 2.819307565689087 3.5700690746307373 0.22187983989715576 
v 2.819307565689087 3.6706182956695557 0.22187983989715576 
v 2.388964891433716 3.5700690746307373 0.22187983989715576 
v 2.388964891433716 3.671131134033203 0.22187983989715576 
v 2.6044762134552 3.5700690746307373 0.22187983989715576 
v 2.6044762134552 3.671131134033203 0.22187983989715576 
v 2.174133539199829 3.5700690746307373 0.22187983989715576 
v 2.174133539199829 3.671131134033203 0.22187983989715576 
v 2.388964891433716 3.5700690746307373 0.22187983989715576 
v 2.388964891433716 3.671131134033203 0.22187983989715576 
v 1.9586223363876343 3.5700690746307373 0.22187983989715576 
v 1.9586223363876343 3.671131134033203 0.22224244475364685 
v 2.174133539199829 3.5700690746307373 0.22187983989715576 
v 2.174133539199829 3.671131134033203 0.22187983989715576 
v 2.174133539199829 3.671131134033203 -0.6164576411247253 
v 2.174133539199829 3.671131134033203 0.22187983989715576 
v 1.9586223363876343 3.671131134033203 -0.6164576411247253 
v 1.9586223363876343 3.671131134033203 0.22224244475364685 
v 2.6037964820861816 3.671131134033203 -0.616820216178894 
v 2.6044762134552 3.671131134033203 0.22187983989715576 
v 2.388964891433716 3.671131134033203 -0.6164576411247253 
v 2.388964891433716 3.671131134033203 0.22187983989715576 
v 3.0341391563415527 3.671131134033203 -0.616820216178894 
v 3.0341391563415527 3.6706182956695557 0.22187983989715576 
v 2.819307565689087 3.671131134033203 -0.616820216178894 
v 2.819307565689087 3.6706182956695557 0.22187983989715576 
vn 1.1236660480499268 0 0.0027482055593281984 
vn 1.1236660480499268 0 0.0027482055593281984 
vn 1.1236660480499268 0 0.0027482055593281984 
vn 1.1236660480499268 0 0.0027482055593281984 
vn -1.1236660480499268 -1.410641487517919e-13 0.0027482055593281984 
vn -1.1236660480499268 -1.410641487517919e-13 0.0027482055593281984 
vn -1.1236660480499268 -1.410641487517919e-13 0.0027482055593281984 
vn -1.1236660480499268 -1.410641487517919e-13 0.0027482055593281984 
vn -1.1236660480499268 -1.410641487517919e-13 0.0027482055593281984 
vn -1.1236660480499268 -1.410641487517919e-13 0.0027482055593281984 
vn 1.1236660480499268 0 0.0027482055593281984 
vn 1.1236660480499268 0 0.0027482055593281984 
vn 1.1236660480499268 0 0.0027482055593281984 
vn 1.1236660480499268 0 0.0027482055593281984 
vn 2.3240066013112404e-13 2.9175395037553185e-26 -1.2579360008239746 
vn 2.3240066013112404e-13 2.9175395037553185e-26 -1.2579360008239746 
vn 2.3240066013112404e-13 2.9175395037553185e-26 -1.2579360008239746 
vn 2.3240066013112404e-13 2.9175395037553185e-26 -1.2579360008239746 
vn 2.3240066013112404e-13 2.9175395037553185e-26 -1.2579360008239746 
vn 2.3240066013112404e-13 2.9175395037553185e-26 -1.2579360008239746 
vn 2.3240066013112404e-13 2.9175395037553185e-26 -1.2579360008239746 
vn 2.3240066013112404e-13 2.9175395037553185e-26 -1.2579360008239746 
vn 2.3240066013112404e-13 2.9175395037553185e-26 -1.2579360008239746 
vn 2.3240066013112404e-13 2.9175395037553185e-26 -1.2579360008239746 
vn 2.3240066013112404e-13 2.9175395037553185e-26 -1.2579360008239746 
vn 2.3240066013112404e-13 2.9175395037553185e-26 -1.2579360008239746 
vn 2.3240066013112404e-13 2.9175395037553185e-26 -1.2579360008239746 
vn 2.3240066013112404e-13 2.9175395037553185e-26 -1.2579360008239746 
vn 2.3240066013112404e-13 2.9175395037553185e-26 -1.2579360008239746 
vn 2.3240066013112404e-13 2.9175395037553185e-26 -1.2579360008239746 
vn 2.3240066013112404e-13 2.9175395037553185e-26 -1.2579360008239746 
vn 2.3240066013112404e-13 2.9175395037553185e-26 -1.2579360008239746 
vn 2.3240066013112404e-13 2.9175395037553185e-26 -1.2579360008239746 
vn 2.3240066013112404e-13 2.9175395037553185e-26 -1.2579360008239746 
vn 2.3240066013112404e-13 2.9175395037553185e-26 -1.2579360008239746 
vn 2.3240066013112404e-13 2.9175395037553185e-26 -1.2579360008239746 
vn 2.3240066013112404e-13 2.9175395037553185e-26 -1.2579360008239746 
vn 2.3240066013112404e-13 2.9175395037553185e-26 -1.2579360008239746 
vn 2.3240066013112404e-13 2.9175395037553185e-26 -1.2579360008239746 
vn 2.3240066013112404e-13 2.9175395037553185e-26 -1.2579360008239746 
vn 2.3240066013112404e-13 2.9175395037553185e-26 -1.2579360008239746 
vn 2.3240066013112404e-13 2.9175395037553185e-26 -1.2579360008239746 
vn 3.481011594426431e-13 -0.6820521950721741 -0.0027482055593281984 
vn 3.481011594426431e-13 -0.6820521950721741 -0.0027482055593281984 
vn 3.481011594426431e-13 -0.6820521950721741 -0.0027482055593281984 
vn 3.481011594426431e-13 -0.6820521950721741 -0.0027482055593281984 
vn 3.481011594426431e-13 -0.6820521950721741 -0.0027482055593281984 
vn 3.481011594426431e-13 -0.6820521950721741 -0.0027482055593281984 
vn 3.481011594426431e-13 -0.6820521950721741 -0.0027482055593281984 
vn 3.481011594426431e-13 -0.6820521950721741 -0.0027482055593281984 
vn 3.481011594426431e-13 -0.6820521950721741 -0.0027482055593281984 
vn 3.481011594426431e-13 -0.6820521950721741 -0.0027482055593281984 
vn 3.481011594426431e-13 -0.6820521950721741 -0.0027482055593281984 
vn 3.481011594426431e-13 -0.6820521950721741 -0.0027482055593281984 
s on 
f 1//1 2//2 3//3 
f 2//2 4//4 3//3 
f 3//3 4//4 4//4 
f 4//4 5//5 4//4 
f 4//4 5//5 5//5 
f 5//5 6//6 5//5 
f 5//5 6//6 7//7 
f 6//6 8//8 7//7 
f 7//7 8//8 9//9 
f 8//8 10//10 9//9 
f 9//9 10//10 10//10 
f 10//10 11//11 10//10 
f 10//10 11//11 11//11 
f 11//11 12//12 11//11 
f 11//11 12//12 13//13 
f 12//12 14//14 13//13 
f 13//13 14//14 14//14 
f 14//14 15//15 14//14 
f 14//14 15//15 15//15 
f 15//15 16//16 15//15 
f 15//15 16//16 17//17 
f 16//16 18//18 17//17 
f 17//17 18//18 18//18 
f 18//18 19//19 18//18 
f 18//18 19//19 19//19 
f 19//19 20//20 19//19 
f 19//19 20//20 21//21 
f 20//20 22//22 21//21 
f 21//21 22//22 22//22 
f 22//22 23//23 22//22 
f 22//22 23//23 23//23 
f 23//23 24//24 23//23 
f 23//23 24//24 25//25 
f 24//24 26//26 25//25 
f 25//25 26//26 26//26 
f 26//26 27//27 26//26 
f 26//26 27//27 27//27 
f 27//27 28//28 27//27 
f 27//27 28//28 29//29 
f 28//28 30//30 29//29 
f 29//29 30//30 30//30 
f 30//30 31//31 30//30 
f 30//30 31//31 31//31 
f 31//31 32//32 31//31 
f 31//31 32//32 33//33 
f 32//32 34//34 33//33 
f 33//33 34//34 34//34 
f 34//34 35//35 34//34 
f 34//34 35//35 35//35 
f 35//35 36//36 35//35 
f 35//35 36//36 37//37 
f 36//36 38//38 37//37 
f 37//37 38//38 38//38 
f 38//38 39//39 38//38 
f 38//38 39//39 39//39 
f 39//39 40//40 39//39 
f 39//39 40//40 41//41 
f 40//40 42//42 41//41 
f 41//41 42//42 42//42 
f 42//42 43//43 42//42 
f 42//42 43//43 43//43 
f 43//43 44//44 43//43 
f 43//43 44//44 45//45 
f 44//44 46//46 45//45 
f 45//45 46//46 46//46 
f 46//46 47//47 46//46 
f 46//46 47//47 47//47 
f 47//47 48//48 47//47 
f 47//47 48//48 49//49 
f 48//48 50//50 49//49 
f 49//49 50//50 50//50 
f 50//50 51//51 50//50 
f 50//50 51//51 51//51 
f 51//51 52//52 51//51 
f 51//51 52//52 53//53 
f 52//52 54//54 53//53 

