mtllib model_72.mtl
o model_72
v -3.169431447982788 0.08514846861362457 16.031816482543945 
v -3.16943097114563 0.08514846861362457 15.085651397705078 
v -2.3014705181121826 0.08514846861362457 16.031816482543945 
v -2.3014700412750244 0.08514846861362457 15.085652351379395 
v -2.151390552520752 0.08514846861362457 16.031816482543945 
v -2.1513898372650146 0.08514846861362457 15.085652351379395 
v -2.001380205154419 0.08514846861362457 16.031816482543945 
v -2.0013797283172607 0.08514846861362457 15.085652351379395 
v -1.8513001203536987 0.08514846861362457 16.031816482543945 
v -1.8512996435165405 0.08514846861362457 15.085652351379395 
v -1.8512996435165405 0.23083554208278656 15.085652351379395 
v -2.0013797283172607 0.23083554208278656 15.085652351379395 
v -1.8513001203536987 0.23083554208278656 16.031816482543945 
v -2.001380205154419 0.23083554208278656 16.031816482543945 
v -3.169431447982788 0.08514846861362457 16.031816482543945 
v -3.169431447982788 0.23083554208278656 16.031816482543945 
v -3.16943097114563 0.08514846861362457 15.085651397705078 
v -3.16943097114563 0.23083554208278656 15.085651397705078 
v -3.169431447982788 0.3763541281223297 16.031816482543945 
v -3.16943097114563 0.3763541281223297 15.085651397705078 
v -3.169431447982788 0.5220410227775574 16.031816482543945 
v -3.16943097114563 0.5220410227775574 15.085651397705078 
v -1.8512996435165405 0.08514846861362457 15.085652351379395 
v -1.8513001203536987 0.08514846861362457 16.031816482543945 
v -1.8512996435165405 0.23083554208278656 15.085652351379395 
v -1.8513001203536987 0.23083554208278656 16.031816482543945 
v -2.0013797283172607 0.3763541281223297 15.085652351379395 
v -2.001380205154419 0.3763541281223297 16.031816482543945 
v -2.1513898372650146 0.3763541281223297 15.085652351379395 
v -2.151390552520752 0.3763541281223297 16.031816482543945 
v -2.0013797283172607 0.23083554208278656 15.085652351379395 
v -2.001380205154419 0.23083554208278656 16.031816482543945 
v -2.0013797283172607 0.3763541281223297 15.085652351379395 
v -2.001380205154419 0.3763541281223297 16.031816482543945 
v -3.169431447982788 0.5220410227775574 16.031816482543945 
v -3.16943097114563 0.5220410227775574 15.085651397705078 
v -2.3014705181121826 0.5220410227775574 16.031816482543945 
v -2.3014700412750244 0.5220410227775574 15.085652351379395 
v -2.151390552520752 0.5220410227775574 16.031816482543945 
v -2.1513898372650146 0.5220410227775574 15.085652351379395 
v -2.1513898372650146 0.3763541281223297 15.085652351379395 
v -2.151390552520752 0.3763541281223297 16.031816482543945 
v -2.1513898372650146 0.5220410227775574 15.085652351379395 
v -2.151390552520752 0.5220410227775574 16.031816482543945 
vn 0.0025627422146499157 -0.5992531180381775 1.29591215536351e-9 
vn 0.0025627422146499157 -0.5992531180381775 1.29591215536351e-9 
vn 0.0025627422146499157 -0.5992531180381775 1.29591215536351e-9 
vn 0.0025627422146499157 -0.5992531180381775 1.29591215536351e-9 
vn 0.0025627422146499157 -0.5992531180381775 1.29591215536351e-9 
vn 0.0025627422146499157 -0.5992531180381775 1.29591215536351e-9 
vn 0.0025627422146499157 -0.5992531180381775 1.29591215536351e-9 
vn 0.0025627422146499157 -0.5992531180381775 1.29591215536351e-9 
vn 0.0025627422146499157 -0.5992531180381775 1.29591215536351e-9 
vn 0.0025627422146499157 -0.5992531180381775 1.29591215536351e-9 
vn 0.0025627422146499157 0.5992531180381775 1.2962191320298189e-9 
vn 0.0025627422146499157 0.5992531180381775 1.2962191320298189e-9 
vn 0.0025627422146499157 0.5992531180381775 1.2962191320298189e-9 
vn 0.0025627422146499157 0.5992531180381775 1.2962191320298189e-9 
vn -1.173043966293335 0 -5.932830049459881e-7 
vn -1.173043966293335 0 -5.932830049459881e-7 
vn -1.173043966293335 0 -5.932830049459881e-7 
vn -1.173043966293335 0 -5.932830049459881e-7 
vn -1.173043966293335 0 -5.932830049459881e-7 
vn -1.173043966293335 0 -5.932830049459881e-7 
vn -1.173043966293335 0 -5.932830049459881e-7 
vn -1.173043966293335 0 -5.932830049459881e-7 
vn 1.173043966293335 0 5.932831754762447e-7 
vn 1.173043966293335 0 5.932831754762447e-7 
vn 1.173043966293335 0 5.932831754762447e-7 
vn 1.173043966293335 0 5.932831754762447e-7 
vn 0.0025627422146499157 0.5992531180381775 1.2962191320298189e-9 
vn 0.0025627422146499157 0.5992531180381775 1.2962191320298189e-9 
vn 0.0025627422146499157 0.5992531180381775 1.2962191320298189e-9 
vn 0.0025627422146499157 0.5992531180381775 1.2962191320298189e-9 
vn 1.173043966293335 0 5.932831754762447e-7 
vn 1.173043966293335 0 5.932831754762447e-7 
vn 1.173043966293335 0 5.932831754762447e-7 
vn 1.173043966293335 0 5.932831754762447e-7 
vn 0.0025627422146499157 0.5992531180381775 1.2962191320298189e-9 
vn 0.0025627422146499157 0.5992531180381775 1.2962191320298189e-9 
vn 0.0025627422146499157 0.5992531180381775 1.2962191320298189e-9 
vn 0.0025627422146499157 0.5992531180381775 1.2962191320298189e-9 
vn 0.0025627422146499157 0.5992531180381775 1.2962191320298189e-9 
vn 0.0025627422146499157 0.5992531180381775 1.2962191320298189e-9 
vn 1.173043966293335 0 5.932831754762447e-7 
vn 1.173043966293335 0 5.932831754762447e-7 
vn 1.173043966293335 0 5.932831754762447e-7 
vn 1.173043966293335 0 5.932831754762447e-7 
s on 
f 1//1 2//2 3//3 
f 2//2 4//4 3//3 
f 3//3 4//4 5//5 
f 4//4 6//6 5//5 
f 5//5 6//6 7//7 
f 6//6 8//8 7//7 
f 7//7 8//8 9//9 
f 8//8 10//10 9//9 
f 9//9 10//10 10//10 
f 10//10 11//11 10//10 
f 10//10 11//11 11//11 
f 11//11 12//12 11//11 
f 11//11 12//12 13//13 
f 12//12 14//14 13//13 
f 13//13 14//14 14//14 
f 14//14 15//15 14//14 
f 14//14 15//15 15//15 
f 15//15 16//16 15//15 
f 15//15 16//16 17//17 
f 16//16 16//16 17//17 
f 17//17 16//16 18//18 
f 16//16 19//19 18//18 
f 18//18 19//19 20//20 
f 19//19 21//21 20//20 
f 20//20 21//21 22//22 
f 21//21 22//22 22//22 
f 22//22 22//22 23//23 
f 22//22 23//23 23//23 
f 23//23 23//23 24//24 
f 23//23 25//25 24//24 
f 24//24 25//25 26//26 
f 25//25 26//26 26//26 
f 26//26 26//26 27//27 
f 26//26 27//27 27//27 
f 27//27 27//27 28//28 
f 27//27 29//29 28//28 
f 28//28 29//29 30//30 
f 29//29 30//30 30//30 
f 30//30 30//30 31//31 
f 30//30 31//31 31//31 
f 31//31 31//31 32//32 
f 31//31 33//33 32//32 
f 32//32 33//33 34//34 
f 33//33 34//34 34//34 
f 34//34 34//34 35//35 
f 34//34 35//35 35//35 
f 35//35 35//35 36//36 
f 35//35 37//37 36//36 
f 36//36 37//37 38//38 
f 37//37 39//39 38//38 
f 38//38 39//39 40//40 
f 39//39 40//40 40//40 
f 40//40 40//40 41//41 
f 40//40 41//41 41//41 
f 41//41 41//41 42//42 
f 41//41 43//43 42//42 
f 42//42 43//43 44//44 

