mtllib model_39.mtl
o model_39
v -2.318636655807495 0.8708590865135193 21.574914932250977 
v -2.318636655807495 0.8708590865135193 21.817230224609375 
v -2.318636655807495 0.5089755058288574 21.574914932250977 
v -2.318636655807495 0.5089755058288574 21.817230224609375 
v -2.358213186264038 0.8708590865135193 19.64015007019043 
v -2.358213186264038 0.8708590865135193 19.882465362548828 
v -2.358213186264038 0.5089755058288574 19.64015007019043 
v -2.358213186264038 0.5089755058288574 19.882465362548828 
v 17.086965560913086 0.08857583999633789 0.962713360786438 
v 16.715850830078125 0.08857583999633789 0.9627131819725037 
v 17.086965560913086 0.33123573660850525 0.962713360786438 
v 16.715850830078125 0.33123573660850525 0.9627131819725037 
v 16.715850830078125 0.08857583999633789 0.9627131819725037 
v 16.715850830078125 0.08857583999633789 0.9861536026000977 
v 16.715850830078125 0.33123573660850525 0.9627131819725037 
v 16.715850830078125 0.33123573660850525 0.9861536026000977 
v 17.086965560913086 0.08857583999633789 0.962713360786438 
v 17.086965560913086 0.08857583999633789 0.986153781414032 
v 16.715850830078125 0.08857583999633789 0.9627131819725037 
v 16.715850830078125 0.08857583999633789 0.9861536026000977 
v 17.086965560913086 0.33123573660850525 0.962713360786438 
v 17.086965560913086 0.33123573660850525 0.986153781414032 
v 17.086965560913086 0.08857583999633789 0.962713360786438 
v 17.086965560913086 0.08857583999633789 0.986153781414032 
v 16.715850830078125 0.33123573660850525 0.9627131819725037 
v 16.715850830078125 0.33123573660850525 0.9861536026000977 
v 17.086965560913086 0.33123573660850525 0.962713360786438 
v 17.086965560913086 0.33123573660850525 0.986153781414032 
v 17.039226531982422 0.300877183675766 0.986153781414032 
v 17.086965560913086 0.33123573660850525 0.986153781414032 
v 16.76358985900879 0.300877183675766 0.9861536622047424 
v 16.715850830078125 0.33123573660850525 0.9861536026000977 
v 16.76358985900879 0.11889276653528214 0.9861536622047424 
v 16.715850830078125 0.08857583999633789 0.9861536026000977 
v 17.039226531982422 0.11889276653528214 0.986153781414032 
v 17.086965560913086 0.08857583999633789 0.986153781414032 
v 17.039226531982422 0.11889276653528214 0.986153781414032 
v 17.086965560913086 0.08857583999633789 0.986153781414032 
v 17.039226531982422 0.300877183675766 0.986153781414032 
v 17.086965560913086 0.33123573660850525 0.986153781414032 
v 16.76358985900879 0.300877183675766 0.9861536622047424 
v 16.715850830078125 0.33123573660850525 0.9861536026000977 
v 16.76358985900879 0.11889276653528214 0.9861536622047424 
v 16.715850830078125 0.08857583999633789 0.9861536026000977 
v 17.606618881225586 0.08857583999633789 0.9627135992050171 
v 17.235427856445312 0.08857583999633789 0.9627134203910828 
v 17.606618881225586 0.33123573660850525 0.9627135992050171 
v 17.235427856445312 0.33123573660850525 0.9627134203910828 
v 17.235427856445312 0.08857583999633789 0.9627134203910828 
v 17.235427856445312 0.08857583999633789 0.9861539006233215 
v 17.235427856445312 0.33123573660850525 0.9627134203910828 
v 17.235427856445312 0.33123573660850525 0.9861539006233215 
v 17.606618881225586 0.08857583999633789 0.9627135992050171 
v 17.606618881225586 0.08857583999633789 0.9861540794372559 
v 17.235427856445312 0.08857583999633789 0.9627134203910828 
v 17.235427856445312 0.08857583999633789 0.9861539006233215 
v 17.606618881225586 0.33123573660850525 0.9627135992050171 
v 17.606618881225586 0.33123573660850525 0.9861540794372559 
v 17.606618881225586 0.08857583999633789 0.9627135992050171 
v 17.606618881225586 0.08857583999633789 0.9861540794372559 
v 17.235427856445312 0.33123573660850525 0.9627134203910828 
v 17.235427856445312 0.33123573660850525 0.9861539006233215 
v 17.606618881225586 0.33123573660850525 0.9627135992050171 
v 17.606618881225586 0.33123573660850525 0.9861540794372559 
v 17.55880355834961 0.300877183675766 0.9861540198326111 
v 17.606618881225586 0.33123573660850525 0.9861540794372559 
v 17.28324317932129 0.300877183675766 0.9861539006233215 
v 17.235427856445312 0.33123573660850525 0.9861539006233215 
v 17.28324317932129 0.11889276653528214 0.9861539006233215 
v 17.235427856445312 0.08857583999633789 0.9861539006233215 
v 17.55880355834961 0.11889276653528214 0.9861540198326111 
v 17.606618881225586 0.08857583999633789 0.9861540794372559 
v 17.55880355834961 0.11889276653528214 0.9861540198326111 
v 17.606618881225586 0.08857583999633789 0.9861540794372559 
v 17.55880355834961 0.300877183675766 0.9861540198326111 
v 17.606618881225586 0.33123573660850525 0.9861540794372559 
v 17.28324317932129 0.300877183675766 0.9861539006233215 
v 17.235427856445312 0.33123573660850525 0.9861539006233215 
v 17.28324317932129 0.11889276653528214 0.9861539006233215 
v 17.235427856445312 0.08857583999633789 0.9861539006233215 
v 18.12627410888672 0.08857583999633789 0.962713897228241 
v 17.755081176757812 0.08857583999633789 0.9627136588096619 
v 18.12627410888672 0.33123573660850525 0.962713897228241 
v 17.755081176757812 0.33123573660850525 0.9627136588096619 
v 17.755081176757812 0.08857583999633789 0.9627136588096619 
v 17.755081176757812 0.08857583999633789 0.9861541390419006 
v 17.755081176757812 0.33123573660850525 0.9627136588096619 
v 17.755081176757812 0.33123573660850525 0.9861541390419006 
v 18.12627410888672 0.08857583999633789 0.962713897228241 
v 18.12627410888672 0.08857583999633789 0.986154317855835 
v 17.755081176757812 0.08857583999633789 0.9627136588096619 
v 17.755081176757812 0.08857583999633789 0.9861541390419006 
v 18.12627410888672 0.33123573660850525 0.962713897228241 
v 18.12627410888672 0.33123573660850525 0.986154317855835 
v 18.12627410888672 0.08857583999633789 0.962713897228241 
v 18.12627410888672 0.08857583999633789 0.986154317855835 
v 17.755081176757812 0.33123573660850525 0.9627136588096619 
v 17.755081176757812 0.33123573660850525 0.9861541390419006 
v 18.12627410888672 0.33123573660850525 0.962713897228241 
v 18.12627410888672 0.33123573660850525 0.986154317855835 
v 18.07845687866211 0.300877183675766 0.986154317855835 
v 18.12627410888672 0.33123573660850525 0.986154317855835 
v 17.802820205688477 0.300877183675766 0.9861541390419006 
v 17.755081176757812 0.33123573660850525 0.9861541390419006 
v 17.802820205688477 0.11889276653528214 0.9861541390419006 
v 17.755081176757812 0.08857583999633789 0.9861541390419006 
v 18.07845687866211 0.11889276653528214 0.986154317855835 
v 18.12627410888672 0.08857583999633789 0.986154317855835 
v 18.07845687866211 0.11889276653528214 0.986154317855835 
v 18.12627410888672 0.08857583999633789 0.986154317855835 
v 18.07845687866211 0.300877183675766 0.986154317855835 
v 18.12627410888672 0.33123573660850525 0.986154317855835 
v 17.802820205688477 0.300877183675766 0.9861541390419006 
v 17.755081176757812 0.33123573660850525 0.9861541390419006 
v 17.802820205688477 0.11889276653528214 0.9861541390419006 
v 17.755081176757812 0.08857583999633789 0.9861541390419006 
vn 1.436985969543457 0 7.267723276527249e-7 
vn 1.436985969543457 0 7.267723276527249e-7 
vn 1.436985969543457 0 7.267723276527249e-7 
vn 1.436985969543457 0 7.267723276527249e-7 
vn 1.436985969543457 0 7.267723276527249e-7 
vn 1.436985969543457 0 7.267723276527249e-7 
vn 1.436985969543457 0 7.267723276527249e-7 
vn 1.436985969543457 0 7.267723276527249e-7 
vn -0.09815420210361481 0 -4.1414971351623535 
vn -0.09815420210361481 0 -4.1414971351623535 
vn -0.09815420210361481 0 -4.1414971351623535 
vn -0.09815420210361481 0 -4.1414971351623535 
vn -44.929080963134766 0 -0.000022723368601873517 
vn -44.929080963134766 0 -0.000022723368601873517 
vn -44.929080963134766 0 -0.000022723368601873517 
vn -44.929080963134766 0 -0.000022723368601873517 
vn 0.09815629571676254 -2.274764060974121 4.964232758197795e-8 
vn 0.09815629571676254 -2.274764060974121 4.964232758197795e-8 
vn 0.09815629571676254 -2.274764060974121 4.964232758197795e-8 
vn 0.09815629571676254 -2.274764060974121 4.964232758197795e-8 
vn 44.929080963134766 0 0.000022723368601873517 
vn 44.929080963134766 0 0.000022723368601873517 
vn 44.929080963134766 0 0.000022723368601873517 
vn 44.929080963134766 0 0.000022723368601873517 
vn 0.09815629571676254 2.274764060974121 4.9644039989971134e-8 
vn 0.09815629571676254 2.274764060974121 4.9644039989971134e-8 
vn 0.09815629571676254 2.274764060974121 4.9644039989971134e-8 
vn 0.09815629571676254 2.274764060974121 4.9644039989971134e-8 
vn 0.09815420210361481 -4.70473757608475e-13 4.1414971351623535 
vn 0.09815420210361481 -4.70473757608475e-13 4.1414971351623535 
vn 0.09815420210361481 -4.70473757608475e-13 4.1414971351623535 
vn 0.09815420210361481 -4.70473757608475e-13 4.1414971351623535 
vn 0.09815420210361481 -4.70473757608475e-13 4.1414971351623535 
vn 0.09815420210361481 -4.70473757608475e-13 4.1414971351623535 
vn 0.09815420210361481 -4.70473757608475e-13 4.1414971351623535 
vn 0.09815420210361481 -4.70473757608475e-13 4.1414971351623535 
vn -0.09815838932991028 -4.70473757608475e-13 4.1414971351623535 
vn -0.09815838932991028 -4.70473757608475e-13 4.1414971351623535 
vn -0.09815838932991028 -4.70473757608475e-13 4.1414971351623535 
vn -0.09815838932991028 -4.70473757608475e-13 4.1414971351623535 
vn 0.09815420210361481 -4.70473757608475e-13 4.1414971351623535 
vn 0.09815420210361481 -4.70473757608475e-13 4.1414971351623535 
vn 0.09815420210361481 -4.70473757608475e-13 4.1414971351623535 
vn 0.09815420210361481 -4.70473757608475e-13 4.1414971351623535 
vn -0.09815420210361481 0 -4.1414971351623535 
vn -0.09815420210361481 0 -4.1414971351623535 
vn -0.09815420210361481 0 -4.1414971351623535 
vn -0.09815420210361481 0 -4.1414971351623535 
vn -44.929080963134766 0 -0.000022723368601873517 
vn -44.929080963134766 0 -0.000022723368601873517 
vn -44.929080963134766 0 -0.000022723368601873517 
vn -44.929080963134766 0 -0.000022723368601873517 
vn 0.09815629571676254 -2.274764060974121 4.964232758197795e-8 
vn 0.09815629571676254 -2.274764060974121 4.964232758197795e-8 
vn 0.09815629571676254 -2.274764060974121 4.964232758197795e-8 
vn 0.09815629571676254 -2.274764060974121 4.964232758197795e-8 
vn 44.929080963134766 0 0.000022723368601873517 
vn 44.929080963134766 0 0.000022723368601873517 
vn 44.929080963134766 0 0.000022723368601873517 
vn 44.929080963134766 0 0.000022723368601873517 
vn 0.09815629571676254 2.274764060974121 4.9644039989971134e-8 
vn 0.09815629571676254 2.274764060974121 4.9644039989971134e-8 
vn 0.09815629571676254 2.274764060974121 4.9644039989971134e-8 
vn 0.09815629571676254 2.274764060974121 4.9644039989971134e-8 
vn 0.09815420210361481 -4.70473757608475e-13 4.1414971351623535 
vn 0.09815420210361481 -4.70473757608475e-13 4.1414971351623535 
vn 0.09815420210361481 -4.70473757608475e-13 4.1414971351623535 
vn 0.09815420210361481 -4.70473757608475e-13 4.1414971351623535 
vn 0.09815420210361481 -4.70473757608475e-13 4.1414971351623535 
vn 0.09815420210361481 -4.70473757608475e-13 4.1414971351623535 
vn 0.09815420210361481 -4.70473757608475e-13 4.1414971351623535 
vn 0.09815420210361481 -4.70473757608475e-13 4.1414971351623535 
vn 0.09815420210361481 -4.70473757608475e-13 4.1414971351623535 
vn 0.09815420210361481 -4.70473757608475e-13 4.1414971351623535 
vn 0.09815420210361481 -4.70473757608475e-13 4.1414971351623535 
vn 0.09815420210361481 -4.70473757608475e-13 4.1414971351623535 
vn 0.09815420210361481 -4.70473757608475e-13 4.1414971351623535 
vn 0.09815420210361481 -4.70473757608475e-13 4.1414971351623535 
vn 0.09815420210361481 -4.70473757608475e-13 4.1414971351623535 
vn 0.09815420210361481 -4.70473757608475e-13 4.1414971351623535 
vn -0.09815420210361481 0 -4.1414971351623535 
vn -0.09815420210361481 0 -4.1414971351623535 
vn -0.09815420210361481 0 -4.1414971351623535 
vn -0.09815420210361481 0 -4.1414971351623535 
vn -44.929080963134766 0 -0.000022723368601873517 
vn -44.929080963134766 0 -0.000022723368601873517 
vn -44.929080963134766 0 -0.000022723368601873517 
vn -44.929080963134766 0 -0.000022723368601873517 
vn 0.09815629571676254 -2.274764060974121 4.964232758197795e-8 
vn 0.09815629571676254 -2.274764060974121 4.964232758197795e-8 
vn 0.09815629571676254 -2.274764060974121 4.964232758197795e-8 
vn 0.09815629571676254 -2.274764060974121 4.964232758197795e-8 
vn 44.929080963134766 0 0.000022723368601873517 
vn 44.929080963134766 0 0.000022723368601873517 
vn 44.929080963134766 0 0.000022723368601873517 
vn 44.929080963134766 0 0.000022723368601873517 
vn 0.09815629571676254 2.274764060974121 4.9644039989971134e-8 
vn 0.09815629571676254 2.274764060974121 4.9644039989971134e-8 
vn 0.09815629571676254 2.274764060974121 4.9644039989971134e-8 
vn 0.09815629571676254 2.274764060974121 4.9644039989971134e-8 
vn 0.09815420210361481 -4.70473757608475e-13 4.1414971351623535 
vn 0.09815420210361481 -4.70473757608475e-13 4.1414971351623535 
vn 0.09815420210361481 -4.70473757608475e-13 4.1414971351623535 
vn 0.09815420210361481 -4.70473757608475e-13 4.1414971351623535 
vn 0.09815420210361481 -4.70473757608475e-13 4.1414971351623535 
vn 0.09815420210361481 -4.70473757608475e-13 4.1414971351623535 
vn 0.09815420210361481 -4.70473757608475e-13 4.1414971351623535 
vn 0.09815420210361481 -4.70473757608475e-13 4.1414971351623535 
vn 0.09815420210361481 -4.70473757608475e-13 4.1414971351623535 
vn 0.09815420210361481 -4.70473757608475e-13 4.1414971351623535 
vn 0.09815420210361481 -4.70473757608475e-13 4.1414971351623535 
vn 0.09815420210361481 -4.70473757608475e-13 4.1414971351623535 
vn 0.09815420210361481 -4.70473757608475e-13 4.1414971351623535 
vn 0.09815420210361481 -4.70473757608475e-13 4.1414971351623535 
vn 0.09815420210361481 -4.70473757608475e-13 4.1414971351623535 
vn 0.09815420210361481 -4.70473757608475e-13 4.1414971351623535 
s on 
f 1//1 2//2 3//3 
f 2//2 4//4 3//3 
f 3//3 4//4 4//4 
f 4//4 5//5 4//4 
f 4//4 5//5 5//5 
f 5//5 6//6 5//5 
f 5//5 6//6 7//7 
f 6//6 8//8 7//7 
f 7//7 8//8 8//8 
f 8//8 9//9 8//8 
f 8//8 9//9 9//9 
f 9//9 10//10 9//9 
f 9//9 10//10 11//11 
f 10//10 12//12 11//11 
f 11//11 12//12 12//12 
f 12//12 13//13 12//12 
f 12//12 13//13 13//13 
f 13//13 14//14 13//13 
f 13//13 14//14 15//15 
f 14//14 16//16 15//15 
f 15//15 16//16 16//16 
f 16//16 17//17 16//16 
f 16//16 17//17 17//17 
f 17//17 18//18 17//17 
f 17//17 18//18 19//19 
f 18//18 20//20 19//19 
f 19//19 20//20 20//20 
f 20//20 21//21 20//20 
f 20//20 21//21 21//21 
f 21//21 22//22 21//21 
f 21//21 22//22 23//23 
f 22//22 24//24 23//23 
f 23//23 24//24 24//24 
f 24//24 25//25 24//24 
f 24//24 25//25 25//25 
f 25//25 26//26 25//25 
f 25//25 26//26 27//27 
f 26//26 28//28 27//27 
f 27//27 28//28 28//28 
f 28//28 29//29 28//28 
f 28//28 29//29 29//29 
f 29//29 30//30 29//29 
f 29//29 30//30 31//31 
f 30//30 32//32 31//31 
f 31//31 32//32 32//32 
f 32//32 33//33 32//32 
f 32//32 33//33 33//33 
f 33//33 34//34 33//33 
f 33//33 34//34 35//35 
f 34//34 36//36 35//35 
f 35//35 36//36 36//36 
f 36//36 37//37 36//36 
f 36//36 37//37 37//37 
f 37//37 38//38 37//37 
f 37//37 38//38 39//39 
f 38//38 40//40 39//39 
f 39//39 40//40 40//40 
f 40//40 41//41 40//40 
f 40//40 41//41 41//41 
f 41//41 42//42 41//41 
f 41//41 42//42 43//43 
f 42//42 44//44 43//43 
f 43//43 44//44 44//44 
f 44//44 45//45 44//44 
f 44//44 45//45 45//45 
f 45//45 46//46 45//45 
f 45//45 46//46 47//47 
f 46//46 48//48 47//47 
f 47//47 48//48 48//48 
f 48//48 49//49 48//48 
f 48//48 49//49 49//49 
f 49//49 50//50 49//49 
f 49//49 50//50 51//51 
f 50//50 52//52 51//51 
f 51//51 52//52 52//52 
f 52//52 53//53 52//52 
f 52//52 53//53 53//53 
f 53//53 54//54 53//53 
f 53//53 54//54 55//55 
f 54//54 56//56 55//55 
f 55//55 56//56 56//56 
f 56//56 57//57 56//56 
f 56//56 57//57 57//57 
f 57//57 58//58 57//57 
f 57//57 58//58 59//59 
f 58//58 60//60 59//59 
f 59//59 60//60 60//60 
f 60//60 61//61 60//60 
f 60//60 61//61 61//61 
f 61//61 62//62 61//61 
f 61//61 62//62 63//63 
f 62//62 64//64 63//63 
f 63//63 64//64 64//64 
f 64//64 65//65 64//64 
f 64//64 65//65 65//65 
f 65//65 66//66 65//65 
f 65//65 66//66 67//67 
f 66//66 68//68 67//67 
f 67//67 68//68 68//68 
f 68//68 69//69 68//68 
f 68//68 69//69 69//69 
f 69//69 70//70 69//69 
f 69//69 70//70 71//71 
f 70//70 72//72 71//71 
f 71//71 72//72 72//72 
f 72//72 73//73 72//72 
f 72//72 73//73 73//73 
f 73//73 74//74 73//73 
f 73//73 74//74 75//75 
f 74//74 76//76 75//75 
f 75//75 76//76 76//76 
f 76//76 77//77 76//76 
f 76//76 77//77 77//77 
f 77//77 78//78 77//77 
f 77//77 78//78 79//79 
f 78//78 80//80 79//79 
f 79//79 80//80 80//80 
f 80//80 81//81 80//80 
f 80//80 81//81 81//81 
f 81//81 82//82 81//81 
f 81//81 82//82 83//83 
f 82//82 84//84 83//83 
f 83//83 84//84 84//84 
f 84//84 85//85 84//84 
f 84//84 85//85 85//85 
f 85//85 86//86 85//85 
f 85//85 86//86 87//87 
f 86//86 88//88 87//87 
f 87//87 88//88 88//88 
f 88//88 89//89 88//88 
f 88//88 89//89 89//89 
f 89//89 90//90 89//89 
f 89//89 90//90 91//91 
f 90//90 92//92 91//91 
f 91//91 92//92 92//92 
f 92//92 93//93 92//92 
f 92//92 93//93 93//93 
f 93//93 94//94 93//93 
f 93//93 94//94 95//95 
f 94//94 96//96 95//95 
f 95//95 96//96 96//96 
f 96//96 97//97 96//96 
f 96//96 97//97 97//97 
f 97//97 98//98 97//97 
f 97//97 98//98 99//99 
f 98//98 100//100 99//99 
f 99//99 100//100 100//100 
f 100//100 101//101 100//100 
f 100//100 101//101 101//101 
f 101//101 102//102 101//101 
f 101//101 102//102 103//103 
f 102//102 104//104 103//103 
f 103//103 104//104 104//104 
f 104//104 105//105 104//104 
f 104//104 105//105 105//105 
f 105//105 106//106 105//105 
f 105//105 106//106 107//107 
f 106//106 108//108 107//107 
f 107//107 108//108 108//108 
f 108//108 109//109 108//108 
f 108//108 109//109 109//109 
f 109//109 110//110 109//109 
f 109//109 110//110 111//111 
f 110//110 112//112 111//111 
f 111//111 112//112 112//112 
f 112//112 113//113 112//112 
f 112//112 113//113 113//113 
f 113//113 114//114 113//113 
f 113//113 114//114 115//115 
f 114//114 116//116 115//115 

