mtllib model_24.mtl
o model_24
v 8.519735336303711 2.141784429550171 -1.0146912336349487 
v 8.519735336303711 2.141784429550171 0.8506230115890503 
v 8.252538681030273 2.141784429550171 -1.2704282999038696 
v 6.303642272949219 2.141784429550171 1.1063600778579712 
v 6.0364460945129395 2.141784429550171 -1.0146912336349487 
v 6.0364460945129395 2.141784429550171 0.8506230115890503 
v 8.252538681030273 2.141784429550171 1.1063600778579712 
v 6.303642272949219 2.141784429550171 -1.2704282999038696 
v 6.381074905395508 2.5542166233062744 -0.7881813645362854 
v 6.161864757537842 2.1849889755249023 -0.9604123830795288 
v 6.54030179977417 2.5542166233062744 -0.9405797123908997 
v 6.360353469848633 2.1849889755249023 -1.150388479232788 
v 8.519735336303711 2.141784429550171 -1.0146912336349487 
v 8.267807006835938 2.5542166233062744 -0.824715256690979 
v 8.519735336303711 2.141784429550171 0.8506230115890503 
v 8.267807006835938 2.5542166233062744 0.6606469750404358 
v 6.0364460945129395 2.141784429550171 0.8506230115890503 
v 6.289464473724365 2.5542166233062744 0.6606469750404358 
v 6.0364460945129395 2.141784429550171 -1.0146912336349487 
v 6.289464473724365 2.5542166233062744 -0.824715256690979 
v 8.252538681030273 2.141784429550171 -1.2704282999038696 
v 8.05405044555664 2.5542166233062744 -1.0282609462738037 
v 8.519735336303711 2.141784429550171 -1.0146912336349487 
v 8.267807006835938 2.5542166233062744 -0.824715256690979 
v 6.303642272949219 2.141784429550171 1.1063600778579712 
v 6.50213098526001 2.5542166233062744 0.8652365803718567 
v 6.0364460945129395 2.141784429550171 0.8506230115890503 
v 6.289464473724365 2.5542166233062744 0.6606469750404358 
v 6.303642272949219 2.141784429550171 -1.2704282999038696 
v 6.50213098526001 2.5542166233062744 -1.0282609462738037 
v 8.252538681030273 2.141784429550171 -1.2704282999038696 
v 8.05405044555664 2.5542166233062744 -1.0282609462738037 
v 8.252538681030273 2.141784429550171 1.1063600778579712 
v 8.05405044555664 2.5542166233062744 0.8652365803718567 
v 6.303642272949219 2.141784429550171 1.1063600778579712 
v 6.50213098526001 2.5542166233062744 0.8652365803718567 
v 8.519735336303711 2.141784429550171 0.8506230115890503 
v 8.267807006835938 2.5542166233062744 0.6606469750404358 
v 8.252538681030273 2.141784429550171 1.1063600778579712 
v 8.05405044555664 2.5542166233062744 0.8652365803718567 
v 6.0364460945129395 2.141784429550171 -1.0146912336349487 
v 6.289464473724365 2.5542166233062744 -0.824715256690979 
v 6.303642272949219 2.141784429550171 -1.2704282999038696 
v 6.50213098526001 2.5542166233062744 -1.0282609462738037 
v 6.381074905395508 2.5542166233062744 0.624113142490387 
v 6.289464473724365 2.5542166233062744 0.6606469750404358 
v 6.54030179977417 2.5542166233062744 0.776511549949646 
v 6.50213098526001 2.5542166233062744 0.8652365803718567 
v 6.54030179977417 2.5542166233062744 -0.9405797123908997 
v 6.50213098526001 2.5542166233062744 -1.0282609462738037 
v 6.381074905395508 2.5542166233062744 -0.7881813645362854 
v 6.289464473724365 2.5542166233062744 -0.824715256690979 
v 8.1751070022583 2.5542166233062744 -0.7881813645362854 
v 8.267807006835938 2.5542166233062744 -0.824715256690979 
v 8.01587963104248 2.5542166233062744 -0.9405797123908997 
v 8.05405044555664 2.5542166233062744 -1.0282609462738037 
v 8.01587963104248 2.5542166233062744 0.776511549949646 
v 8.05405044555664 2.5542166233062744 0.8652365803718567 
v 8.1751070022583 2.5542166233062744 0.624113142490387 
v 8.267807006835938 2.5542166233062744 0.6606469750404358 
v 6.381074905395508 2.5542166233062744 -0.7881813645362854 
v 6.289464473724365 2.5542166233062744 -0.824715256690979 
v 6.381074905395508 2.5542166233062744 0.624113142490387 
v 6.289464473724365 2.5542166233062744 0.6606469750404358 
v 6.54030179977417 2.5542166233062744 0.776511549949646 
v 6.50213098526001 2.5542166233062744 0.8652365803718567 
v 8.01587963104248 2.5542166233062744 0.776511549949646 
v 8.05405044555664 2.5542166233062744 0.8652365803718567 
v 8.1751070022583 2.5542166233062744 0.624113142490387 
v 8.267807006835938 2.5542166233062744 0.6606469750404358 
v 8.1751070022583 2.5542166233062744 -0.7881813645362854 
v 8.267807006835938 2.5542166233062744 -0.824715256690979 
v 8.01587963104248 2.5542166233062744 -0.9405797123908997 
v 8.05405044555664 2.5542166233062744 -1.0282609462738037 
v 6.54030179977417 2.5542166233062744 -0.9405797123908997 
v 6.50213098526001 2.5542166233062744 -1.0282609462738037 
v 8.1751070022583 2.5542166233062744 -0.7881813645362854 
v 8.394316673278809 2.1849889755249023 -0.9604123830795288 
v 8.1751070022583 2.5542166233062744 0.624113142490387 
v 8.394316673278809 2.1849889755249023 0.797387957572937 
v 6.381074905395508 2.5542166233062744 0.624113142490387 
v 6.161864757537842 2.1849889755249023 0.797387957572937 
v 6.381074905395508 2.5542166233062744 -0.7881813645362854 
v 6.161864757537842 2.1849889755249023 -0.9604123830795288 
v 8.01587963104248 2.5542166233062744 -0.9405797123908997 
v 8.196918487548828 2.1849889755249023 -1.150388479232788 
v 8.1751070022583 2.5542166233062744 -0.7881813645362854 
v 8.394316673278809 2.1849889755249023 -0.9604123830795288 
v 6.54030179977417 2.5542166233062744 0.776511549949646 
v 6.360353469848633 2.1849889755249023 0.9863201975822449 
v 6.381074905395508 2.5542166233062744 0.624113142490387 
v 6.161864757537842 2.1849889755249023 0.797387957572937 
v 6.54030179977417 2.5542166233062744 -0.9405797123908997 
v 6.360353469848633 2.1849889755249023 -1.150388479232788 
v 8.01587963104248 2.5542166233062744 -0.9405797123908997 
v 8.196918487548828 2.1849889755249023 -1.150388479232788 
v 8.01587963104248 2.5542166233062744 0.776511549949646 
v 8.196918487548828 2.1849889755249023 0.9863201975822449 
v 6.54030179977417 2.5542166233062744 0.776511549949646 
v 6.360353469848633 2.1849889755249023 0.9863201975822449 
v 8.1751070022583 2.5542166233062744 0.624113142490387 
v 8.394316673278809 2.1849889755249023 0.797387957572937 
v 8.01587963104248 2.5542166233062744 0.776511549949646 
v 8.196918487548828 2.1849889755249023 0.9863201975822449 
v 8.104217529296875 2.132502317428589 -0.84559166431427 
v 8.075862884521484 2.132502317428589 -0.8716873526573181 
v 8.104217529296875 2.132502317428589 0.6815235018730164 
v 6.453053951263428 2.132502317428589 -0.84559166431427 
v 6.480319023132324 2.132502317428589 0.7086629271507263 
v 6.453053951263428 2.132502317428589 0.6815235018730164 
v 6.480319023132324 2.132502317428589 -0.8716873526573181 
v 8.075862884521484 2.132502317428589 0.7086629271507263 
vn 2.2734367014810852e-13 -1.5674360990524292 0.0016751091461628675 
vn 2.2734367014810852e-13 -1.5674360990524292 0.0016751091461628675 
vn 2.2734367014810852e-13 -1.5674360990524292 0.0016751091461628675 
vn 2.2734367014810852e-13 -1.5674360990524292 0.0016751091461628675 
vn 2.2734367014810852e-13 -1.5674360990524292 0.0016751091461628675 
vn 2.2734367014810852e-13 -1.5674360990524292 0.0016751091461628675 
vn 2.2734367014810852e-13 -1.5674360990524292 0.0016751091461628675 
vn 2.2734367014810852e-13 -1.5674360990524292 0.0016751091461628675 
vn 0.489963173866272 -0.5245912075042725 0.5098928809165955 
vn 0.489963173866272 -0.5245912075042725 0.5098928809165955 
vn 0.489963173866272 -0.5245912075042725 0.5098928809165955 
vn 0.489963173866272 -0.5245912075042725 0.5098928809165955 
vn 0.7053998708724976 0.4322968125343323 0.0016751091461628675 
vn 0.7053998708724976 0.4322968125343323 0.0016751091461628675 
vn 0.7053998708724976 0.4322968125343323 0.0016751091461628675 
vn 0.7053998708724976 0.4322968125343323 0.0016751091461628675 
vn -0.7053998708724976 0.4322968125343323 0.0016751091461628675 
vn -0.7053998708724976 0.4322968125343323 0.0016751091461628675 
vn -0.7053998708724976 0.4322968125343323 0.0016751091461628675 
vn -0.7053998708724976 0.4322968125343323 0.0016751091461628675 
vn 0.4872654974460602 0.5359313488006592 -0.5098928809165955 
vn 0.4872654974460602 0.5359313488006592 -0.5098928809165955 
vn 0.4872654974460602 0.5359313488006592 -0.5098928809165955 
vn 0.4872654974460602 0.5359313488006592 -0.5098928809165955 
vn -0.48745715618133545 0.5351355075836182 0.5098928809165955 
vn -0.48745715618133545 0.5351355075836182 0.5098928809165955 
vn -0.48745715618133545 0.5351355075836182 0.5098928809165955 
vn -0.48745715618133545 0.5351355075836182 0.5098928809165955 
vn 0.0013893848517909646 0.43261998891830444 -0.7369630336761475 
vn 0.0013893848517909646 0.43261998891830444 -0.7369630336761475 
vn 0.0013893848517909646 0.43261998891830444 -0.7369630336761475 
vn 0.0013893848517909646 0.43261998891830444 -0.7369630336761475 
vn -0.0013773556565865874 0.4326201379299164 0.7369630336761475 
vn -0.0013773556565865874 0.4326201379299164 0.7369630336761475 
vn -0.0013773556565865874 0.4326201379299164 0.7369630336761475 
vn -0.0013773556565865874 0.4326201379299164 0.7369630336761475 
vn 0.48745715618133545 0.5351355075836182 0.5098928809165955 
vn 0.48745715618133545 0.5351355075836182 0.5098928809165955 
vn 0.48745715618133545 0.5351355075836182 0.5098928809165955 
vn 0.48745715618133545 0.5351355075836182 0.5098928809165955 
vn -0.48852860927581787 0.5306594967842102 -0.5098928809165955 
vn -0.48852860927581787 0.5306594967842102 -0.5098928809165955 
vn -0.48852860927581787 0.5306594967842102 -0.5098928809165955 
vn -0.48852860927581787 0.5306594967842102 -0.5098928809165955 
vn -7.588984914661326e-14 1.5674360990524292 0.0016751091461628675 
vn -7.588984914661326e-14 1.5674360990524292 0.0016751091461628675 
vn -7.588984914661326e-14 1.5674360990524292 0.0016751091461628675 
vn -7.588984914661326e-14 1.5674360990524292 0.0016751091461628675 
vn -7.588984914661326e-14 1.5674360990524292 0.0016751091461628675 
vn -7.588984914661326e-14 1.5674360990524292 0.0016751091461628675 
vn -7.588984914661326e-14 1.5674360990524292 0.0016751091461628675 
vn -7.588984914661326e-14 1.5674360990524292 0.0016751091461628675 
vn -7.588984914661326e-14 1.5674360990524292 0.0016751091461628675 
vn -7.588984914661326e-14 1.5674360990524292 0.0016751091461628675 
vn -7.588984914661326e-14 1.5674360990524292 0.0016751091461628675 
vn -7.588984914661326e-14 1.5674360990524292 0.0016751091461628675 
vn -7.588984914661326e-14 1.5674360990524292 0.0016751091461628675 
vn -7.588984914661326e-14 1.5674360990524292 0.0016751091461628675 
vn -7.588984914661326e-14 1.5674360990524292 0.0016751091461628675 
vn -7.588984914661326e-14 1.5674360990524292 0.0016751091461628675 
vn -7.588984914661326e-14 1.5674360990524292 0.0016751091461628675 
vn -7.588984914661326e-14 1.5674360990524292 0.0016751091461628675 
vn -7.588984914661326e-14 1.5674360990524292 0.0016751091461628675 
vn -7.588984914661326e-14 1.5674360990524292 0.0016751091461628675 
vn -7.588984914661326e-14 1.5674360990524292 0.0016751091461628675 
vn -7.588984914661326e-14 1.5674360990524292 0.0016751091461628675 
vn -7.588984914661326e-14 1.5674360990524292 0.0016751091461628675 
vn -7.588984914661326e-14 1.5674360990524292 0.0016751091461628675 
vn -7.588984914661326e-14 1.5674360990524292 0.0016751091461628675 
vn -7.588984914661326e-14 1.5674360990524292 0.0016751091461628675 
vn -7.588984914661326e-14 1.5674360990524292 0.0016751091461628675 
vn -7.588984914661326e-14 1.5674360990524292 0.0016751091461628675 
vn -7.588984914661326e-14 1.5674360990524292 0.0016751091461628675 
vn -7.588984914661326e-14 1.5674360990524292 0.0016751091461628675 
vn -7.588984914661326e-14 1.5674360990524292 0.0016751091461628675 
vn -7.588984914661326e-14 1.5674360990524292 0.0016751091461628675 
vn -0.7069082260131836 -0.42090657353401184 0.0016751091461628675 
vn -0.7069082260131836 -0.42090657353401184 0.0016751091461628675 
vn -0.7069082260131836 -0.42090657353401184 0.0016751091461628675 
vn -0.7069082260131836 -0.42090657353401184 0.0016751091461628675 
vn 0.7069082260131836 -0.42090657353401184 0.0016751091461628675 
vn 0.7069082260131836 -0.42090657353401184 0.0016751091461628675 
vn 0.7069082260131836 -0.42090657353401184 0.0016751091461628675 
vn 0.7069082260131836 -0.42090657353401184 0.0016751091461628675 
vn -0.489963173866272 -0.5245912075042725 0.5098928809165955 
vn -0.489963173866272 -0.5245912075042725 0.5098928809165955 
vn -0.489963173866272 -0.5245912075042725 0.5098928809165955 
vn -0.489963173866272 -0.5245912075042725 0.5098928809165955 
vn 0.4897792935371399 -0.5253740549087524 -0.5098928809165955 
vn 0.4897792935371399 -0.5253740549087524 -0.5098928809165955 
vn 0.4897792935371399 -0.5253740549087524 -0.5098928809165955 
vn 0.4897792935371399 -0.5253740549087524 -0.5098928809165955 
vn 6.101194582105313e-14 -0.4194483757019043 0.7387842535972595 
vn 6.101194582105313e-14 -0.4194483757019043 0.7387842535972595 
vn 6.101194582105313e-14 -0.4194483757019043 0.7387842535972595 
vn 6.101194582105313e-14 -0.4194483757019043 0.7387842535972595 
vn 0.002778981812298298 -0.41940635442733765 -0.7387842535972595 
vn 0.002778981812298298 -0.41940635442733765 -0.7387842535972595 
vn 0.002778981812298298 -0.41940635442733765 -0.7387842535972595 
vn 0.002778981812298298 -0.41940635442733765 -0.7387842535972595 
vn -0.48852860927581787 -0.5306594967842102 -0.5098928809165955 
vn -0.48852860927581787 -0.5306594967842102 -0.5098928809165955 
vn -0.48852860927581787 -0.5306594967842102 -0.5098928809165955 
vn -0.48852860927581787 -0.5306594967842102 -0.5098928809165955 
vn -7.588984914661326e-14 1.5674360990524292 0.0016751091461628675 
vn -7.588984914661326e-14 1.5674360990524292 0.0016751091461628675 
vn -7.588984914661326e-14 1.5674360990524292 0.0016751091461628675 
vn -7.588984914661326e-14 1.5674360990524292 0.0016751091461628675 
vn -7.588984914661326e-14 1.5674360990524292 0.0016751091461628675 
vn -7.588984914661326e-14 1.5674360990524292 0.0016751091461628675 
vn -7.588984914661326e-14 1.5674360990524292 0.0016751091461628675 
vn -7.588984914661326e-14 1.5674360990524292 0.0016751091461628675 
s on 
f 1//1 2//2 3//3 
f 2//2 4//4 3//3 
f 3//3 4//4 5//5 
f 4//4 6//6 5//5 
f 5//5 6//6 6//6 
f 6//6 2//2 6//6 
f 6//6 2//2 2//2 
f 2//2 7//7 2//2 
f 2//2 7//7 4//4 
f 7//7 4//4 4//4 
f 4//4 4//4 5//5 
f 4//4 5//5 5//5 
f 5//5 5//5 3//3 
f 5//5 8//8 3//3 
f 3//3 8//8 8//8 
f 8//8 9//9 8//8 
f 8//8 9//9 9//9 
f 9//9 10//10 9//9 
f 9//9 10//10 11//11 
f 10//10 12//12 11//11 
f 11//11 12//12 12//12 
f 12//12 13//13 12//12 
f 12//12 13//13 13//13 
f 13//13 14//14 13//13 
f 13//13 14//14 15//15 
f 14//14 16//16 15//15 
f 15//15 16//16 16//16 
f 16//16 17//17 16//16 
f 16//16 17//17 17//17 
f 17//17 18//18 17//17 
f 17//17 18//18 19//19 
f 18//18 20//20 19//19 
f 19//19 20//20 20//20 
f 20//20 21//21 20//20 
f 20//20 21//21 21//21 
f 21//21 22//22 21//21 
f 21//21 22//22 23//23 
f 22//22 24//24 23//23 
f 23//23 24//24 24//24 
f 24//24 25//25 24//24 
f 24//24 25//25 25//25 
f 25//25 26//26 25//25 
f 25//25 26//26 27//27 
f 26//26 28//28 27//27 
f 27//27 28//28 28//28 
f 28//28 29//29 28//28 
f 28//28 29//29 29//29 
f 29//29 30//30 29//29 
f 29//29 30//30 31//31 
f 30//30 32//32 31//31 
f 31//31 32//32 32//32 
f 32//32 33//33 32//32 
f 32//32 33//33 33//33 
f 33//33 34//34 33//33 
f 33//33 34//34 35//35 
f 34//34 36//36 35//35 
f 35//35 36//36 36//36 
f 36//36 37//37 36//36 
f 36//36 37//37 37//37 
f 37//37 38//38 37//37 
f 37//37 38//38 39//39 
f 38//38 40//40 39//39 
f 39//39 40//40 40//40 
f 40//40 41//41 40//40 
f 40//40 41//41 41//41 
f 41//41 42//42 41//41 
f 41//41 42//42 43//43 
f 42//42 44//44 43//43 
f 43//43 44//44 44//44 
f 44//44 45//45 44//44 
f 44//44 45//45 45//45 
f 45//45 46//46 45//45 
f 45//45 46//46 47//47 
f 46//46 48//48 47//47 
f 47//47 48//48 48//48 
f 48//48 49//49 48//48 
f 48//48 49//49 49//49 
f 49//49 50//50 49//49 
f 49//49 50//50 51//51 
f 50//50 52//52 51//51 
f 51//51 52//52 52//52 
f 52//52 53//53 52//52 
f 52//52 53//53 53//53 
f 53//53 54//54 53//53 
f 53//53 54//54 55//55 
f 54//54 56//56 55//55 
f 55//55 56//56 56//56 
f 56//56 57//57 56//56 
f 56//56 57//57 57//57 
f 57//57 58//58 57//57 
f 57//57 58//58 59//59 
f 58//58 60//60 59//59 
f 59//59 60//60 60//60 
f 60//60 61//61 60//60 
f 60//60 61//61 61//61 
f 61//61 62//62 61//61 
f 61//61 62//62 63//63 
f 62//62 64//64 63//63 
f 63//63 64//64 64//64 
f 64//64 65//65 64//64 
f 64//64 65//65 65//65 
f 65//65 66//66 65//65 
f 65//65 66//66 67//67 
f 66//66 68//68 67//67 
f 67//67 68//68 68//68 
f 68//68 69//69 68//68 
f 68//68 69//69 69//69 
f 69//69 70//70 69//69 
f 69//69 70//70 71//71 
f 70//70 72//72 71//71 
f 71//71 72//72 72//72 
f 72//72 73//73 72//72 
f 72//72 73//73 73//73 
f 73//73 74//74 73//73 
f 73//73 74//74 75//75 
f 74//74 76//76 75//75 
f 75//75 76//76 76//76 
f 76//76 77//77 76//76 
f 76//76 77//77 77//77 
f 77//77 78//78 77//77 
f 77//77 78//78 79//79 
f 78//78 80//80 79//79 
f 79//79 80//80 80//80 
f 80//80 81//81 80//80 
f 80//80 81//81 81//81 
f 81//81 82//82 81//81 
f 81//81 82//82 83//83 
f 82//82 84//84 83//83 
f 83//83 84//84 84//84 
f 84//84 85//85 84//84 
f 84//84 85//85 85//85 
f 85//85 86//86 85//85 
f 85//85 86//86 87//87 
f 86//86 88//88 87//87 
f 87//87 88//88 88//88 
f 88//88 89//89 88//88 
f 88//88 89//89 89//89 
f 89//89 90//90 89//89 
f 89//89 90//90 91//91 
f 90//90 92//92 91//91 
f 91//91 92//92 92//92 
f 92//92 93//93 92//92 
f 92//92 93//93 93//93 
f 93//93 94//94 93//93 
f 93//93 94//94 95//95 
f 94//94 96//96 95//95 
f 95//95 96//96 96//96 
f 96//96 97//97 96//96 
f 96//96 97//97 97//97 
f 97//97 98//98 97//97 
f 97//97 98//98 99//99 
f 98//98 100//100 99//99 
f 99//99 100//100 100//100 
f 100//100 101//101 100//100 
f 100//100 101//101 101//101 
f 101//101 102//102 101//101 
f 101//101 102//102 103//103 
f 102//102 104//104 103//103 
f 103//103 104//104 104//104 
f 104//104 105//105 104//104 
f 104//104 105//105 105//105 
f 105//105 106//106 105//105 
f 105//105 106//106 107//107 
f 106//106 108//108 107//107 
f 107//107 108//108 109//109 
f 108//108 110//110 109//109 
f 109//109 110//110 110//110 
f 110//110 106//106 110//110 
f 110//110 106//106 106//106 
f 106//106 111//111 106//106 
f 106//106 111//111 108//108 
f 111//111 108//108 108//108 
f 108//108 108//108 109//109 
f 108//108 109//109 109//109 
f 109//109 109//109 107//107 
f 109//109 112//112 107//107 

