mtllib model_65.mtl
o model_65
v -2.5353283882141113 5.115473747253418 14.311890602111816 
v -2.535329580307007 5.115473747253418 16.8056640625 
v -2.5353283882141113 4.8121418952941895 14.311890602111816 
v -2.535329580307007 4.8121418952941895 16.8056640625 
v -4.340485572814941 5.115473747253418 14.06709098815918 
v -2.6966676712036133 5.115473747253418 14.067091941833496 
v -4.340485572814941 4.8121418952941895 14.06709098815918 
v -2.6966676712036133 4.8121418952941895 14.067091941833496 
v -4.318037509918213 5.115473747253418 16.69014549255371 
v -4.318037509918213 4.964734077453613 16.69014549255371 
v -4.3180365562438965 5.115473747253418 14.427324295043945 
v -4.3180365562438965 4.964734077453613 14.427324295043945 
v -2.696669340133667 5.115473747253418 17.05038070678711 
v -4.340487003326416 5.115473747253418 17.050378799438477 
v -2.696669340133667 4.8121418952941895 17.05038070678711 
v -4.340487003326416 4.8121418952941895 17.050378799438477 
v -4.501896381378174 5.115473747253418 16.8056640625 
v -4.501894950866699 5.115473747253418 14.3118896484375 
v -4.501896381378174 4.8121418952941895 16.8056640625 
v -4.501894950866699 4.8121418952941895 14.3118896484375 
v -2.535329580307007 5.115473747253418 16.8056640625 
v -2.696669340133667 5.115473747253418 17.05038070678711 
v -2.535329580307007 4.8121418952941895 16.8056640625 
v -2.696669340133667 4.8121418952941895 17.05038070678711 
v -4.501896381378174 4.8121418952941895 16.8056640625 
v -4.340487003326416 4.8121418952941895 17.050378799438477 
v -4.501896381378174 5.115473747253418 16.8056640625 
v -4.340487003326416 5.115473747253418 17.050378799438477 
v -4.340485572814941 4.8121418952941895 14.06709098815918 
v -4.501894950866699 4.8121418952941895 14.3118896484375 
v -4.340485572814941 5.115473747253418 14.06709098815918 
v -4.501894950866699 5.115473747253418 14.3118896484375 
v -2.5353283882141113 4.8121418952941895 14.311890602111816 
v -2.6966676712036133 4.8121418952941895 14.067091941833496 
v -2.5353283882141113 5.115473747253418 14.311890602111816 
v -2.6966676712036133 5.115473747253418 14.067091941833496 
v -4.340487003326416 4.8121418952941895 17.050378799438477 
v -4.501896381378174 4.8121418952941895 16.8056640625 
v -2.696669340133667 4.8121418952941895 17.05038070678711 
v -4.340485572814941 4.8121418952941895 14.06709098815918 
v -2.5353283882141113 4.8121418952941895 14.311890602111816 
v -2.6966676712036133 4.8121418952941895 14.067091941833496 
v -4.501894950866699 4.8121418952941895 14.3118896484375 
v -2.535329580307007 4.8121418952941895 16.8056640625 
v -2.7191169261932373 5.115473747253418 14.427325248718262 
v -2.7191169261932373 4.964734077453613 14.427325248718262 
v -2.719118118286133 5.115473747253418 16.690147399902344 
v -2.719118118286133 4.964734077453613 16.690147399902344 
v -2.772826910018921 5.115473747253418 14.34592056274414 
v -2.772826910018921 4.964734077453613 14.34592056274414 
v -2.7191169261932373 5.115473747253418 14.427325248718262 
v -2.7191169261932373 4.964734077453613 14.427325248718262 
v -4.264397621154785 5.115473747253418 16.77155113220215 
v -4.264397621154785 4.964734077453613 16.77155113220215 
v -4.318037509918213 5.115473747253418 16.69014549255371 
v -4.318037509918213 4.964734077453613 16.69014549255371 
v -4.264396667480469 5.115473747253418 14.345919609069824 
v -4.264396667480469 4.964734077453613 14.345919609069824 
v -2.772826910018921 5.115473747253418 14.34592056274414 
v -2.772826910018921 4.964734077453613 14.34592056274414 
v -2.7728281021118164 5.115473747253418 16.77155113220215 
v -2.7728281021118164 4.964734077453613 16.77155113220215 
v -4.264397621154785 5.115473747253418 16.77155113220215 
v -4.264397621154785 4.964734077453613 16.77155113220215 
v -4.3180365562438965 5.115473747253418 14.427324295043945 
v -4.3180365562438965 4.964734077453613 14.427324295043945 
v -4.264396667480469 5.115473747253418 14.345919609069824 
v -4.264396667480469 4.964734077453613 14.345919609069824 
v -2.719118118286133 5.115473747253418 16.690147399902344 
v -2.719118118286133 4.964734077453613 16.690147399902344 
v -2.7728281021118164 5.115473747253418 16.77155113220215 
v -2.7728281021118164 4.964734077453613 16.77155113220215 
v -2.410635471343994 5.115979194641113 16.320571899414062 
v -2.607152223587036 5.115979194641113 16.269359588623047 
v -2.410635471343994 4.829152584075928 16.320571899414062 
v -2.607152223587036 4.829152584075928 16.269359588623047 
v -2.607152223587036 5.115979194641113 16.269359588623047 
v -2.607151508331299 5.115979194641113 14.848111152648926 
v -2.607152223587036 4.829152584075928 16.269359588623047 
v -2.607151508331299 4.829152584075928 14.848111152648926 
v -2.410634756088257 5.115979194641113 14.796899795532227 
v -2.283773183822632 5.115979194641113 14.895820617675781 
v -2.410634756088257 4.829152584075928 14.796899795532227 
v -2.283773183822632 4.829152584075928 14.895820617675781 
v -2.283773183822632 5.115979194641113 14.895820617675781 
v -2.28377366065979 5.115979194641113 16.221651077270508 
v -2.283773183822632 4.829152584075928 14.895820617675781 
v -2.28377366065979 4.829152584075928 16.221651077270508 
v -2.28377366065979 4.829152584075928 16.221651077270508 
v -2.410635471343994 4.829152584075928 16.320571899414062 
v -2.283773183822632 4.829152584075928 14.895820617675781 
v -2.410634756088257 4.829152584075928 14.796899795532227 
v -2.607152223587036 4.829152584075928 16.269359588623047 
v -2.607151508331299 4.829152584075928 14.848111152648926 
v -2.607151508331299 5.115979194641113 14.848111152648926 
v -2.607151508331299 4.829152584075928 14.848111152648926 
v -2.410634756088257 5.115979194641113 14.796899795532227 
v -2.410634756088257 4.829152584075928 14.796899795532227 
v -2.28377366065979 5.115979194641113 16.221651077270508 
v -2.28377366065979 4.829152584075928 16.221651077270508 
v -2.410635471343994 5.115979194641113 16.320571899414062 
v -2.410635471343994 4.829152584075928 16.320571899414062 
v -2.303354501724243 1.5763747692108154 14.299379348754883 
v -2.303354501724243 1.3676971197128296 14.299379348754883 
v -2.3033559322357178 1.5763747692108154 16.818092346191406 
v -2.3033559322357178 1.3676971197128296 16.818092346191406 
v -4.390419006347656 1.5763747692108154 13.98351764678955 
v -4.390419006347656 1.3676971197128296 13.98351764678955 
v -2.5650503635406494 1.5763747692108154 13.983518600463867 
v -2.5650503635406494 1.3676971197128296 13.983518600463867 
v -2.565052032470703 1.5763747692108154 17.133953094482422 
v -2.565052032470703 1.3676971197128296 17.133953094482422 
v -4.390420436859131 1.5763747692108154 17.133953094482422 
v -4.390420436859131 1.3676971197128296 17.133953094482422 
v -4.652116298675537 1.5763747692108154 16.818092346191406 
v -4.652116298675537 1.3676971197128296 16.818092346191406 
v -4.6521148681640625 1.5763747692108154 14.299378395080566 
v -4.6521148681640625 1.3676971197128296 14.299378395080566 
v -2.3033559322357178 1.5763747692108154 16.818092346191406 
v -2.3033559322357178 1.3676971197128296 16.818092346191406 
v -2.565052032470703 1.5763747692108154 17.133953094482422 
v -2.565052032470703 1.3676971197128296 17.133953094482422 
v -4.652116298675537 1.3676971197128296 16.818092346191406 
v -4.652116298675537 1.5763747692108154 16.818092346191406 
v -4.390420436859131 1.3676971197128296 17.133953094482422 
v -4.390420436859131 1.5763747692108154 17.133953094482422 
v -4.390419006347656 1.3676971197128296 13.98351764678955 
v -4.390419006347656 1.5763747692108154 13.98351764678955 
v -4.6521148681640625 1.3676971197128296 14.299378395080566 
v -4.6521148681640625 1.5763747692108154 14.299378395080566 
v -2.303354501724243 1.3676971197128296 14.299379348754883 
v -2.303354501724243 1.5763747692108154 14.299379348754883 
v -2.5650503635406494 1.3676971197128296 13.983518600463867 
v -2.5650503635406494 1.5763747692108154 13.983518600463867 
vn 1.173043966293335 0 5.932831754762447e-7 
vn 1.173043966293335 0 5.932831754762447e-7 
vn 1.173043966293335 0 5.932831754762447e-7 
vn 1.173043966293335 0 5.932831754762447e-7 
vn 0.0025631177704781294 0 -0.7427581548690796 
vn 0.0025631177704781294 0 -0.7427581548690796 
vn 0.0025631177704781294 0 -0.7427581548690796 
vn 0.0025631177704781294 0 -0.7427581548690796 
vn 1.173043966293335 0 5.932831754762447e-7 
vn 1.173043966293335 0 5.932831754762447e-7 
vn 1.173043966293335 0 5.932831754762447e-7 
vn 1.173043966293335 0 5.932831754762447e-7 
vn 0.002562366658821702 -1.239393787252907e-13 0.7427581548690796 
vn 0.002562366658821702 -1.239393787252907e-13 0.7427581548690796 
vn 0.002562366658821702 -1.239393787252907e-13 0.7427581548690796 
vn 0.002562366658821702 -1.239393787252907e-13 0.7427581548690796 
vn -1.173043966293335 0 -5.932830049459881e-7 
vn -1.173043966293335 0 -5.932830049459881e-7 
vn -1.173043966293335 0 -5.932830049459881e-7 
vn -1.173043966293335 0 -5.932830049459881e-7 
vn 0.8139217495918274 -8.925083166012177e-14 0.5348730087280273 
vn 0.8139217495918274 -8.925083166012177e-14 0.5348730087280273 
vn 0.8139217495918274 -8.925083166012177e-14 0.5348730087280273 
vn 0.8139217495918274 -8.925083166012177e-14 0.5348730087280273 
vn -0.8139222860336304 0.002263258909806609 0.5348648428916931 
vn -0.8139222860336304 0.002263258909806609 0.5348648428916931 
vn -0.8139222860336304 0.002263258909806609 0.5348648428916931 
vn -0.8139222860336304 0.002263258909806609 0.5348648428916931 
vn -0.8139217495918274 0 -0.5348730087280273 
vn -0.8139217495918274 0 -0.5348730087280273 
vn -0.8139217495918274 0 -0.5348730087280273 
vn -0.8139217495918274 0 -0.5348730087280273 
vn 0.8139222860336304 0 -0.5348721742630005 
vn 0.8139222860336304 0 -0.5348721742630005 
vn 0.8139222860336304 0 -0.5348721742630005 
vn 0.8139222860336304 0 -0.5348721742630005 
vn 0.0025627422146499157 -0.5992531180381775 1.29591215536351e-9 
vn 0.0025627422146499157 -0.5992531180381775 1.29591215536351e-9 
vn 0.0025627422146499157 -0.5992531180381775 1.29591215536351e-9 
vn 0.0025627422146499157 -0.5992531180381775 1.29591215536351e-9 
vn 0.0025627422146499157 -0.5992531180381775 1.29591215536351e-9 
vn 0.0025627422146499157 -0.5992531180381775 1.29591215536351e-9 
vn 0.0025627422146499157 -0.5992531180381775 1.29591215536351e-9 
vn 0.0025627422146499157 -0.5992531180381775 1.29591215536351e-9 
vn -1.173043966293335 0 -5.932830049459881e-7 
vn -1.173043966293335 0 -5.932830049459881e-7 
vn -1.173043966293335 0 -5.932830049459881e-7 
vn -1.173043966293335 0 -5.932830049459881e-7 
vn -0.8139222860336304 0.002263258909806609 0.5348648428916931 
vn -0.8139222860336304 0.002263258909806609 0.5348648428916931 
vn -0.8139222860336304 0.002263258909806609 0.5348648428916931 
vn -0.8139222860336304 0.002263258909806609 0.5348648428916931 
vn 0.8139222860336304 0 -0.5348721742630005 
vn 0.8139222860336304 0 -0.5348721742630005 
vn 0.8139222860336304 0 -0.5348721742630005 
vn 0.8139222860336304 0 -0.5348721742630005 
vn 0.002562366658821702 -1.239393787252907e-13 0.7427581548690796 
vn 0.002562366658821702 -1.239393787252907e-13 0.7427581548690796 
vn 0.002562366658821702 -1.239393787252907e-13 0.7427581548690796 
vn 0.002562366658821702 -1.239393787252907e-13 0.7427581548690796 
vn 0.0025631177704781294 0 -0.7427581548690796 
vn 0.0025631177704781294 0 -0.7427581548690796 
vn 0.0025631177704781294 0 -0.7427581548690796 
vn 0.0025631177704781294 0 -0.7427581548690796 
vn 0.8139217495918274 -8.925083166012177e-14 0.5348730087280273 
vn 0.8139217495918274 -8.925083166012177e-14 0.5348730087280273 
vn 0.8139217495918274 -8.925083166012177e-14 0.5348730087280273 
vn 0.8139217495918274 -8.925083166012177e-14 0.5348730087280273 
vn -0.8139217495918274 0 -0.5348730087280273 
vn -0.8139217495918274 0 -0.5348730087280273 
vn -0.8139217495918274 0 -0.5348730087280273 
vn -0.8139217495918274 0 -0.5348730087280273 
vn -0.19134730100631714 0.002262355526909232 0.7328061461448669 
vn -0.19134730100631714 0.002262355526909232 0.7328061461448669 
vn -0.19134730100631714 0.002262355526909232 0.7328061461448669 
vn -0.19134730100631714 0.002262355526909232 0.7328061461448669 
vn -1.173043966293335 0 -5.932830049459881e-7 
vn -1.173043966293335 0 -5.932830049459881e-7 
vn -1.173043966293335 0 -5.932830049459881e-7 
vn -1.173043966293335 0 -5.932830049459881e-7 
vn 0.5171957015991211 0 -0.6666684746742249 
vn 0.5171957015991211 0 -0.6666684746742249 
vn 0.5171957015991211 0 -0.6666684746742249 
vn 0.5171957015991211 0 -0.6666684746742249 
vn 1.173043966293335 0 5.932831754762447e-7 
vn 1.173043966293335 0 5.932831754762447e-7 
vn 1.173043966293335 0 5.932831754762447e-7 
vn 1.173043966293335 0 5.932831754762447e-7 
vn 0.0025627422146499157 -0.5992531180381775 1.29591215536351e-9 
vn 0.0025627422146499157 -0.5992531180381775 1.29591215536351e-9 
vn 0.0025627422146499157 -0.5992531180381775 1.29591215536351e-9 
vn 0.0025627422146499157 -0.5992531180381775 1.29591215536351e-9 
vn 0.0025627422146499157 -0.5992531180381775 1.29591215536351e-9 
vn 0.0025627422146499157 -0.5992531180381775 1.29591215536351e-9 
vn -0.19134655594825745 0 -0.732811689376831 
vn -0.19134655594825745 0 -0.732811689376831 
vn -0.19134655594825745 0 -0.732811689376831 
vn -0.19134655594825745 0 -0.732811689376831 
vn 0.5171950459480286 0.0022620433010160923 0.6666630506515503 
vn 0.5171950459480286 0.0022620433010160923 0.6666630506515503 
vn 0.5171950459480286 0.0022620433010160923 0.6666630506515503 
vn 0.5171950459480286 0.0022620433010160923 0.6666630506515503 
vn 1.173043966293335 0 5.932831754762447e-7 
vn 1.173043966293335 0 5.932831754762447e-7 
vn 1.173043966293335 0 5.932831754762447e-7 
vn 1.173043966293335 0 5.932831754762447e-7 
vn 0.0025631177704781294 0 -0.7427581548690796 
vn 0.0025631177704781294 0 -0.7427581548690796 
vn 0.0025631177704781294 0 -0.7427581548690796 
vn 0.0025631177704781294 0 -0.7427581548690796 
vn 0.002562366658821702 -1.239393787252907e-13 0.7427581548690796 
vn 0.002562366658821702 -1.239393787252907e-13 0.7427581548690796 
vn 0.002562366658821702 -1.239393787252907e-13 0.7427581548690796 
vn 0.002562366658821702 -1.239393787252907e-13 0.7427581548690796 
vn -1.173043966293335 0 -5.932830049459881e-7 
vn -1.173043966293335 0 -5.932830049459881e-7 
vn -1.173043966293335 0 -5.932830049459881e-7 
vn -1.173043966293335 0 -5.932830049459881e-7 
vn 0.7129170298576355 -9.842403584855997e-14 0.589847207069397 
vn 0.7129170298576355 -9.842403584855997e-14 0.589847207069397 
vn 0.7129170298576355 -9.842403584855997e-14 0.589847207069397 
vn 0.7129170298576355 -9.842403584855997e-14 0.589847207069397 
vn -0.7129176259040833 -9.842403584855997e-14 0.5898464918136597 
vn -0.7129176259040833 -9.842403584855997e-14 0.5898464918136597 
vn -0.7129176259040833 -9.842403584855997e-14 0.5898464918136597 
vn -0.7129176259040833 -9.842403584855997e-14 0.5898464918136597 
vn -0.7129170298576355 0 -0.589847207069397 
vn -0.7129170298576355 0 -0.589847207069397 
vn -0.7129170298576355 0 -0.589847207069397 
vn -0.7129170298576355 0 -0.589847207069397 
vn 0.7129176259040833 0 -0.5898464918136597 
vn 0.7129176259040833 0 -0.5898464918136597 
vn 0.7129176259040833 0 -0.5898464918136597 
vn 0.7129176259040833 0 -0.5898464918136597 
s on 
f 1//1 2//2 3//3 
f 2//2 4//4 3//3 
f 3//3 4//4 4//4 
f 4//4 5//5 4//4 
f 4//4 5//5 5//5 
f 5//5 6//6 5//5 
f 5//5 6//6 7//7 
f 6//6 8//8 7//7 
f 7//7 8//8 8//8 
f 8//8 9//9 8//8 
f 8//8 9//9 9//9 
f 9//9 10//10 9//9 
f 9//9 10//10 11//11 
f 10//10 12//12 11//11 
f 11//11 12//12 12//12 
f 12//12 13//13 12//12 
f 12//12 13//13 13//13 
f 13//13 14//14 13//13 
f 13//13 14//14 15//15 
f 14//14 16//16 15//15 
f 15//15 16//16 16//16 
f 16//16 17//17 16//16 
f 16//16 17//17 17//17 
f 17//17 18//18 17//17 
f 17//17 18//18 19//19 
f 18//18 20//20 19//19 
f 19//19 20//20 20//20 
f 20//20 21//21 20//20 
f 20//20 21//21 21//21 
f 21//21 22//22 21//21 
f 21//21 22//22 23//23 
f 22//22 24//24 23//23 
f 23//23 24//24 24//24 
f 24//24 25//25 24//24 
f 24//24 25//25 25//25 
f 25//25 26//26 25//25 
f 25//25 26//26 27//27 
f 26//26 28//28 27//27 
f 27//27 28//28 28//28 
f 28//28 29//29 28//28 
f 28//28 29//29 29//29 
f 29//29 30//30 29//29 
f 29//29 30//30 31//31 
f 30//30 32//32 31//31 
f 31//31 32//32 32//32 
f 32//32 33//33 32//32 
f 32//32 33//33 33//33 
f 33//33 34//34 33//33 
f 33//33 34//34 35//35 
f 34//34 36//36 35//35 
f 35//35 36//36 36//36 
f 36//36 37//37 36//36 
f 36//36 37//37 37//37 
f 37//37 38//38 37//37 
f 37//37 38//38 39//39 
f 38//38 40//40 39//39 
f 39//39 40//40 41//41 
f 40//40 42//42 41//41 
f 41//41 42//42 42//42 
f 42//42 38//38 42//42 
f 42//42 38//38 38//38 
f 38//38 43//43 38//38 
f 38//38 43//43 40//40 
f 43//43 40//40 40//40 
f 40//40 40//40 41//41 
f 40//40 41//41 41//41 
f 41//41 41//41 39//39 
f 41//41 44//44 39//39 
f 39//39 44//44 44//44 
f 44//44 45//45 44//44 
f 44//44 45//45 45//45 
f 45//45 46//46 45//45 
f 45//45 46//46 47//47 
f 46//46 48//48 47//47 
f 47//47 48//48 48//48 
f 48//48 49//49 48//48 
f 48//48 49//49 49//49 
f 49//49 50//50 49//49 
f 49//49 50//50 51//51 
f 50//50 52//52 51//51 
f 51//51 52//52 52//52 
f 52//52 53//53 52//52 
f 52//52 53//53 53//53 
f 53//53 54//54 53//53 
f 53//53 54//54 55//55 
f 54//54 56//56 55//55 
f 55//55 56//56 56//56 
f 56//56 57//57 56//56 
f 56//56 57//57 57//57 
f 57//57 58//58 57//57 
f 57//57 58//58 59//59 
f 58//58 60//60 59//59 
f 59//59 60//60 60//60 
f 60//60 61//61 60//60 
f 60//60 61//61 61//61 
f 61//61 62//62 61//61 
f 61//61 62//62 63//63 
f 62//62 64//64 63//63 
f 63//63 64//64 64//64 
f 64//64 65//65 64//64 
f 64//64 65//65 65//65 
f 65//65 66//66 65//65 
f 65//65 66//66 67//67 
f 66//66 68//68 67//67 
f 67//67 68//68 68//68 
f 68//68 69//69 68//68 
f 68//68 69//69 69//69 
f 69//69 70//70 69//69 
f 69//69 70//70 71//71 
f 70//70 72//72 71//71 
f 71//71 72//72 72//72 
f 72//72 73//73 72//72 
f 72//72 73//73 73//73 
f 73//73 74//74 73//73 
f 73//73 74//74 75//75 
f 74//74 76//76 75//75 
f 75//75 76//76 76//76 
f 76//76 77//77 76//76 
f 76//76 77//77 77//77 
f 77//77 78//78 77//77 
f 77//77 78//78 79//79 
f 78//78 80//80 79//79 
f 79//79 80//80 80//80 
f 80//80 81//81 80//80 
f 80//80 81//81 81//81 
f 81//81 82//82 81//81 
f 81//81 82//82 83//83 
f 82//82 84//84 83//83 
f 83//83 84//84 84//84 
f 84//84 85//85 84//84 
f 84//84 85//85 85//85 
f 85//85 86//86 85//85 
f 85//85 86//86 87//87 
f 86//86 88//88 87//87 
f 87//87 88//88 88//88 
f 88//88 89//89 88//88 
f 88//88 89//89 89//89 
f 89//89 90//90 89//89 
f 89//89 90//90 91//91 
f 90//90 90//90 91//91 
f 91//91 90//90 92//92 
f 90//90 93//93 92//92 
f 92//92 93//93 94//94 
f 93//93 94//94 94//94 
f 94//94 94//94 95//95 
f 94//94 95//95 95//95 
f 95//95 95//95 96//96 
f 95//95 97//97 96//96 
f 96//96 97//97 98//98 
f 97//97 98//98 98//98 
f 98//98 98//98 99//99 
f 98//98 99//99 99//99 
f 99//99 99//99 100//100 
f 99//99 101//101 100//100 
f 100//100 101//101 102//102 
f 101//101 102//102 102//102 
f 102//102 102//102 103//103 
f 102//102 103//103 103//103 
f 103//103 103//103 104//104 
f 103//103 105//105 104//104 
f 104//104 105//105 106//106 
f 105//105 106//106 106//106 
f 106//106 106//106 107//107 
f 106//106 107//107 107//107 
f 107//107 107//107 108//108 
f 107//107 109//109 108//108 
f 108//108 109//109 110//110 
f 109//109 110//110 110//110 
f 110//110 110//110 111//111 
f 110//110 111//111 111//111 
f 111//111 111//111 112//112 
f 111//111 113//113 112//112 
f 112//112 113//113 114//114 
f 113//113 114//114 114//114 
f 114//114 114//114 115//115 
f 114//114 115//115 115//115 
f 115//115 115//115 116//116 
f 115//115 117//117 116//116 
f 116//116 117//117 118//118 
f 117//117 118//118 118//118 
f 118//118 118//118 119//119 
f 118//118 119//119 119//119 
f 119//119 119//119 120//120 
f 119//119 121//121 120//120 
f 120//120 121//121 122//122 
f 121//121 122//122 122//122 
f 122//122 122//122 123//123 
f 122//122 123//123 123//123 
f 123//123 123//123 124//124 
f 123//123 125//125 124//124 
f 124//124 125//125 126//126 
f 125//125 126//126 126//126 
f 126//126 126//126 127//127 
f 126//126 127//127 127//127 
f 127//127 127//127 128//128 
f 127//127 129//129 128//128 
f 128//128 129//129 130//130 
f 129//129 130//130 130//130 
f 130//130 130//130 131//131 
f 130//130 131//131 131//131 
f 131//131 131//131 132//132 
f 131//131 133//133 132//132 
f 132//132 133//133 134//134 

