mtllib model_66.mtl
o model_66
v -4.264402389526367 4.964744567871094 14.345917701721191 
v -4.318042278289795 4.964744567871094 14.427322387695312 
v -2.7728326320648193 4.964744567871094 14.345917701721191 
v -4.264403343200684 4.964744567871094 16.771549224853516 
v -2.7191240787506104 4.964744567871094 16.69014549255371 
v -2.772833824157715 4.964744567871094 16.771549224853516 
v -4.318043231964111 4.964744567871094 16.690143585205078 
v -2.719122886657715 4.964744567871094 14.427323341369629 
vn 0.0025627422146499157 0.5992531180381775 1.2962191320298189e-9 
vn 0.0025627422146499157 0.5992531180381775 1.2962191320298189e-9 
vn 0.0025627422146499157 0.5992531180381775 1.2962191320298189e-9 
vn 0.0025627422146499157 0.5992531180381775 1.2962191320298189e-9 
vn 0.0025627422146499157 0.5992531180381775 1.2962191320298189e-9 
vn 0.0025627422146499157 0.5992531180381775 1.2962191320298189e-9 
vn 0.0025627422146499157 0.5992531180381775 1.2962191320298189e-9 
vn 0.0025627422146499157 0.5992531180381775 1.2962191320298189e-9 
s on 
f 1//1 2//2 3//3 
f 2//2 4//4 3//3 
f 3//3 4//4 5//5 
f 4//4 6//6 5//5 
f 5//5 6//6 6//6 
f 6//6 2//2 6//6 
f 6//6 2//2 2//2 
f 2//2 7//7 2//2 
f 2//2 7//7 4//4 
f 7//7 4//4 4//4 
f 4//4 4//4 5//5 
f 4//4 5//5 5//5 
f 5//5 5//5 3//3 
f 5//5 8//8 3//3 

