mtllib model_68.mtl
o model_68
v -2.5987603664398193 1.3677006959915161 14.067757606506348 
v -2.5987603664398193 0.08498156815767288 14.067757606506348 
v -4.35664176940918 1.3677006959915161 14.067756652832031 
v -4.35664176940918 0.08498156815767288 14.067756652832031 
v -4.356643199920654 1.3677006959915161 17.04970932006836 
v -4.356643199920654 0.08498156815767288 17.04970932006836 
v -2.598762035369873 1.3677006959915161 17.049711227416992 
v -2.598762035369873 0.08498156815767288 17.049711227416992 
v -4.35664176940918 1.3677006959915161 14.067756652832031 
v -4.35664176940918 0.08498156815767288 14.067756652832031 
v -4.584069728851318 1.3677006959915161 14.342081069946289 
v -4.584069728851318 0.08498156815767288 14.342081069946289 
v -2.598762035369873 1.3677006959915161 17.049711227416992 
v -2.598762035369873 0.08498156815767288 17.049711227416992 
v -2.371403694152832 1.3677006959915161 16.775386810302734 
v -2.371403694152832 0.08498156815767288 16.775386810302734 
v -2.3714027404785156 0.08498156815767288 15.070555686950684 
v -2.3714025020599365 0.08498156815767288 14.342082023620605 
v -2.3714027404785156 1.3520373106002808 15.070555686950684 
v -2.3714025020599365 1.3677006959915161 14.342082023620605 
v -2.371403694152832 1.3677006959915161 16.775386810302734 
v -2.371403217315674 1.3520373106002808 16.046913146972656 
v -2.371403217315674 0.08498156815767288 16.046913146972656 
v -2.371403694152832 0.08498156815767288 16.775386810302734 
v -4.584069728851318 1.3677006959915161 14.342081069946289 
v -4.584069728851318 0.08498156815767288 14.342081069946289 
v -4.584071159362793 1.3677006959915161 16.7753849029541 
v -4.584071159362793 0.08498156815767288 16.7753849029541 
v -2.3714025020599365 1.3677006959915161 14.342082023620605 
v -2.3714025020599365 0.08498156815767288 14.342082023620605 
v -2.5987603664398193 1.3677006959915161 14.067757606506348 
v -2.5987603664398193 0.08498156815767288 14.067757606506348 
v -4.584071159362793 1.3677006959915161 16.7753849029541 
v -4.584071159362793 0.08498156815767288 16.7753849029541 
v -4.356643199920654 1.3677006959915161 17.04970932006836 
v -4.356643199920654 0.08498156815767288 17.04970932006836 
v -3.35664439201355 1.3520373106002808 15.070554733276367 
v -3.356644868850708 1.3520373106002808 16.046913146972656 
v -3.35664439201355 0.08498156815767288 15.070554733276367 
v -3.356644868850708 0.08498156815767288 16.046913146972656 
v -3.35664439201355 1.3520373106002808 15.070554733276367 
v -3.35664439201355 0.08498156815767288 15.070554733276367 
v -2.3714027404785156 1.3520373106002808 15.070555686950684 
v -2.3714027404785156 0.08498156815767288 15.070555686950684 
v -3.169429063796997 0.08515005558729172 15.085651397705078 
v -3.169429063796997 0.2308369278907776 15.085651397705078 
v -2.3014681339263916 0.08515005558729172 15.085651397705078 
v -2.3014681339263916 0.2308369278907776 15.085651397705078 
v -2.151387929916382 0.08515005558729172 15.085652351379395 
v -2.151387929916382 0.2308369278907776 15.085652351379395 
v -2.001377820968628 0.08515005558729172 15.085652351379395 
v -2.001377820968628 0.2308369278907776 15.085652351379395 
v -1.8512977361679077 0.08515005558729172 15.085652351379395 
v -1.8512977361679077 0.2308369278907776 15.085652351379395 
v -3.169429063796997 0.37635549902915955 15.085651397705078 
v -2.3014681339263916 0.37635549902915955 15.085651397705078 
v -2.151387929916382 0.37635549902915955 15.085652351379395 
v -2.001377820968628 0.37635549902915955 15.085652351379395 
v -3.169429063796997 0.5220425724983215 15.085651397705078 
v -2.3014681339263916 0.5220425724983215 15.085651397705078 
v -2.151387929916382 0.5220425724983215 15.085652351379395 
v -3.1694295406341553 0.08515005558729172 16.031816482543945 
v -2.30146861076355 0.2308369278907776 16.031816482543945 
v -3.1694295406341553 0.2308369278907776 16.031816482543945 
v -2.30146861076355 0.37635549902915955 16.031816482543945 
v -2.30146861076355 0.08515005558729172 16.031816482543945 
v -2.15138840675354 0.2308369278907776 16.031816482543945 
v -2.15138840675354 0.08515005558729172 16.031816482543945 
v -2.001378297805786 0.2308369278907776 16.031816482543945 
v -2.001378297805786 0.08515005558729172 16.031816482543945 
v -1.851298213005066 0.2308369278907776 16.031816482543945 
v -1.851298213005066 0.08515005558729172 16.031816482543945 
v -2.001378297805786 0.37635549902915955 16.031816482543945 
v -2.15138840675354 0.37635549902915955 16.031816482543945 
v -2.15138840675354 0.5220425724983215 16.031816482543945 
v -2.30146861076355 0.5220425724983215 16.031816482543945 
v -3.1694295406341553 0.37635549902915955 16.031816482543945 
v -3.1694295406341553 0.5220425724983215 16.031816482543945 
v -4.087323188781738 5.2441534996032715 14.99415397644043 
v -3.9934709072113037 5.2441534996032715 15.18915843963623 
v -3.9934706687927246 5.2441534996032715 14.799232482910156 
v -3.7825474739074707 5.2441534996032715 15.237284660339355 
v -3.613374948501587 5.2441534996032715 14.88597583770752 
v -3.613375186920166 5.2441534996032715 15.10233211517334 
v -3.7825472354888916 5.2441534996032715 14.751107215881348 
v -3.613374948501587 5.5816755294799805 14.88597583770752 
v -3.535048007965088 5.5816755294799805 14.848276138305664 
v -3.613375186920166 5.5816755294799805 15.10233211517334 
v -3.535048246383667 5.5816755294799805 15.140115737915039 
v -3.7825474739074707 5.5816755294799805 15.237284660339355 
v -3.7631754875183105 5.5816755294799805 15.322025299072266 
v -3.9934709072113037 5.5816755294799805 15.18915843963623 
v -4.047670364379883 5.5816755294799805 15.257135391235352 
v -4.087323188781738 5.5816755294799805 14.99415397644043 
v -4.174322128295898 5.5816755294799805 14.99415397644043 
v -3.7631752490997314 5.5816755294799805 14.666365623474121 
v -3.7825472354888916 5.5816755294799805 14.751107215881348 
v -4.047669887542725 5.5816755294799805 14.731256484985352 
v -3.9934706687927246 5.5816755294799805 14.799232482910156 
v -4.174322128295898 5.5816755294799805 14.99415397644043 
v -4.087323188781738 5.5816755294799805 14.99415397644043 
v -3.7825472354888916 5.5816755294799805 14.751107215881348 
v -3.7631752490997314 5.5816755294799805 14.666365623474121 
v -3.613374948501587 5.5816755294799805 14.88597583770752 
v -3.535048007965088 5.5816755294799805 14.848276138305664 
v -3.7631754875183105 5.5816755294799805 15.322025299072266 
v -3.7631754875183105 5.6327080726623535 15.322025299072266 
v -4.047670364379883 5.5816755294799805 15.257135391235352 
v -4.047670364379883 5.6327080726623535 15.257135391235352 
v -3.535048007965088 5.5816755294799805 14.848276138305664 
v -3.535048007965088 5.6327080726623535 14.848276138305664 
v -3.535048246383667 5.5816755294799805 15.140115737915039 
v -3.535048246383667 5.6327080726623535 15.140115737915039 
v -4.047669887542725 5.5816755294799805 14.731256484985352 
v -4.047669887542725 5.6327080726623535 14.731256484985352 
v -3.7631752490997314 5.5816755294799805 14.666365623474121 
v -3.7631752490997314 5.6327080726623535 14.666365623474121 
v -4.047670364379883 5.5816755294799805 15.257135391235352 
v -4.047670364379883 5.6327080726623535 15.257135391235352 
v -4.174322128295898 5.5816755294799805 14.99415397644043 
v -4.174322128295898 5.6327080726623535 14.99415397644043 
v -3.535048246383667 5.5816755294799805 15.140115737915039 
v -3.535048246383667 5.6327080726623535 15.140115737915039 
v -3.7631754875183105 5.5816755294799805 15.322025299072266 
v -3.7631754875183105 5.6327080726623535 15.322025299072266 
v -3.7631752490997314 5.5816755294799805 14.666365623474121 
v -3.7631752490997314 5.6327080726623535 14.666365623474121 
v -3.535048007965088 5.5816755294799805 14.848276138305664 
v -3.535048007965088 5.6327080726623535 14.848276138305664 
v -4.174322128295898 5.5816755294799805 14.99415397644043 
v -4.174322128295898 5.6327080726623535 14.99415397644043 
v -4.047669887542725 5.5816755294799805 14.731256484985352 
v -4.047669887542725 5.6327080726623535 14.731256484985352 
v -3.7631754875183105 5.6327080726623535 15.322025299072266 
v -3.535048246383667 5.6327080726623535 15.140115737915039 
v -3.838005542755127 5.797595500946045 14.99415397644043 
v -3.535048007965088 5.6327080726623535 14.848276138305664 
v -3.838005542755127 5.797595500946045 14.99415397644043 
v -3.7631752490997314 5.6327080726623535 14.666365623474121 
v -4.047669887542725 5.6327080726623535 14.731256484985352 
v -4.174322128295898 5.6327080726623535 14.99415397644043 
v -3.838005542755127 5.797595500946045 14.99415397644043 
v -4.047670364379883 5.6327080726623535 15.257135391235352 
v -3.838005542755127 5.797595500946045 14.99415397644043 
v -3.7631754875183105 5.6327080726623535 15.322025299072266 
v -3.535048246383667 5.6327080726623535 15.140115737915039 
v -3.535048007965088 5.6327080726623535 14.848276138305664 
v -3.838005542755127 5.797595500946045 14.99415397644043 
v -3.7631752490997314 5.6327080726623535 14.666365623474121 
v -3.838005542755127 5.797595500946045 14.99415397644043 
v -4.047669887542725 5.6327080726623535 14.731256484985352 
v -4.174322128295898 5.6327080726623535 14.99415397644043 
v -4.047670364379883 5.6327080726623535 15.257135391235352 
v -3.838005542755127 5.797595500946045 14.99415397644043 
vn 0.0025631177704781294 0 -0.7427581548690796 
vn 0.0025631177704781294 0 -0.7427581548690796 
vn 0.0025631177704781294 0 -0.7427581548690796 
vn 0.0025631177704781294 0 -0.7427581548690796 
vn 0.002562366658821702 -1.239393787252907e-13 0.7427581548690796 
vn 0.002562366658821702 -1.239393787252907e-13 0.7427581548690796 
vn 0.002562366658821702 -1.239393787252907e-13 0.7427581548690796 
vn 0.002562366658821702 -1.239393787252907e-13 0.7427581548690796 
vn -0.7129170298576355 0 -0.589847207069397 
vn -0.7129170298576355 0 -0.589847207069397 
vn -0.7129170298576355 0 -0.589847207069397 
vn -0.7129170298576355 0 -0.589847207069397 
vn 0.7129170298576355 -9.842403584855997e-14 0.589847207069397 
vn 0.7129170298576355 -9.842403584855997e-14 0.589847207069397 
vn 0.7129170298576355 -9.842403584855997e-14 0.589847207069397 
vn 0.7129170298576355 -9.842403584855997e-14 0.589847207069397 
vn 1.173043966293335 0 5.932831754762447e-7 
vn 1.173043966293335 0 5.932831754762447e-7 
vn 1.173043966293335 0 5.932831754762447e-7 
vn 1.173043966293335 0 5.932831754762447e-7 
vn 1.173043966293335 0 5.932831754762447e-7 
vn 1.173043966293335 0 5.932831754762447e-7 
vn 1.173043966293335 0 5.932831754762447e-7 
vn 1.173043966293335 0 5.932831754762447e-7 
vn -1.173043966293335 0 -5.932830049459881e-7 
vn -1.173043966293335 0 -5.932830049459881e-7 
vn -1.173043966293335 0 -5.932830049459881e-7 
vn -1.173043966293335 0 -5.932830049459881e-7 
vn 0.7129176259040833 0 -0.5898464918136597 
vn 0.7129176259040833 0 -0.5898464918136597 
vn 0.7129176259040833 0 -0.5898464918136597 
vn 0.7129176259040833 0 -0.5898464918136597 
vn -0.7129176259040833 -9.842403584855997e-14 0.5898464918136597 
vn -0.7129176259040833 -9.842403584855997e-14 0.5898464918136597 
vn -0.7129176259040833 -9.842403584855997e-14 0.5898464918136597 
vn -0.7129176259040833 -9.842403584855997e-14 0.5898464918136597 
vn 1.173043966293335 0 5.932831754762447e-7 
vn 1.173043966293335 0 5.932831754762447e-7 
vn 1.173043966293335 0 5.932831754762447e-7 
vn 1.173043966293335 0 5.932831754762447e-7 
vn 0.002562366658821702 -1.239393787252907e-13 0.7427581548690796 
vn 0.002562366658821702 -1.239393787252907e-13 0.7427581548690796 
vn 0.002562366658821702 -1.239393787252907e-13 0.7427581548690796 
vn 0.002562366658821702 -1.239393787252907e-13 0.7427581548690796 
vn 0.0025631177704781294 0 -0.7427581548690796 
vn 0.0025631177704781294 0 -0.7427581548690796 
vn 0.0025631177704781294 0 -0.7427581548690796 
vn 0.0025631177704781294 0 -0.7427581548690796 
vn 0.0025631177704781294 0 -0.7427581548690796 
vn 0.0025631177704781294 0 -0.7427581548690796 
vn 0.0025631177704781294 0 -0.7427581548690796 
vn 0.0025631177704781294 0 -0.7427581548690796 
vn 0.0025631177704781294 0 -0.7427581548690796 
vn 0.0025631177704781294 0 -0.7427581548690796 
vn 0.0025631177704781294 0 -0.7427581548690796 
vn 0.0025631177704781294 0 -0.7427581548690796 
vn 0.0025631177704781294 0 -0.7427581548690796 
vn 0.0025631177704781294 0 -0.7427581548690796 
vn 0.0025631177704781294 0 -0.7427581548690796 
vn 0.0025631177704781294 0 -0.7427581548690796 
vn 0.0025631177704781294 0 -0.7427581548690796 
vn 0.002562366658821702 -1.239393787252907e-13 0.7427581548690796 
vn 0.002562366658821702 -1.239393787252907e-13 0.7427581548690796 
vn 0.002562366658821702 -1.239393787252907e-13 0.7427581548690796 
vn 0.002562366658821702 -1.239393787252907e-13 0.7427581548690796 
vn 0.002562366658821702 -1.239393787252907e-13 0.7427581548690796 
vn 0.002562366658821702 -1.239393787252907e-13 0.7427581548690796 
vn 0.002562366658821702 -1.239393787252907e-13 0.7427581548690796 
vn 0.002562366658821702 -1.239393787252907e-13 0.7427581548690796 
vn 0.002562366658821702 -1.239393787252907e-13 0.7427581548690796 
vn 0.002562366658821702 -1.239393787252907e-13 0.7427581548690796 
vn 0.002562366658821702 -1.239393787252907e-13 0.7427581548690796 
vn 0.002562366658821702 -1.239393787252907e-13 0.7427581548690796 
vn 0.002562366658821702 -1.239393787252907e-13 0.7427581548690796 
vn 0.002562366658821702 -1.239393787252907e-13 0.7427581548690796 
vn 0.002562366658821702 -1.239393787252907e-13 0.7427581548690796 
vn 0.002562366658821702 -1.239393787252907e-13 0.7427581548690796 
vn 0.002562366658821702 -1.239393787252907e-13 0.7427581548690796 
vn 0.0025627422146499157 -0.5992531180381775 1.29591215536351e-9 
vn 0.0025627422146499157 -0.5992531180381775 1.29591215536351e-9 
vn 0.0025627422146499157 -0.5992531180381775 1.29591215536351e-9 
vn 0.0025627422146499157 -0.5992531180381775 1.29591215536351e-9 
vn 0.0025627422146499157 -0.5992531180381775 1.29591215536351e-9 
vn 0.0025627422146499157 -0.5992531180381775 1.29591215536351e-9 
vn 0.0025627422146499157 -0.5992531180381775 1.29591215536351e-9 
vn 0.0025627422146499157 -0.5992531180381775 1.29591215536351e-9 
vn 0.0025627422146499157 -0.5992531180381775 1.29591215536351e-9 
vn 0.0025627422146499157 -0.5992531180381775 1.29591215536351e-9 
vn 0.0025627422146499157 -0.5992531180381775 1.29591215536351e-9 
vn 0.0025627422146499157 -0.5992531180381775 1.29591215536351e-9 
vn 0.0025627422146499157 -0.5992531180381775 1.29591215536351e-9 
vn 0.0025627422146499157 -0.5992531180381775 1.29591215536351e-9 
vn 0.0025627422146499157 -0.5992531180381775 1.29591215536351e-9 
vn 0.0025627422146499157 -0.5992531180381775 1.29591215536351e-9 
vn 0.0025627422146499157 -0.5992531180381775 1.29591215536351e-9 
vn 0.0025627422146499157 -0.5992531180381775 1.29591215536351e-9 
vn 0.0025627422146499157 -0.5992531180381775 1.29591215536351e-9 
vn 0.0025627422146499157 -0.5992531180381775 1.29591215536351e-9 
vn 0.0025627422146499157 -0.5992531180381775 1.29591215536351e-9 
vn 0.0025627422146499157 -0.5992531180381775 1.29591215536351e-9 
vn 0.0025627422146499157 -0.5992531180381775 1.29591215536351e-9 
vn 0.0025627422146499157 -0.5992531180381775 1.29591215536351e-9 
vn 0.0025627422146499157 -0.5992531180381775 1.29591215536351e-9 
vn 0.0025627422146499157 -0.5992531180381775 1.29591215536351e-9 
vn 0.0025627422146499157 -0.5992531180381775 1.29591215536351e-9 
vn -0.16601945459842682 -1.2269212609859054e-13 0.735283374786377 
vn -0.16601945459842682 -1.2269212609859054e-13 0.735283374786377 
vn -0.16601945459842682 -1.2269212609859054e-13 0.735283374786377 
vn -0.16601945459842682 -1.2269212609859054e-13 0.735283374786377 
vn 1.173043966293335 0 5.932831754762447e-7 
vn 1.173043966293335 0 5.932831754762447e-7 
vn 1.173043966293335 0 5.932831754762447e-7 
vn 1.173043966293335 0 5.932831754762447e-7 
vn -0.16601870954036713 0 -0.7352835536003113 
vn -0.16601870954036713 0 -0.7352835536003113 
vn -0.16601870954036713 0 -0.7352835536003113 
vn -0.16601870954036713 0 -0.7352835536003113 
vn -0.9331031441688538 -7.510912193847002e-14 0.45012205839157104 
vn -0.9331031441688538 -7.510912193847002e-14 0.45012205839157104 
vn -0.9331031441688538 -7.510912193847002e-14 0.45012205839157104 
vn -0.9331031441688538 -7.510912193847002e-14 0.45012205839157104 
vn 0.5309514403343201 0.002259382512420416 0.6623132228851318 
vn 0.5309514403343201 0.002259382512420416 0.6623132228851318 
vn 0.5309514403343201 0.002259382512420416 0.6623132228851318 
vn 0.5309514403343201 0.002259382512420416 0.6623132228851318 
vn 0.5309520959854126 0 -0.6623186469078064 
vn 0.5309520959854126 0 -0.6623186469078064 
vn 0.5309520959854126 0 -0.6623186469078064 
vn 0.5309520959854126 0 -0.6623186469078064 
vn -0.9331027269363403 0 -0.45012301206588745 
vn -0.9331027269363403 0 -0.45012301206588745 
vn -0.9331027269363403 0 -0.45012301206588745 
vn -0.9331027269363403 0 -0.45012301206588745 
vn 0.19134680926799774 0.5598670244216919 0.2354993373155594 
vn 0.19134680926799774 0.5598670244216919 0.2354993373155594 
vn 0.19134680926799774 0.5598670244216919 0.2354993373155594 
vn 0.19134704768657684 0.5591358542442322 -0.23815280199050903 
vn 0.19134704768657684 0.5591358542442322 -0.23815280199050903 
vn 0.19134704768657684 0.5591358542442322 -0.23815280199050903 
vn -0.28168466687202454 0.5716191530227661 -0.13378509879112244 
vn -0.28168466687202454 0.5716191530227661 -0.13378509879112244 
vn -0.28168466687202454 0.5716191530227661 -0.13378509879112244 
vn -0.06403690576553345 0.5505138635635376 0.29060372710227966 
vn -0.06403690576553345 0.5505138635635376 0.29060372710227966 
vn -0.06403690576553345 0.5505138635635376 0.29060372710227966 
vn 0.3163761496543884 0.5770434737205505 -0.0028015514835715294 
vn 0.3163761496543884 0.5770434737205505 -0.0028015514835715294 
vn 0.3163761496543884 0.5770434737205505 -0.0028015514835715294 
vn -0.06403660774230957 0.5496235489845276 -0.29318132996559143 
vn -0.06403660774230957 0.5496235489845276 -0.29318132996559143 
vn -0.06403660774230957 0.5496235489845276 -0.29318132996559143 
vn -0.2816847860813141 0.5716191530227661 0.13378481566905975 
vn -0.2816847860813141 0.5716191530227661 0.13378481566905975 
vn -0.2816847860813141 0.5716191530227661 0.13378481566905975 
s on 
f 1//1 2//2 3//3 
f 2//2 4//4 3//3 
f 3//3 4//4 4//4 
f 4//4 5//5 4//4 
f 4//4 5//5 5//5 
f 5//5 6//6 5//5 
f 5//5 6//6 7//7 
f 6//6 8//8 7//7 
f 7//7 8//8 8//8 
f 8//8 9//9 8//8 
f 8//8 9//9 9//9 
f 9//9 10//10 9//9 
f 9//9 10//10 11//11 
f 10//10 12//12 11//11 
f 11//11 12//12 12//12 
f 12//12 13//13 12//12 
f 12//12 13//13 13//13 
f 13//13 14//14 13//13 
f 13//13 14//14 15//15 
f 14//14 16//16 15//15 
f 15//15 16//16 16//16 
f 16//16 17//17 16//16 
f 16//16 17//17 17//17 
f 17//17 18//18 17//17 
f 17//17 18//18 19//19 
f 18//18 20//20 19//19 
f 19//19 20//20 19//19 
f 20//20 21//21 19//19 
f 19//19 21//21 22//22 
f 21//21 21//21 22//22 
f 22//22 21//21 23//23 
f 21//21 24//24 23//23 
f 23//23 24//24 24//24 
f 24//24 25//25 24//24 
f 24//24 25//25 25//25 
f 25//25 26//26 25//25 
f 25//25 26//26 27//27 
f 26//26 28//28 27//27 
f 27//27 28//28 28//28 
f 28//28 29//29 28//28 
f 28//28 29//29 29//29 
f 29//29 30//30 29//29 
f 29//29 30//30 31//31 
f 30//30 32//32 31//31 
f 31//31 32//32 32//32 
f 32//32 33//33 32//32 
f 32//32 33//33 33//33 
f 33//33 34//34 33//33 
f 33//33 34//34 35//35 
f 34//34 36//36 35//35 
f 35//35 36//36 36//36 
f 36//36 37//37 36//36 
f 36//36 37//37 37//37 
f 37//37 38//38 37//37 
f 37//37 38//38 39//39 
f 38//38 40//40 39//39 
f 39//39 40//40 40//40 
f 40//40 41//41 40//40 
f 40//40 41//41 41//41 
f 41//41 42//42 41//41 
f 41//41 42//42 43//43 
f 42//42 44//44 43//43 
f 43//43 44//44 44//44 
f 44//44 45//45 44//44 
f 44//44 45//45 45//45 
f 45//45 46//46 45//45 
f 45//45 46//46 47//47 
f 46//46 48//48 47//47 
f 47//47 48//48 49//49 
f 48//48 50//50 49//49 
f 49//49 50//50 51//51 
f 50//50 52//52 51//51 
f 51//51 52//52 53//53 
f 52//52 54//54 53//53 
f 53//53 54//54 54//54 
f 54//54 46//46 54//54 
f 54//54 46//46 46//46 
f 46//46 55//55 46//46 
f 46//46 55//55 48//48 
f 55//55 56//56 48//48 
f 48//48 56//56 50//50 
f 56//56 57//57 50//50 
f 50//50 57//57 52//52 
f 57//57 58//58 52//52 
f 52//52 58//58 58//58 
f 58//58 55//55 58//58 
f 58//58 55//55 55//55 
f 55//55 59//59 55//55 
f 55//55 59//59 56//56 
f 59//59 60//60 56//56 
f 56//56 60//60 57//57 
f 60//60 61//61 57//57 
f 57//57 61//61 61//61 
f 61//61 62//62 61//61 
f 61//61 62//62 62//62 
f 62//62 63//63 62//62 
f 62//62 63//63 64//64 
f 63//63 65//65 64//64 
f 64//64 65//65 65//65 
f 65//65 62//62 65//65 
f 65//65 62//62 62//62 
f 62//62 66//66 62//62 
f 62//62 66//66 63//63 
f 66//66 66//66 63//63 
f 63//63 66//66 67//67 
f 66//66 68//68 67//67 
f 67//67 68//68 69//69 
f 68//68 70//70 69//69 
f 69//69 70//70 71//71 
f 70//70 72//72 71//71 
f 71//71 72//72 72//72 
f 72//72 69//69 72//72 
f 72//72 69//69 69//69 
f 69//69 73//73 69//69 
f 69//69 73//73 67//67 
f 73//73 74//74 67//67 
f 67//67 74//74 63//63 
f 74//74 74//74 63//63 
f 63//63 74//74 65//65 
f 74//74 75//75 65//65 
f 65//65 75//75 65//65 
f 75//75 76//76 65//65 
f 65//65 76//76 77//77 
f 76//76 78//78 77//77 
f 77//77 78//78 78//78 
f 78//78 64//64 78//78 
f 78//78 64//64 64//64 
f 64//64 65//65 64//64 
f 64//64 65//65 77//77 
f 65//65 77//77 77//77 
f 77//77 77//77 79//79 
f 77//77 79//79 79//79 
f 79//79 79//79 80//80 
f 79//79 81//81 80//80 
f 80//80 81//81 82//82 
f 81//81 83//83 82//82 
f 82//82 83//83 84//84 
f 83//83 84//84 84//84 
f 84//84 84//84 81//81 
f 84//84 81//81 81//81 
f 81//81 81//81 83//83 
f 81//81 85//85 83//83 
f 83//83 85//85 85//85 
f 85//85 86//86 85//85 
f 85//85 86//86 86//86 
f 86//86 87//87 86//86 
f 86//86 87//87 88//88 
f 87//87 89//89 88//88 
f 88//88 89//89 90//90 
f 89//89 91//91 90//90 
f 90//90 91//91 92//92 
f 91//91 93//93 92//92 
f 92//92 93//93 94//94 
f 93//93 95//95 94//94 
f 94//94 95//95 95//95 
f 95//95 96//96 95//95 
f 95//95 96//96 96//96 
f 96//96 97//97 96//96 
f 96//96 97//97 98//98 
f 97//97 99//99 98//98 
f 98//98 99//99 100//100 
f 99//99 101//101 100//100 
f 100//100 101//101 101//101 
f 101//101 102//102 101//101 
f 101//101 102//102 102//102 
f 102//102 103//103 102//102 
f 102//102 103//103 104//104 
f 103//103 105//105 104//104 
f 104//104 105//105 105//105 
f 105//105 106//106 105//105 
f 105//105 106//106 106//106 
f 106//106 107//107 106//106 
f 106//106 107//107 108//108 
f 107//107 109//109 108//108 
f 108//108 109//109 109//109 
f 109//109 110//110 109//109 
f 109//109 110//110 110//110 
f 110//110 111//111 110//110 
f 110//110 111//111 112//112 
f 111//111 113//113 112//112 
f 112//112 113//113 113//113 
f 113//113 114//114 113//113 
f 113//113 114//114 114//114 
f 114//114 115//115 114//114 
f 114//114 115//115 116//116 
f 115//115 117//117 116//116 
f 116//116 117//117 117//117 
f 117//117 118//118 117//117 
f 117//117 118//118 118//118 
f 118//118 119//119 118//118 
f 118//118 119//119 120//120 
f 119//119 121//121 120//120 
f 120//120 121//121 121//121 
f 121//121 122//122 121//121 
f 121//121 122//122 122//122 
f 122//122 123//123 122//122 
f 122//122 123//123 124//124 
f 123//123 125//125 124//124 
f 124//124 125//125 125//125 
f 125//125 126//126 125//125 
f 125//125 126//126 126//126 
f 126//126 127//127 126//126 
f 126//126 127//127 128//128 
f 127//127 129//129 128//128 
f 128//128 129//129 129//129 
f 129//129 130//130 129//129 
f 129//129 130//130 130//130 
f 130//130 131//131 130//130 
f 130//130 131//131 132//132 
f 131//131 133//133 132//132 
f 132//132 133//133 133//133 
f 133//133 134//134 133//133 
f 133//133 134//134 134//134 
f 134//134 135//135 134//134 
f 134//134 135//135 136//136 
f 135//135 136//136 136//136 
f 136//136 136//136 137//137 
f 136//136 137//137 137//137 
f 137//137 137//137 138//138 
f 137//137 139//139 138//138 
f 138//138 139//139 139//139 
f 139//139 140//140 139//139 
f 139//139 140//140 140//140 
f 140//140 141//141 140//140 
f 140//140 141//141 142//142 
f 141//141 142//142 142//142 
f 142//142 142//142 143//143 
f 142//142 143//143 143//143 
f 143//143 143//143 144//144 
f 143//143 145//145 144//144 
f 144//144 145//145 145//145 
f 145//145 146//146 145//145 
f 145//145 146//146 146//146 
f 146//146 147//147 146//146 
f 146//146 147//147 148//148 
f 147//147 148//148 148//148 
f 148//148 148//148 149//149 
f 148//148 149//149 149//149 
f 149//149 149//149 150//150 
f 149//149 151//151 150//150 
f 150//150 151//151 151//151 
f 151//151 152//152 151//151 
f 151//151 152//152 152//152 
f 152//152 153//153 152//152 
f 152//152 153//153 154//154 

