mtllib model_0.mtl
o model_0
v 16.272554397583008 -0.23979687690734863 19.656103134155273 
v 16.272554397583008 -0.23979687690734863 14.273835182189941 
v 10.79586124420166 -0.23979687690734863 19.656103134155273 
v 10.79586124420166 -0.23979687690734863 14.273835182189941 
vn -9.630137805900427e-15 0.0931243896484375 0.00020344879885669798 
vn -9.630137805900427e-15 0.0931243896484375 0.00020344879885669798 
vn -9.630137805900427e-15 0.0931243896484375 0.00020344879885669798 
vn -9.630137805900427e-15 0.0931243896484375 0.00020344879885669798 
s on 
f 1//1 2//2 3//3 
f 2//2 4//4 3//3 

