mtllib model_90.mtl
o model_90
v 13.403152465820312 1.3437912464141846 16.714664459228516 
v 13.30844783782959 1.350700855255127 16.732858657836914 
v 13.499248504638672 1.350700855255127 16.732858657836914 
v 13.570277214050293 1.350700855255127 16.802833557128906 
v 13.23324203491211 1.3534647226333618 16.795835494995117 
v 13.21235179901123 1.350700855255127 16.899396896362305 
v 13.595345497131348 1.350700855255127 16.899396896362305 
v 13.237420082092285 1.350700855255127 16.99456214904785 
v 13.570277214050293 1.350700855255127 16.99456214904785 
v 13.30844783782959 1.350700855255127 17.064537048339844 
v 13.499248504638672 1.350700855255127 17.064537048339844 
v 13.404544830322266 1.3502402305603027 17.092525482177734 
v 13.08979320526123 0.9278313517570496 17.079931259155273 
v 13.766648292541504 0.9278313517570496 16.899396896362305 
v 13.041049003601074 0.9278313517570496 16.899396896362305 
v 13.717904090881348 0.9278313517570496 16.718862533569336 
v 13.222100257873535 0.919539749622345 17.21288299560547 
v 13.717904090881348 0.9282919764518738 17.079931259155273 
v 13.08979320526123 0.9278313517570496 17.079931259155273 
v 13.766648292541504 0.9278313517570496 16.899396896362305 
v 13.403152465820312 0.41237276792526245 15.464923858642578 
v 12.687301635742188 0.41237276792526245 15.65665340423584 
v 14.12039566040039 0.41237276792526245 15.65665340423584 
v 14.645445823669434 0.41237276792526245 16.181461334228516 
v 12.162251472473145 0.41237276792526245 16.181461334228516 
v 11.986770629882812 0.42388883233070374 16.88540267944336 
v 14.837638854980469 0.41237276792526245 16.899396896362305 
v 12.162251472473145 0.41237276792526245 16.181461334228516 
v 14.645445823669434 0.41237276792526245 16.181461334228516 
v 14.645445823669434 0.41237276792526245 17.615934371948242 
v 12.162251472473145 0.41237276792526245 17.615934371948242 
v 12.687301635742188 0.41237276792526245 18.1407413482666 
v 14.645445823669434 0.41237276792526245 17.615934371948242 
v 14.12039566040039 0.41237276792526245 18.1407413482666 
v 12.687301635742188 0.41237276792526245 18.1407413482666 
v 14.12039566040039 0.41237276792526245 18.1407413482666 
v 12.687301635742188 0.41237276792526245 18.1407413482666 
v 13.412900924682617 0.4105302095413208 18.32967185974121 
v 13.222100257873535 0.9278313517570496 16.58451271057129 
v 13.403152465820312 0.9278313517570496 16.536930084228516 
v 13.585597038269043 0.9278313517570496 16.58451271057129 
v 13.585597038269043 0.9278313517570496 16.58451271057129 
v 13.222100257873535 0.9278313517570496 16.58451271057129 
v 13.717904090881348 0.9278313517570496 16.718862533569336 
v 13.222100257873535 0.9278313517570496 16.58451271057129 
v 13.717904090881348 0.9278313517570496 16.718862533569336 
v 13.08979320526123 0.9278313517570496 16.717464447021484 
v 13.041049003601074 0.9278313517570496 16.899396896362305 
v 14.645445823669434 0.41237276792526245 17.615934371948242 
v 12.162251472473145 0.41237276792526245 17.615934371948242 
v 14.837638854980469 0.41237276792526245 16.899396896362305 
v 11.986770629882812 0.42388883233070374 16.88540267944336 
v 13.717904090881348 0.9282919764518738 17.079931259155273 
v 13.585597038269043 0.9278313517570496 17.21288299560547 
v 13.222100257873535 0.919539749622345 17.21288299560547 
v 13.585597038269043 0.9278313517570496 17.21288299560547 
v 13.222100257873535 0.919539749622345 17.21288299560547 
v 13.403152465820312 0.9227643013000488 17.261863708496094 
vn -8.769912964237681e-13 2.541315793991089 -0.018527546897530556 
vn -8.769912964237681e-13 2.541315793991089 -0.018527546897530556 
vn -8.769912964237681e-13 2.541315793991089 -0.018527546897530556 
vn -8.769912964237681e-13 2.541315793991089 -0.018527546897530556 
vn -8.769912964237681e-13 2.541315793991089 -0.018527546897530556 
vn -8.769912964237681e-13 2.541315793991089 -0.018527546897530556 
vn -8.769912964237681e-13 2.541315793991089 -0.018527546897530556 
vn -8.769912964237681e-13 2.541315793991089 -0.018527546897530556 
vn -8.769912964237681e-13 2.541315793991089 -0.018527546897530556 
vn -8.769912964237681e-13 2.541315793991089 -0.018527546897530556 
vn -8.769912964237681e-13 2.541315793991089 -0.018527546897530556 
vn -8.769912964237681e-13 2.541315793991089 -0.018527546897530556 
vn -8.769912964237681e-13 2.541315793991089 0.018527546897530556 
vn -8.769912964237681e-13 2.541315793991089 0.018527546897530556 
vn -8.769912964237681e-13 2.541315793991089 0.018527546897530556 
vn -8.769912964237681e-13 2.541315793991089 0.018527546897530556 
vn -8.769745455002032e-13 2.5412673950195312 0.055582284927368164 
vn -8.769745455002032e-13 2.5412673950195312 0.055582284927368164 
vn -8.769745455002032e-13 2.5412673950195312 0.055582284927368164 
vn -8.769745455002032e-13 2.5412673950195312 0.055582284927368164 
vn -8.769912964237681e-13 2.541315793991089 0.018527546897530556 
vn -8.769912964237681e-13 2.541315793991089 0.018527546897530556 
vn -8.769912964237681e-13 2.541315793991089 0.018527546897530556 
vn -8.769912964237681e-13 2.541315793991089 0.018527546897530556 
vn -8.769912964237681e-13 2.541315793991089 0.018527546897530556 
vn -8.769912964237681e-13 2.541315793991089 0.018527546897530556 
vn -8.769912964237681e-13 2.541315793991089 -0.018527546897530556 
vn -8.769912964237681e-13 2.541315793991089 0.018527546897530556 
vn -8.769912964237681e-13 2.541315793991089 0.018527546897530556 
vn -8.769912964237681e-13 2.541315793991089 0.018527546897530556 
vn -8.769912964237681e-13 2.541315793991089 0.018527546897530556 
vn -8.769912964237681e-13 2.541315793991089 0.018527546897530556 
vn -8.769912964237681e-13 2.541315793991089 0.018527546897530556 
vn -8.769912964237681e-13 2.541315793991089 0.018527546897530556 
vn -8.769912964237681e-13 2.541315793991089 0.018527546897530556 
vn -8.769912964237681e-13 2.541315793991089 0.018527546897530556 
vn -8.769912964237681e-13 2.541315793991089 0.018527546897530556 
vn -8.769912964237681e-13 2.541315793991089 0.018527546897530556 
vn -8.769912964237681e-13 2.541315793991089 0.018527546897530556 
vn -8.769912964237681e-13 2.541315793991089 0.018527546897530556 
vn -8.769912964237681e-13 2.541315793991089 0.018527546897530556 
vn -8.769912964237681e-13 2.541315793991089 0.018527546897530556 
vn -8.769912964237681e-13 2.541315793991089 0.018527546897530556 
vn -8.769912964237681e-13 2.541315793991089 0.018527546897530556 
vn -8.769912964237681e-13 2.541315793991089 0.018527546897530556 
vn -8.769912964237681e-13 2.541315793991089 0.018527546897530556 
vn -8.769912964237681e-13 2.541315793991089 0.018527546897530556 
vn -8.769912964237681e-13 2.541315793991089 0.018527546897530556 
vn -8.769912964237681e-13 2.541315793991089 0.018527546897530556 
vn -8.769912964237681e-13 2.541315793991089 0.018527546897530556 
vn -8.769912964237681e-13 2.541315793991089 0.018527546897530556 
vn -8.769912964237681e-13 2.541315793991089 0.018527546897530556 
vn -0.06404280662536621 2.5411949157714844 -0.055582284927368164 
vn -0.06404280662536621 2.5411949157714844 -0.055582284927368164 
vn -0.06404280662536621 2.5411949157714844 -0.055582284927368164 
vn -0.06404280662536621 2.5411949157714844 0.055582284927368164 
vn -0.06404280662536621 2.5411949157714844 0.055582284927368164 
vn -0.06404280662536621 2.5411949157714844 0.055582284927368164 
s on 
f 1//1 2//2 3//3 
f 2//2 2//2 3//3 
f 3//3 2//2 4//4 
f 2//2 5//5 4//4 
f 4//4 5//5 4//4 
f 5//5 6//6 4//4 
f 4//4 6//6 7//7 
f 6//6 8//8 7//7 
f 7//7 8//8 9//9 
f 8//8 10//10 9//9 
f 9//9 10//10 11//11 
f 10//10 12//12 11//11 
f 11//11 12//12 12//12 
f 12//12 13//13 12//12 
f 12//12 13//13 13//13 
f 13//13 14//14 13//13 
f 13//13 14//14 15//15 
f 14//14 16//16 15//15 
f 15//15 16//16 16//16 
f 16//16 17//17 16//16 
f 16//16 17//17 17//17 
f 17//17 18//18 17//17 
f 17//17 18//18 19//19 
f 18//18 20//20 19//19 
f 19//19 20//20 20//20 
f 20//20 21//21 20//20 
f 20//20 21//21 21//21 
f 21//21 22//22 21//21 
f 21//21 22//22 23//23 
f 22//22 22//22 23//23 
f 23//23 22//22 24//24 
f 22//22 25//25 24//24 
f 24//24 25//25 25//25 
f 25//25 26//26 25//25 
f 25//25 26//26 26//26 
f 26//26 27//27 26//26 
f 26//26 27//27 28//28 
f 27//27 29//29 28//28 
f 28//28 29//29 29//29 
f 29//29 30//30 29//29 
f 29//29 30//30 30//30 
f 30//30 31//31 30//30 
f 30//30 31//31 32//32 
f 31//31 32//32 32//32 
f 32//32 32//32 33//33 
f 32//32 33//33 33//33 
f 33//33 33//33 34//34 
f 33//33 35//35 34//34 
f 34//34 35//35 35//35 
f 35//35 36//36 35//35 
f 35//35 36//36 36//36 
f 36//36 37//37 36//36 
f 36//36 37//37 38//38 
f 37//37 38//38 38//38 
f 38//38 38//38 39//39 
f 38//38 39//39 39//39 
f 39//39 39//39 40//40 
f 39//39 41//41 40//40 
f 40//40 41//41 41//41 
f 41//41 42//42 41//41 
f 41//41 42//42 42//42 
f 42//42 43//43 42//42 
f 42//42 43//43 44//44 
f 43//43 44//44 44//44 
f 44//44 44//44 45//45 
f 44//44 45//45 45//45 
f 45//45 45//45 46//46 
f 45//45 47//47 46//46 
f 46//46 47//47 48//48 
f 47//47 48//48 48//48 
f 48//48 48//48 49//49 
f 48//48 49//49 49//49 
f 49//49 49//49 50//50 
f 49//49 51//51 50//50 
f 50//50 51//51 52//52 
f 51//51 52//52 52//52 
f 52//52 52//52 53//53 
f 52//52 53//53 53//53 
f 53//53 53//53 54//54 
f 53//53 55//55 54//54 
f 54//54 55//55 55//55 
f 55//55 56//56 55//55 
f 55//55 56//56 56//56 
f 56//56 57//57 56//56 
f 56//56 57//57 58//58 

