mtllib model_43.mtl
o model_43
v 6.560439109802246 1.3012113571166992 17.60546112060547 
v 6.560442924499512 1.3012113571166992 15.60219955444336 
v 6.560439109802246 0.3788732886314392 17.60546112060547 
v 6.560442924499512 0.3788732886314392 15.60219955444336 
v 8.06218147277832 0.3788732886314392 15.602202415466309 
v 7.7659592628479 0.5448566675186157 15.602201461791992 
v 8.06218147277832 1.3012113571166992 15.602202415466309 
v 7.7659592628479 0.9393291473388672 15.602201461791992 
v 7.7659592628479 0.5448566675186157 15.602201461791992 
v 8.06218147277832 0.3788732886314392 15.602202415466309 
v 7.249870777130127 0.5448566675186157 15.602200508117676 
v 6.560442924499512 0.3788732886314392 15.60219955444336 
v 6.560442924499512 1.3012113571166992 15.60219955444336 
v 7.249870777130127 0.9393291473388672 15.602200508117676 
v 7.7659592628479 0.9393291473388672 15.602201461791992 
v 8.06218147277832 1.3012113571166992 15.602202415466309 
v 8.06218147277832 0.3788732886314392 15.602202415466309 
v 8.06218147277832 1.3012113571166992 15.602202415466309 
v 8.06218147277832 0.5849598050117493 15.666793823242188 
v 8.06218147277832 0.9794322848320007 15.666793823242188 
v 8.06218147277832 0.3788732886314392 15.602202415466309 
v 8.06218147277832 0.5849598050117493 15.666793823242188 
v 8.062180519104004 0.3788732886314392 16.267168045043945 
v 8.062180519104004 0.5849598050117493 16.182905197143555 
v 8.062180519104004 0.9794322848320007 16.267168045043945 
v 8.062180519104004 0.9794322848320007 16.182905197143555 
v 8.062179565429688 0.9794322848320007 16.783279418945312 
v 8.062177658081055 1.3012113571166992 17.6054630279541 
v 8.062179565429688 0.9794322848320007 16.870330810546875 
v 8.062178611755371 0.9794322848320007 17.470705032348633 
v 8.06218147277832 1.3012113571166992 15.602202415466309 
v 8.06218147277832 0.9794322848320007 15.666793823242188 
v 8.062179565429688 0.5849598050117493 16.870330810546875 
v 8.062179565429688 0.3788732886314392 16.783279418945312 
v 8.062177658081055 0.3788732886314392 17.6054630279541 
v 8.062178611755371 0.5849598050117493 17.470705032348633 
v 8.062177658081055 1.3012113571166992 17.6054630279541 
v 8.062177658081055 0.3788732886314392 17.6054630279541 
v 8.062178611755371 0.9794322848320007 17.470705032348633 
v 8.062178611755371 0.5849598050117493 17.470705032348633 
v 8.062177658081055 0.3788732886314392 17.6054630279541 
v 8.062177658081055 1.3012113571166992 17.6054630279541 
v 7.765955448150635 0.5448566675186157 17.6054630279541 
v 7.765955448150635 0.9393291473388672 17.6054630279541 
v 7.765955448150635 0.9393291473388672 17.6054630279541 
v 8.062177658081055 1.3012113571166992 17.6054630279541 
v 7.2498674392700195 0.9393291473388672 17.6054630279541 
v 6.560439109802246 1.3012113571166992 17.60546112060547 
v 6.560439109802246 0.3788732886314392 17.60546112060547 
v 7.2498674392700195 0.5448566675186157 17.6054630279541 
v 7.765955448150635 0.5448566675186157 17.6054630279541 
v 8.062177658081055 0.3788732886314392 17.6054630279541 
v 8.060215950012207 1.3001551628112793 15.604835510253906 
v 7.839725494384766 1.3001551628112793 15.898903846740723 
v 8.060212135314941 1.3001551628112793 17.60283088684082 
v 7.839723110198975 1.3001551628112793 17.308761596679688 
v 6.562405109405518 1.3001551628112793 17.602827072143555 
v 6.782895088195801 1.3001551628112793 17.308759689331055 
v 6.562408447265625 1.3001551628112793 15.604832649230957 
v 6.78289794921875 1.3001551628112793 15.89890193939209 
v 8.060212135314941 1.3001551628112793 17.60283088684082 
v 7.839723110198975 1.3001551628112793 17.308761596679688 
v 6.562405109405518 1.3001551628112793 17.602827072143555 
v 6.782895088195801 1.3001551628112793 17.308759689331055 
v 6.562408447265625 1.3001551628112793 15.604832649230957 
v 6.78289794921875 1.3001551628112793 15.89890193939209 
v 8.060215950012207 1.3001551628112793 15.604835510253906 
v 7.839725494384766 1.3001551628112793 15.898903846740723 
v 7.839723110198975 1.3001551628112793 17.308761596679688 
v 7.559789657592773 1.3001551628112793 16.9353084564209 
v 6.782895088195801 1.3001551628112793 17.308759689331055 
v 7.06286096572876 1.3001551628112793 16.935306549072266 
v 6.78289794921875 1.3001551628112793 15.89890193939209 
v 7.062862396240234 1.3001551628112793 16.272356033325195 
v 7.839725494384766 1.3001551628112793 15.898903846740723 
v 7.559759616851807 1.3001551628112793 16.272356033325195 
v 7.839725494384766 1.3001551628112793 15.898903846740723 
v 7.559759616851807 1.3001551628112793 16.272356033325195 
v 7.839723110198975 1.3001551628112793 17.308761596679688 
v 7.559789657592773 1.3001551628112793 16.9353084564209 
v 6.782895088195801 1.3001551628112793 17.308759689331055 
v 7.06286096572876 1.3001551628112793 16.935306549072266 
v 6.78289794921875 1.3001551628112793 15.89890193939209 
v 7.062862396240234 1.3001551628112793 16.272356033325195 
v 7.559789657592773 1.3001551628112793 16.9353084564209 
v 7.559759616851807 1.3001551628112793 16.272356033325195 
v 7.06286096572876 1.3001551628112793 16.935306549072266 
v 7.062862396240234 1.3001551628112793 16.272356033325195 
vn -1.8377522230148315 0 -0.000003408036718610674 
vn -1.8377522230148315 0 -0.000003408036718610674 
vn -1.8377522230148315 0 -0.000003408036718610674 
vn -1.8377522230148315 0 -0.000003408036718610674 
vn -0.004009549971669912 -3.825889529230492e-13 -2.899266481399536 
vn -0.004009549971669912 -3.825889529230492e-13 -2.899266481399536 
vn -0.004009549971669912 -3.825889529230492e-13 -2.899266481399536 
vn -0.004009549971669912 -3.825889529230492e-13 -2.899266481399536 
vn -0.004009549971669912 -3.825889529230492e-13 -2.899266481399536 
vn -0.004009549971669912 -3.825889529230492e-13 -2.899266481399536 
vn -0.004009549971669912 -3.825889529230492e-13 -2.899266481399536 
vn -0.004009549971669912 -3.825889529230492e-13 -2.899266481399536 
vn -0.004009549971669912 -3.825889529230492e-13 -2.899266481399536 
vn -0.004009549971669912 -3.825889529230492e-13 -2.899266481399536 
vn -0.004009549971669912 -3.825889529230492e-13 -2.899266481399536 
vn -0.004009549971669912 -3.825889529230492e-13 -2.899266481399536 
vn 1.8377522230148315 7.912842489439958e-26 0.0000034080374007317005 
vn 1.8377522230148315 7.912842489439958e-26 0.0000034080374007317005 
vn 1.8377522230148315 7.912842489439958e-26 0.0000034080374007317005 
vn 1.8377522230148315 7.912842489439958e-26 0.0000034080374007317005 
vn 1.8377522230148315 7.912842489439958e-26 0.0000034080374007317005 
vn 1.8377522230148315 7.912842489439958e-26 0.0000034080374007317005 
vn 1.8377522230148315 7.912842489439958e-26 0.0000034080374007317005 
vn 1.8377522230148315 7.912842489439958e-26 0.0000034080374007317005 
vn 1.8377522230148315 7.912842489439958e-26 0.0000034080374007317005 
vn 1.8377522230148315 7.912842489439958e-26 0.0000034080374007317005 
vn 1.8377522230148315 7.912842489439958e-26 0.0000034080374007317005 
vn 1.8377522230148315 7.912842489439958e-26 0.0000034080374007317005 
vn 1.8377522230148315 7.912842489439958e-26 0.0000034080374007317005 
vn 1.8377522230148315 7.912842489439958e-26 0.0000034080374007317005 
vn 1.8377522230148315 7.912842489439958e-26 0.0000034080374007317005 
vn 1.8377522230148315 7.912842489439958e-26 0.0000034080374007317005 
vn 1.8377522230148315 7.912842489439958e-26 0.0000034080374007317005 
vn 1.8377522230148315 7.912842489439958e-26 0.0000034080374007317005 
vn 1.8377522230148315 7.912842489439958e-26 0.0000034080374007317005 
vn 1.8377522230148315 7.912842489439958e-26 0.0000034080374007317005 
vn 1.8377522230148315 7.912842489439958e-26 0.0000034080374007317005 
vn 1.8377522230148315 7.912842489439958e-26 0.0000034080374007317005 
vn 1.8377522230148315 7.912842489439958e-26 0.0000034080374007317005 
vn 1.8377522230148315 7.912842489439958e-26 0.0000034080374007317005 
vn 0.004009549971669912 0 2.899266481399536 
vn 0.004009549971669912 0 2.899266481399536 
vn 0.004009549971669912 0 2.899266481399536 
vn 0.004009549971669912 0 2.899266481399536 
vn 0.004009549971669912 0 2.899266481399536 
vn 0.004009549971669912 0 2.899266481399536 
vn 0.004009549971669912 0 2.899266481399536 
vn 0.004009549971669912 0 2.899266481399536 
vn 0.004009549971669912 0 2.899266481399536 
vn 0.004009549971669912 0 2.899266481399536 
vn 0.004009549971669912 0 2.899266481399536 
vn 0.004009549971669912 0 2.899266481399536 
vn -0.0040149264968931675 1.8498365879058838 -7.445817740148186e-9 
vn -0.0040149264968931675 1.8498365879058838 -7.445817740148186e-9 
vn -0.0040149264968931675 1.8498365879058838 -7.445817740148186e-9 
vn -0.0040149264968931675 1.8498365879058838 -7.445817740148186e-9 
vn -0.0040149264968931675 1.8498365879058838 -7.445817740148186e-9 
vn -0.0040149264968931675 1.8498365879058838 -7.445817740148186e-9 
vn -0.0040149264968931675 1.8498365879058838 -7.445817740148186e-9 
vn -0.0040149264968931675 1.8498365879058838 -7.445817740148186e-9 
vn -0.0040149264968931675 1.8498365879058838 -7.445817740148186e-9 
vn -0.0040149264968931675 1.8498365879058838 -7.445817740148186e-9 
vn -0.0040149264968931675 1.8498365879058838 -7.445817740148186e-9 
vn -0.0040149264968931675 1.8498365879058838 -7.445817740148186e-9 
vn -0.0040149264968931675 1.8498365879058838 -7.445817740148186e-9 
vn -0.0040149264968931675 1.8498365879058838 -7.445817740148186e-9 
vn -0.0040149264968931675 1.8498365879058838 -7.445817740148186e-9 
vn -0.0040149264968931675 1.8498365879058838 -7.445817740148186e-9 
vn -0.0040149264968931675 1.8498365879058838 -7.445817740148186e-9 
vn -0.0040149264968931675 1.8498365879058838 -7.445817740148186e-9 
vn -0.0040149264968931675 1.8498365879058838 -7.445817740148186e-9 
vn -0.0040149264968931675 1.8498365879058838 -7.445817740148186e-9 
vn -0.0040149264968931675 1.8498365879058838 -7.445817740148186e-9 
vn -0.0040149264968931675 1.8498365879058838 -7.445817740148186e-9 
vn -0.0040149264968931675 1.8498365879058838 -7.445817740148186e-9 
vn -0.0040149264968931675 1.8498365879058838 -7.445817740148186e-9 
vn -0.0040149264968931675 1.8498365879058838 -7.445817740148186e-9 
vn -0.0040149264968931675 1.8498365879058838 -7.445817740148186e-9 
vn -0.0040149264968931675 1.8498365879058838 -7.445817740148186e-9 
vn -0.0040149264968931675 1.8498365879058838 -7.445817740148186e-9 
vn -0.0040149264968931675 1.8498365879058838 -7.445817740148186e-9 
vn -0.0040149264968931675 1.8498365879058838 -7.445817740148186e-9 
vn -0.0040149264968931675 1.8498365879058838 -7.445817740148186e-9 
vn -0.0040149264968931675 1.8498365879058838 -7.445817740148186e-9 
vn -0.0040149264968931675 1.8498365879058838 -7.445817740148186e-9 
vn -0.0040149264968931675 1.8498365879058838 -7.445817740148186e-9 
vn -0.0040149264968931675 1.8498365879058838 -7.445817740148186e-9 
vn -0.0040149264968931675 1.8498365879058838 -7.445817740148186e-9 
s on 
f 1//1 2//2 3//3 
f 2//2 4//4 3//3 
f 3//3 4//4 4//4 
f 4//4 5//5 4//4 
f 4//4 5//5 5//5 
f 5//5 6//6 5//5 
f 5//5 6//6 7//7 
f 6//6 8//8 7//7 
f 7//7 8//8 8//8 
f 8//8 9//9 8//8 
f 8//8 9//9 9//9 
f 9//9 10//10 9//9 
f 9//9 10//10 11//11 
f 10//10 12//12 11//11 
f 11//11 12//12 11//11 
f 12//12 13//13 11//11 
f 11//11 13//13 14//14 
f 13//13 13//13 14//14 
f 14//14 13//13 15//15 
f 13//13 16//16 15//15 
f 15//15 16//16 16//16 
f 16//16 17//17 16//16 
f 16//16 17//17 17//17 
f 17//17 18//18 17//17 
f 17//17 18//18 19//19 
f 18//18 20//20 19//19 
f 19//19 20//20 20//20 
f 20//20 21//21 20//20 
f 20//20 21//21 21//21 
f 21//21 22//22 21//21 
f 21//21 22//22 23//23 
f 22//22 24//24 23//23 
f 23//23 24//24 25//25 
f 24//24 26//26 25//25 
f 25//25 26//26 27//27 
f 26//26 28//28 27//27 
f 27//27 28//28 29//29 
f 28//28 30//30 29//29 
f 29//29 30//30 30//30 
f 30//30 28//28 30//30 
f 30//30 28//28 28//28 
f 28//28 26//26 28//28 
f 28//28 26//26 31//31 
f 26//26 32//32 31//31 
f 31//31 32//32 32//32 
f 32//32 29//29 32//32 
f 32//32 29//29 29//29 
f 29//29 33//33 29//29 
f 29//29 33//33 27//27 
f 33//33 33//33 27//27 
f 27//27 33//33 34//34 
f 33//33 33//33 34//34 
f 34//34 33//33 35//35 
f 33//33 36//36 35//35 
f 35//35 36//36 36//36 
f 36//36 37//37 36//36 
f 36//36 37//37 37//37 
f 37//37 38//38 37//37 
f 37//37 38//38 39//39 
f 38//38 40//40 39//39 
f 39//39 40//40 40//40 
f 40//40 41//41 40//40 
f 40//40 41//41 41//41 
f 41//41 42//42 41//41 
f 41//41 42//42 43//43 
f 42//42 44//44 43//43 
f 43//43 44//44 44//44 
f 44//44 45//45 44//44 
f 44//44 45//45 45//45 
f 45//45 46//46 45//45 
f 45//45 46//46 47//47 
f 46//46 48//48 47//47 
f 47//47 48//48 47//47 
f 48//48 49//49 47//47 
f 47//47 49//49 50//50 
f 49//49 49//49 50//50 
f 50//50 49//49 51//51 
f 49//49 52//52 51//51 
f 51//51 52//52 52//52 
f 52//52 53//53 52//52 
f 52//52 53//53 53//53 
f 53//53 54//54 53//53 
f 53//53 54//54 55//55 
f 54//54 56//56 55//55 
f 55//55 56//56 56//56 
f 56//56 57//57 56//56 
f 56//56 57//57 57//57 
f 57//57 58//58 57//57 
f 57//57 58//58 59//59 
f 58//58 60//60 59//59 
f 59//59 60//60 60//60 
f 60//60 61//61 60//60 
f 60//60 61//61 61//61 
f 61//61 62//62 61//61 
f 61//61 62//62 63//63 
f 62//62 64//64 63//63 
f 63//63 64//64 64//64 
f 64//64 65//65 64//64 
f 64//64 65//65 65//65 
f 65//65 66//66 65//65 
f 65//65 66//66 67//67 
f 66//66 68//68 67//67 
f 67//67 68//68 68//68 
f 68//68 69//69 68//68 
f 68//68 69//69 69//69 
f 69//69 70//70 69//69 
f 69//69 70//70 71//71 
f 70//70 72//72 71//71 
f 71//71 72//72 72//72 
f 72//72 73//73 72//72 
f 72//72 73//73 73//73 
f 73//73 74//74 73//73 
f 73//73 74//74 75//75 
f 74//74 76//76 75//75 
f 75//75 76//76 76//76 
f 76//76 77//77 76//76 
f 76//76 77//77 77//77 
f 77//77 78//78 77//77 
f 77//77 78//78 79//79 
f 78//78 80//80 79//79 
f 79//79 80//80 80//80 
f 80//80 81//81 80//80 
f 80//80 81//81 81//81 
f 81//81 82//82 81//81 
f 81//81 82//82 83//83 
f 82//82 84//84 83//83 
f 83//83 84//84 84//84 
f 84//84 85//85 84//84 
f 84//84 85//85 85//85 
f 85//85 86//86 85//85 
f 85//85 86//86 87//87 
f 86//86 88//88 87//87 

