mtllib model_1.mtl
o model_1
v 44.11931228637695 53.28929901123047 -52.499237060546875 
v 44.032814025878906 53.56430435180664 -42.91789627075195 
v 43.26713562011719 56.45494842529297 -43.413639068603516 
v 41.39619445800781 60.04447555541992 -32.939964294433594 
v 43.15180206298828 53.97784423828125 -26.91895294189453 
v 37.824100494384766 63.17083740234375 -23.79127311706543 
v 41.74859619140625 54.077091217041016 -17.274518966674805 
v 34.08221435546875 64.8311996459961 -18.7707576751709 
v 39.37788009643555 54.221832275390625 -8.90999984741211 
v 44.14173889160156 53.295501708984375 -52.499237060546875 
v 43.28635787963867 56.461151123046875 -43.413639068603516 
v 44.05203628540039 53.57050704956055 -42.91789627075195 
v 41.41541290283203 60.0527458190918 -32.939964294433594 
v 43.171024322509766 53.986114501953125 -26.91895294189453 
v 37.840118408203125 63.181175231933594 -23.782258987426758 
v 41.76461410522461 54.089500427246094 -17.265504837036133 
v 34.101436614990234 64.8436050415039 -18.76174545288086 
v 39.39710235595703 54.236305236816406 -8.90999984741211 
v -44.14179611206055 53.295501708984375 -52.499237060546875 
v -43.38252639770508 56.46942138671875 -43.39561462402344 
v -44.0552978515625 53.57050704956055 -42.91789627075195 
v -41.707008361816406 60.09203338623047 -32.867855072021484 
v -43.171085357666016 53.986114501953125 -26.91895294189453 
v -38.32072830200195 63.25768280029297 -23.638042449951172 
v -41.764671325683594 54.089500427246094 -17.265504837036133 
v -34.674949645996094 64.8704833984375 -18.76174545288086 
v -39.393959045410156 54.236305236816406 -8.90999984741211 
v -44.11936950683594 53.29136657714844 -52.499237060546875 
v -43.36009979248047 56.46528625488281 -43.404624938964844 
v -44.03287124633789 53.56637191772461 -42.91789627075195 
v -41.6845817565918 60.08583068847656 -32.867855072021484 
v -43.15186309814453 53.97784423828125 -26.91895294189453 
v -38.304710388183594 63.247344970703125 -23.647056579589844 
v -41.748653411865234 54.077091217041016 -17.274518966674805 
v -34.658931732177734 64.85807800292969 -18.7707576751709 
v -39.37793731689453 54.221832275390625 -8.90999984741211 
v 33.54399871826172 64.938720703125 -17.860395431518555 
v 38.9517936706543 54.203224182128906 -7.9816107749938965 
v 30.100051879882812 65.89606475830078 -15.525901794433594 
v 36.36322784423828 54.17013931274414 -2.8349080085754395 
v 24.846033096313477 66.66732025146484 -12.803828239440918 
v 32.61172866821289 54.178409576416016 1.725917935371399 
v 20.71970558166504 67.09119415283203 -11.217453956604004 
v 28.658401489257812 54.18254470825195 4.952747344970703 
v 16.808025360107422 67.3910140991211 -10.07274055480957 
v 22.31833839416504 54.17634201049805 7.2602009773254395 
v 10.439129829406738 67.68255615234375 -8.882959365844727 
v 14.168201446533203 54.161869049072266 8.594197273254395 
v 0.8024901151657104 67.8272933959961 -8.450312614440918 
v 0.728805661201477 54.197017669677734 9.32429027557373 
v 0.728805661201477 54.180477142333984 9.306262969970703 
v 14.164998054504395 54.14326095581055 8.576169967651367 
v 0.8024901151657104 67.80868530273438 -8.468338966369629 
v 10.439129829406738 67.666015625 -8.900986671447754 
v 22.315134048461914 54.1598014831543 7.242173671722412 
v 16.804821014404297 67.37240600585938 -10.090767860412598 
v 28.651992797851562 54.163936614990234 4.9437336921691895 
v 20.713298797607422 67.07465362548828 -11.235480308532715 
v 32.60211944580078 54.1598014831543 1.7169044017791748 
v 24.836421966552734 66.6487045288086 -12.821854591369629 
v 36.35041427612305 54.15359878540039 -2.843921422958374 
v 30.09044075012207 65.87952423095703 -15.53491497039795 
v 38.93577575683594 54.18667984008789 -7.99062442779541 
v 33.53118133544922 64.92218017578125 -17.8784236907959 
v -34.11751174926758 64.96353149414062 -17.869409561157227 
v -38.948646545410156 54.203224182128906 -7.9816107749938965 
v -30.26029396057129 65.91880798339844 -15.498861312866211 
v -36.363285064697266 54.17013931274414 -2.8349080085754395 
v -25.252958297729492 66.56393432617188 -13.16436767578125 
v -32.61178970336914 54.178409576416016 1.725917935371399 
v -20.703746795654297 67.01469421386719 -11.487858772277832 
v -28.658458709716797 54.18254470825195 4.952747344970703 
v -16.843324661254883 67.3021011352539 -10.379199028015137 
v -22.318395614624023 54.17634201049805 7.2602009773254395 
v -10.413558959960938 67.61846160888672 -9.108297348022461 
v -14.168259620666504 54.161869049072266 8.594197273254395 
v -0.6936237812042236 67.8272933959961 -8.450312614440918 
v -0.725660502910614 54.197017669677734 9.32429027557373 
v -0.725660502910614 54.180477142333984 9.306262969970703 
v -14.165056228637695 54.14326095581055 8.576169967651367 
v -0.6904200911521912 67.80868530273438 -8.468338966369629 
v -10.410354614257812 67.60192108154297 -9.117310523986816 
v -22.31519317626953 54.1598014831543 7.242173671722412 
v -16.840120315551758 67.28349304199219 -10.388212203979492 
v -28.65205192565918 54.163936614990234 4.9437336921691895 
v -20.700542449951172 66.99607849121094 -11.496871948242188 
v -32.602176666259766 54.1598014831543 1.7169044017791748 
v -25.246551513671875 66.54532623291016 -13.173380851745605 
v -36.35047149658203 54.15359878540039 -2.843921422958374 
v -30.250682830810547 65.90226745605469 -15.516888618469238 
v -38.93583297729492 54.18667984008789 -7.99062442779541 
v -34.10790252685547 64.94905853271484 -17.8784236907959 
vn -0.9663954377174377 -0.25706008076667786 1.9981581764628303e-13 
vn -0.9588491916656494 -0.28230419754981995 -0.03020862117409706 
vn -0.9577175974845886 -0.2864931523799896 -0.026432441547513008 
vn -0.9262489080429077 -0.3649536371231079 -0.09419030696153641 
vn -0.899749219417572 -0.417220801115036 -0.12797698378562927 
vn -0.8296629190444946 -0.5175535082817078 -0.20927926898002625 
vn -0.8069517612457275 -0.5434780716896057 -0.23121501505374908 
vn -0.764776885509491 -0.5831804275512695 -0.2738921642303467 
vn -0.764776885509491 -0.5831804275512695 -0.2738921642303467 
vn 0.9663954377174377 0.25706008076667786 5.707890333750713e-17 
vn 0.9576071500778198 0.2864931523799896 0.030169490724802017 
vn 0.9588503837585449 0.28230419754981995 0.030170826241374016 
vn 0.9266231060028076 0.3649536371231079 0.09043484181165695 
vn 0.899773120880127 0.417220801115036 0.1278090476989746 
vn 0.8297353982925415 0.5175535082817078 0.20899173617362976 
vn 0.8070440292358398 0.5434780716896057 0.2308928519487381 
vn 0.764915943145752 0.5831804275512695 0.2735036313533783 
vn 0.764915943145752 0.5831804275512695 0.2735036313533783 
vn -0.9737972617149353 0.22738653421401978 0.0037722436245530844 
vn -0.9681340456008911 0.24860523641109467 0.030198203399777412 
vn -0.9681340456008911 0.24860523641109467 0.030198203399777412 
vn -0.9417508244514465 0.3239381015300751 0.0903855711221695 
vn -0.9167593717575073 0.37712597846984863 0.13163679838180542 
vn -0.8490608930587769 0.4835140109062195 0.21286097168922424 
vn -0.8264496326446533 0.5100564956665039 0.23837657272815704 
vn -0.7820379734039307 0.5544344186782837 0.28463855385780334 
vn -0.7820379734039307 0.5544344186782837 0.28463855385780334 
vn 0.9738045930862427 -0.22738653421401978 -5.049004249033029e-17 
vn 0.9681340456008911 -0.24860523641109467 -0.030198203399777412 
vn 0.9681340456008911 -0.24860523641109467 -0.030198203399777412 
vn 0.9417397975921631 -0.3239381015300751 -0.09050006419420242 
vn 0.9172881245613098 -0.37712597846984863 -0.12790019810199738 
vn 0.8480613231658936 -0.4835140109062195 -0.21680915355682373 
vn 0.8263559341430664 -0.5100564956665039 -0.23870113492012024 
vn 0.7831802368164062 -0.5544344186782837 -0.2814803719520569 
vn 0.7831802368164062 -0.5544344186782837 -0.2814803719520569 
vn 0.5932279229164124 0.7032341957092285 0.39184466004371643 
vn 0.5932279229164124 0.7032341957092285 0.39184466004371643 
vn 0.5131639242172241 0.7424622178077698 0.43059563636779785 
vn 0.5005586743354797 0.7482877969741821 0.43532323837280273 
vn 0.38216280937194824 0.790128231048584 0.4792170226573944 
vn 0.38216280937194824 0.790128231048584 0.4792170226573944 
vn 0.2666664123535156 0.8085030317306519 0.5246064066886902 
vn 0.273357629776001 0.8085030317306519 0.521151065826416 
vn 0.15988244116306305 0.8059239983558655 0.5700212121009827 
vn 0.16168749332427979 0.8085030317306519 0.5658444762229919 
vn 0.0714753121137619 0.7980946898460388 0.5982776880264282 
vn 0.07895774394273758 0.7980946898460388 0.5973362326622009 
vn 0.03766787797212601 0.7927988767623901 0.6083182692527771 
vn 0.03766787797212601 0.7927988767623901 0.6083182692527771 
vn -0.0396265834569931 -0.7927988767623901 -0.6081938147544861 
vn -0.08098682016134262 -0.7980946898460388 -0.5970644950866699 
vn -0.0396265834569931 -0.7927988767623901 -0.6081938147544861 
vn -0.07349269092082977 -0.7980946898460388 -0.5980331897735596 
vn -0.16233152151107788 -0.8085030317306519 -0.5656600594520569 
vn -0.15687409043312073 -0.8059239983558655 -0.5708564519882202 
vn -0.2676749527454376 -0.8085030317306519 -0.5240924954414368 
vn -0.2676749527454376 -0.8085030317306519 -0.5240924954414368 
vn -0.3813188076019287 -0.790128231048584 -0.4798888862133026 
vn -0.3813188076019287 -0.790128231048584 -0.4798888862133026 
vn -0.49999377131462097 -0.7482877969741821 -0.4359719753265381 
vn -0.5150479078292847 -0.7424622178077698 -0.428340345621109 
vn -0.5949183106422424 -0.7032341957092285 -0.3892734944820404 
vn -0.5949183106422424 -0.7032341957092285 -0.3892734944820404 
vn -0.5836493372917175 0.6969945430755615 0.41659581661224365 
vn -0.5836493372917175 0.6969945430755615 0.41659581661224365 
vn -0.504993736743927 0.7395281791687012 0.4450611174106598 
vn -0.4879930913448334 0.7482877969741821 0.4493640959262848 
vn -0.37152814865112305 0.7927988767623901 0.48315298557281494 
vn -0.36978939175605774 0.7954543828964233 0.4801126718521118 
vn -0.2597489356994629 0.8136147856712341 0.5201551914215088 
vn -0.26646557450294495 0.8136147856712341 0.5167465806007385 
vn -0.16166406869888306 0.8136147856712341 0.5584762096405029 
vn -0.16166406869888306 0.8136147856712341 0.5584762096405029 
vn -0.08068659156560898 0.8033295273780823 0.5900435447692871 
vn -0.08068659156560898 0.8033295273780823 0.5900435447692871 
vn -0.043317969888448715 0.7954543828964233 0.6044633388519287 
vn -0.043317969888448715 0.7954543828964233 0.6044633388519287 
vn 0.045287445187568665 -0.7954543828964233 -0.6043189764022827 
vn 0.08101057261228561 -0.8033295273780823 -0.5899991393089294 
vn 0.045287445187568665 -0.7954543828964233 -0.6043189764022827 
vn 0.08101057261228561 -0.8033295273780823 -0.5899991393089294 
vn 0.16231556236743927 -0.8136147856712341 -0.5582872033119202 
vn 0.16231556236743927 -0.8136147856712341 -0.5582872033119202 
vn 0.2607460021972656 -0.8136147856712341 -0.5196561217308044 
vn 0.2607460021972656 -0.8136147856712341 -0.5196561217308044 
vn 0.36591362953186035 -0.7954543828964233 -0.48307305574417114 
vn 0.37662267684936523 -0.7927988767623901 -0.4791923761367798 
vn 0.4848177134990692 -0.7482877969741821 -0.4527881443500519 
vn 0.5069116950035095 -0.7395281791687012 -0.4428754150867462 
vn 0.5827814340591431 -0.6969945430755615 -0.41780903935432434 
vn 0.5827814340591431 -0.6969945430755615 -0.41780903935432434 
s on 
f 1//1 2//2 3//3 
f 2//2 2//2 3//3 
f 3//3 2//2 4//4 
f 2//2 5//5 4//4 
f 4//4 5//5 6//6 
f 5//5 7//7 6//6 
f 6//6 7//7 8//8 
f 7//7 9//9 8//8 
f 8//8 9//9 9//9 
f 9//9 10//10 9//9 
f 9//9 10//10 10//10 
f 10//10 11//11 10//10 
f 10//10 11//11 12//12 
f 11//11 13//13 12//12 
f 12//12 13//13 14//14 
f 13//13 15//15 14//14 
f 14//14 15//15 16//16 
f 15//15 17//17 16//16 
f 16//16 17//17 18//18 
f 17//17 18//18 18//18 
f 18//18 18//18 19//19 
f 18//18 19//19 19//19 
f 19//19 19//19 20//20 
f 19//19 21//21 20//20 
f 20//20 21//21 22//22 
f 21//21 23//23 22//22 
f 22//22 23//23 24//24 
f 23//23 25//25 24//24 
f 24//24 25//25 26//26 
f 25//25 27//27 26//26 
f 26//26 27//27 27//27 
f 27//27 28//28 27//27 
f 27//27 28//28 28//28 
f 28//28 29//29 28//28 
f 28//28 29//29 30//30 
f 29//29 31//31 30//30 
f 30//30 31//31 32//32 
f 31//31 33//33 32//32 
f 32//32 33//33 34//34 
f 33//33 35//35 34//34 
f 34//34 35//35 36//36 
f 35//35 36//36 36//36 
f 36//36 36//36 37//37 
f 36//36 37//37 37//37 
f 37//37 37//37 38//38 
f 37//37 39//39 38//38 
f 38//38 39//39 40//40 
f 39//39 41//41 40//40 
f 40//40 41//41 42//42 
f 41//41 43//43 42//42 
f 42//42 43//43 44//44 
f 43//43 45//45 44//44 
f 44//44 45//45 46//46 
f 45//45 47//47 46//46 
f 46//46 47//47 48//48 
f 47//47 49//49 48//48 
f 48//48 49//49 50//50 
f 49//49 50//50 50//50 
f 50//50 50//50 51//51 
f 50//50 51//51 51//51 
f 51//51 51//51 52//52 
f 51//51 53//53 52//52 
f 52//52 53//53 52//52 
f 53//53 54//54 52//52 
f 52//52 54//54 55//55 
f 54//54 56//56 55//55 
f 55//55 56//56 57//57 
f 56//56 58//58 57//57 
f 57//57 58//58 59//59 
f 58//58 60//60 59//59 
f 59//59 60//60 61//61 
f 60//60 62//62 61//61 
f 61//61 62//62 63//63 
f 62//62 64//64 63//63 
f 63//63 64//64 64//64 
f 64//64 65//65 64//64 
f 64//64 65//65 65//65 
f 65//65 66//66 65//65 
f 65//65 66//66 67//67 
f 66//66 68//68 67//67 
f 67//67 68//68 69//69 
f 68//68 70//70 69//69 
f 69//69 70//70 71//71 
f 70//70 72//72 71//71 
f 71//71 72//72 73//73 
f 72//72 74//74 73//73 
f 73//73 74//74 75//75 
f 74//74 76//76 75//75 
f 75//75 76//76 77//77 
f 76//76 78//78 77//77 
f 77//77 78//78 78//78 
f 78//78 79//79 78//78 
f 78//78 79//79 79//79 
f 79//79 80//80 79//79 
f 79//79 80//80 81//81 
f 80//80 80//80 81//81 
f 81//81 80//80 82//82 
f 80//80 83//83 82//82 
f 82//82 83//83 84//84 
f 83//83 85//85 84//84 
f 84//84 85//85 86//86 
f 85//85 87//87 86//86 
f 86//86 87//87 88//88 
f 87//87 89//89 88//88 
f 88//88 89//89 90//90 
f 89//89 91//91 90//90 
f 90//90 91//91 92//92 

